# MagicaVoxel @ Ephtracy

# group
o 

# material
mtllib LoboPatas2.mtl
usemtl palette

# normals
vn -1 0 0
vn 1 0 0
vn 0 0 1
vn 0 0 -1
vn 0 -1 0
vn 0 1 0

# texcoords
vt 0.0605469 0.5
vt 0.966797 0.5

# verts
v 0.2 0 0.4
v 0.2 0 0.2
v 0.2 0.1 0.4
v 0.2 0.1 0.3
v 0.2 0.1 0.2
v 0.2 0.1 0.1
v 0.2 0.2 0.3
v 0.2 0.2 0.2
v 0.2 0.2 0.1
v 0.2 0.2 5.96046e-08
v 0.2 0.5 0.2
v 0.2 0.5 5.96046e-08
v 0.3 0.5 0.2
v 0.3 0.5 0.1
v 0.3 0.5 5.96046e-08
v 0.3 0.6 0.2
v 0.3 0.6 0.1
v 0.3 0.6 5.96046e-08
v 0.3 0.6 -0.1
v 0.3 0.8 0.2
v 0.3 0.8 -0.1
v 0.3 0.2 0.1
v 0.3 0.2 5.96046e-08
v 0.3 0.4 0.1
v 0.3 0.5 0.1
v 0.3 0.5 5.96046e-08
v 0.4 0 0.4
v 0.4 0 0.2
v 0.4 0.1 0.4
v 0.4 0.1 0.3
v 0.4 0.1 0.2
v 0.4 0.1 0.1
v 0.4 0.2 0.3
v 0.4 0.2 0.2
v 0.4 0.4 0.2
v 0.4 0.4 0.1
v 0.4 0.5 0.1
v 0.4 0.5 5.96046e-08
v 0.4 0.6 0.2
v 0.4 0.6 0.1
v 0.4 0.6 5.96046e-08
v 0.4 0.6 -0.1
v 0.4 0.7 0.1
v 0.4 0.7 5.96046e-08
v 0.4 0.8 5.96046e-08
v 0.4 0.8 -0.1
v 0.5 0.6 0.2
v 0.5 0.6 0.1
v 0.5 0.7 0.2
v 0.5 0.7 0.1
v 0.5 0.7 5.96046e-08
v 0.5 0.8 0.2
v 0.5 0.8 0.1
v 0.5 0.8 5.96046e-08
v 0.2 0 0.4
v 0.2 0.1 0.4
v 0.4 0 0.4
v 0.4 0.1 0.4
v 0.2 0.1 0.3
v 0.2 0.2 0.3
v 0.4 0.1 0.3
v 0.4 0.2 0.3
v 0.2 0.2 0.2
v 0.2 0.5 0.2
v 0.3 0.4 0.2
v 0.3 0.5 0.2
v 0.3 0.6 0.2
v 0.3 0.8 0.2
v 0.4 0.2 0.2
v 0.4 0.4 0.2
v 0.4 0.6 0.2
v 0.4 0.7 0.2
v 0.5 0.6 0.2
v 0.5 0.7 0.2
v 0.5 0.8 0.2
v 0.2 0 0.2
v 0.2 0.1 0.2
v 0.4 0 0.2
v 0.4 0.1 0.2
v 0.2 0.1 0.1
v 0.2 0.2 0.1
v 0.3 0.2 0.1
v 0.3 0.4 0.1
v 0.3 0.5 0.1
v 0.4 0.1 0.1
v 0.4 0.4 0.1
v 0.4 0.5 0.1
v 0.4 0.6 0.1
v 0.4 0.7 0.1
v 0.5 0.6 0.1
v 0.5 0.7 0.1
v 0.2 0.2 5.96046e-08
v 0.2 0.5 5.96046e-08
v 0.3 0.2 5.96046e-08
v 0.3 0.5 5.96046e-08
v 0.3 0.6 5.96046e-08
v 0.4 0.5 5.96046e-08
v 0.4 0.6 5.96046e-08
v 0.4 0.7 5.96046e-08
v 0.4 0.8 5.96046e-08
v 0.5 0.7 5.96046e-08
v 0.5 0.8 5.96046e-08
v 0.3 0.6 -0.1
v 0.3 0.8 -0.1
v 0.4 0.6 -0.1
v 0.4 0.8 -0.1
v 0.2 0 0.4
v 0.4 0 0.4
v 0.2 0 0.2
v 0.4 0 0.2
v 0.2 0.1 0.2
v 0.4 0.1 0.2
v 0.2 0.1 0.1
v 0.4 0.1 0.1
v 0.2 0.2 0.1
v 0.3 0.2 0.1
v 0.2 0.2 5.96046e-08
v 0.3 0.2 5.96046e-08
v 0.3 0.5 0.1
v 0.4 0.5 0.1
v 0.3 0.5 5.96046e-08
v 0.4 0.5 5.96046e-08
v 0.4 0.6 0.2
v 0.5 0.6 0.2
v 0.4 0.6 0.1
v 0.5 0.6 0.1
v 0.3 0.6 5.96046e-08
v 0.4 0.6 5.96046e-08
v 0.3 0.6 -0.1
v 0.4 0.6 -0.1
v 0.4 0.7 0.1
v 0.5 0.7 0.1
v 0.4 0.7 5.96046e-08
v 0.5 0.7 5.96046e-08
v 0.2 0.1 0.4
v 0.4 0.1 0.4
v 0.2 0.1 0.3
v 0.4 0.1 0.3
v 0.2 0.2 0.3
v 0.4 0.2 0.3
v 0.2 0.2 0.2
v 0.4 0.2 0.2
v 0.2 0.5 0.2
v 0.3 0.5 0.2
v 0.3 0.5 0.1
v 0.2 0.5 5.96046e-08
v 0.3 0.5 5.96046e-08
v 0.3 0.8 0.2
v 0.5 0.8 0.2
v 0.4 0.8 0.1
v 0.5 0.8 0.1
v 0.4 0.8 5.96046e-08
v 0.5 0.8 5.96046e-08
v 0.3 0.8 -0.1
v 0.4 0.8 -0.1

# faces
f 3/2/1 2/2/1 1/2/1
f 4/2/1 2/2/1 3/2/1
f 5/2/1 2/2/1 4/2/1
f 7/2/1 6/2/1 5/2/1
f 7/2/1 5/2/1 4/2/1
f 8/2/1 6/2/1 7/2/1
f 9/2/1 6/2/1 8/2/1
f 11/2/1 10/2/1 9/2/1
f 11/2/1 9/2/1 8/2/1
f 12/2/1 10/2/1 11/2/1
f 16/1/1 14/1/1 13/1/1
f 17/2/1 15/2/1 14/2/1
f 17/1/1 14/1/1 16/1/1
f 18/2/1 15/2/1 17/2/1
f 20/2/1 17/2/1 16/2/1
f 20/2/1 19/2/1 18/2/1
f 20/2/1 18/2/1 17/2/1
f 21/2/1 19/2/1 20/2/1
f 22/2/2 23/2/2 24/2/2
f 24/2/2 23/2/2 25/2/2
f 25/2/2 23/2/2 26/2/2
f 27/2/2 28/2/2 29/2/2
f 29/2/2 28/2/2 30/2/2
f 30/2/2 28/2/2 31/2/2
f 31/2/2 32/2/2 33/2/2
f 30/2/2 31/2/2 33/2/2
f 33/2/2 32/2/2 34/2/2
f 34/2/2 32/2/2 35/2/2
f 35/2/2 32/2/2 36/2/2
f 35/1/2 36/1/2 37/1/2
f 35/1/2 37/1/2 39/1/2
f 37/2/2 38/2/2 40/2/2
f 39/1/2 37/1/2 40/1/2
f 40/2/2 38/2/2 41/2/2
f 41/2/2 42/2/2 43/2/2
f 40/2/2 41/2/2 43/2/2
f 43/2/2 42/2/2 44/2/2
f 44/2/2 42/2/2 45/2/2
f 45/2/2 42/2/2 46/2/2
f 47/1/2 48/1/2 49/1/2
f 49/1/2 48/1/2 50/1/2
f 49/2/2 50/2/2 52/2/2
f 50/1/2 51/1/2 53/1/2
f 52/2/2 50/2/2 53/2/2
f 53/1/2 51/1/2 54/1/2
f 57/2/3 56/2/3 55/2/3
f 58/2/3 56/2/3 57/2/3
f 61/2/3 60/2/3 59/2/3
f 62/2/3 60/2/3 61/2/3
f 65/2/3 64/2/3 63/2/3
f 66/2/3 64/2/3 65/2/3
f 69/2/3 65/2/3 63/2/3
f 70/1/3 66/1/3 65/1/3
f 70/2/3 65/2/3 69/2/3
f 70/1/3 67/1/3 66/1/3
f 71/2/3 68/2/3 67/2/3
f 71/1/3 67/1/3 70/1/3
f 72/2/3 68/2/3 71/2/3
f 73/1/3 72/1/3 71/1/3
f 74/2/3 68/2/3 72/2/3
f 74/1/3 72/1/3 73/1/3
f 75/2/3 68/2/3 74/2/3
f 76/2/4 77/2/4 78/2/4
f 78/2/4 77/2/4 79/2/4
f 80/2/4 81/2/4 82/2/4
f 80/2/4 82/2/4 85/2/4
f 82/2/4 83/2/4 85/2/4
f 83/1/4 84/1/4 86/1/4
f 85/2/4 83/2/4 86/2/4
f 86/1/4 84/1/4 87/1/4
f 88/1/4 89/1/4 90/1/4
f 90/1/4 89/1/4 91/1/4
f 92/2/4 93/2/4 94/2/4
f 94/2/4 93/2/4 95/2/4
f 95/2/4 96/2/4 97/2/4
f 97/2/4 96/2/4 98/2/4
f 99/1/4 100/1/4 101/1/4
f 101/1/4 100/1/4 102/1/4
f 103/2/4 104/2/4 105/2/4
f 105/2/4 104/2/4 106/2/4
f 109/2/5 108/2/5 107/2/5
f 110/2/5 108/2/5 109/2/5
f 113/2/5 112/2/5 111/2/5
f 114/2/5 112/2/5 113/2/5
f 117/2/5 116/2/5 115/2/5
f 118/2/5 116/2/5 117/2/5
f 121/2/5 120/2/5 119/2/5
f 122/2/5 120/2/5 121/2/5
f 125/1/5 124/1/5 123/1/5
f 126/1/5 124/1/5 125/1/5
f 129/2/5 128/2/5 127/2/5
f 130/2/5 128/2/5 129/2/5
f 133/1/5 132/1/5 131/1/5
f 134/1/5 132/1/5 133/1/5
f 135/2/6 136/2/6 137/2/6
f 137/2/6 136/2/6 138/2/6
f 139/2/6 140/2/6 141/2/6
f 141/2/6 140/2/6 142/2/6
f 143/2/6 144/2/6 145/2/6
f 143/2/6 145/2/6 146/2/6
f 146/2/6 145/2/6 147/2/6
f 148/2/6 149/2/6 150/2/6
f 150/2/6 149/2/6 151/2/6
f 148/2/6 150/2/6 152/2/6
f 150/1/6 151/1/6 152/1/6
f 152/1/6 151/1/6 153/1/6
f 148/2/6 152/2/6 154/2/6
f 154/2/6 152/2/6 155/2/6
