# MagicaVoxel @ Ephtracy

# group
o 

# material
mtllib VaritaFuego.mtl
usemtl palette

# normals
vn -1 0 0
vn 1 0 0
vn 0 0 1
vn 0 0 -1
vn 0 -1 0
vn 0 1 0

# texcoords
vt 0.0996094 0.5
vt 0.146484 0.5
vt 0.427734 0.5
vt 0.923828 0.5
vt 0.947266 0.5

# verts
v -0.3 0.9 0
v -0.3 0.9 -0.1
v -0.3 1.1 0
v -0.3 1.1 -0.1
v -0.2 0.8 0
v -0.2 0.8 -0.1
v -0.2 0.9 0
v -0.2 0.9 -0.1
v -0.1 0.3 0
v -0.1 0.3 -0.1
v -0.1 0.4 0
v -0.1 0.4 -0.1
v -0.1 0.7 0
v -0.1 0.7 -0.1
v -0.1 0.8 0.1
v -0.1 0.8 0
v -0.1 0.8 -0.1
v -0.1 0.8 -0.2
v -0.1 0.9 0.1
v -0.1 0.9 0
v -0.1 0.9 -0.1
v -0.1 0.9 -0.2
v -0.1 1 0
v -0.1 1 -0.1
v -0.1 1.1 0.1
v -0.1 1.1 0
v -0.1 1.1 -0.1
v -0.1 1.1 -0.2
v -0.1 1.2 0.1
v -0.1 1.2 0
v -0.1 1.2 -0.1
v -0.1 1.2 -0.2
v -0.1 1.3 0
v -0.1 1.3 -0.1
v 0 0 0
v 0 0 -0.1
v 0 0.3 0.1
v 0 0.3 0
v 0 0.3 -0.1
v 0 0.3 -0.2
v 0 0.4 0.1
v 0 0.4 0
v 0 0.4 -0.1
v 0 0.4 -0.2
v 0 0.7 0.1
v 0 0.7 0
v 0 0.7 -0.1
v 0 0.7 -0.2
v 0 0.8 0.2
v 0 0.8 0.1
v 0 0.8 0
v 0 0.8 -0.1
v 0 0.8 -0.2
v 0 0.8 -0.3
v 0 0.9 0.3
v 0 0.9 0.2
v 0 0.9 0.1
v 0 0.9 -0.2
v 0 0.9 -0.3
v 0 0.9 -0.4
v 0 1 0.1
v 0 1 0
v 0 1 -0.1
v 0 1 -0.2
v 0 1.1 0.3
v 0 1.1 0.2
v 0 1.1 0.1
v 0 1.1 0
v 0 1.1 -0.1
v 0 1.1 -0.2
v 0 1.1 -0.3
v 0 1.1 -0.4
v 0 1.2 0.1
v 0 1.2 0
v 0 1.2 -0.1
v 0 1.2 -0.2
v 0 1.3 0.1
v 0 1.3 0
v 0 1.3 -0.1
v 0 1.3 -0.2
v 0 1.4 0
v 0 1.4 -0.1
v 0.1 0.8 0
v 0.1 0.8 -0.1
v 0.1 0.9 0
v 0.1 0.9 -0.1
v 0.3 0.9 0
v 0.3 0.9 -0.1
v 0.3 1.1 0
v 0.3 1.1 -0.1
v -0.2 0.9 0
v -0.2 0.9 -0.1
v -0.2 1.1 0
v -0.2 1.1 -0.1
v 0 0.8 0
v 0 0.8 -0.1
v 0 0.9 0
v 0 0.9 -0.1
v 0.1 0 0
v 0.1 0 -0.1
v 0.1 0.3 0.1
v 0.1 0.3 0
v 0.1 0.3 -0.1
v 0.1 0.3 -0.2
v 0.1 0.4 0.1
v 0.1 0.4 0
v 0.1 0.4 -0.1
v 0.1 0.4 -0.2
v 0.1 0.7 0.1
v 0.1 0.7 0
v 0.1 0.7 -0.1
v 0.1 0.7 -0.2
v 0.1 0.8 0.2
v 0.1 0.8 0.1
v 0.1 0.8 0
v 0.1 0.8 -0.1
v 0.1 0.8 -0.2
v 0.1 0.8 -0.3
v 0.1 0.9 0.3
v 0.1 0.9 0.2
v 0.1 0.9 0.1
v 0.1 0.9 -0.2
v 0.1 0.9 -0.3
v 0.1 0.9 -0.4
v 0.1 1 0.1
v 0.1 1 0
v 0.1 1 -0.1
v 0.1 1 -0.2
v 0.1 1.1 0.3
v 0.1 1.1 0.2
v 0.1 1.1 0.1
v 0.1 1.1 0
v 0.1 1.1 -0.1
v 0.1 1.1 -0.2
v 0.1 1.1 -0.3
v 0.1 1.1 -0.4
v 0.1 1.2 0.1
v 0.1 1.2 0
v 0.1 1.2 -0.1
v 0.1 1.2 -0.2
v 0.1 1.3 0.1
v 0.1 1.3 0
v 0.1 1.3 -0.1
v 0.1 1.3 -0.2
v 0.1 1.4 0
v 0.1 1.4 -0.1
v 0.2 0.3 0
v 0.2 0.3 -0.1
v 0.2 0.4 0
v 0.2 0.4 -0.1
v 0.2 0.7 0
v 0.2 0.7 -0.1
v 0.2 0.8 0.1
v 0.2 0.8 0
v 0.2 0.8 -0.1
v 0.2 0.8 -0.2
v 0.2 0.9 0.1
v 0.2 0.9 0
v 0.2 0.9 -0.1
v 0.2 0.9 -0.2
v 0.2 1 0
v 0.2 1 -0.1
v 0.2 1.1 0.1
v 0.2 1.1 0
v 0.2 1.1 -0.1
v 0.2 1.1 -0.2
v 0.2 1.2 0.1
v 0.2 1.2 0
v 0.2 1.2 -0.1
v 0.2 1.2 -0.2
v 0.2 1.3 0
v 0.2 1.3 -0.1
v 0.3 0.8 0
v 0.3 0.8 -0.1
v 0.3 0.9 0
v 0.3 0.9 -0.1
v 0.4 0.9 0
v 0.4 0.9 -0.1
v 0.4 1.1 0
v 0.4 1.1 -0.1
v 0 0.9 0.3
v 0 1.1 0.3
v 0.1 0.9 0.3
v 0.1 1.1 0.3
v 0 0.8 0.2
v 0 0.9 0.2
v 0.1 0.8 0.2
v 0.1 0.9 0.2
v -0.1 0.8 0.1
v -0.1 0.9 0.1
v -0.1 1.1 0.1
v -0.1 1.2 0.1
v 0 0.3 0.1
v 0 0.4 0.1
v 0 0.7 0.1
v 0 0.8 0.1
v 0 0.9 0.1
v 0 1 0.1
v 0 1.1 0.1
v 0 1.2 0.1
v 0 1.3 0.1
v 0.1 0.3 0.1
v 0.1 0.4 0.1
v 0.1 0.7 0.1
v 0.1 0.8 0.1
v 0.1 0.9 0.1
v 0.1 1 0.1
v 0.1 1.1 0.1
v 0.1 1.2 0.1
v 0.1 1.3 0.1
v 0.2 0.8 0.1
v 0.2 0.9 0.1
v 0.2 1.1 0.1
v 0.2 1.2 0.1
v -0.3 0.9 0
v -0.3 1.1 0
v -0.2 0.8 0
v -0.2 0.9 0
v -0.2 1.1 0
v -0.1 0.3 0
v -0.1 0.4 0
v -0.1 0.7 0
v -0.1 0.8 0
v -0.1 0.9 0
v -0.1 1 0
v -0.1 1.1 0
v -0.1 1.2 0
v -0.1 1.3 0
v 0 0 0
v 0 0.3 0
v 0 0.4 0
v 0 0.7 0
v 0 0.8 0
v 0 1 0
v 0 1.1 0
v 0 1.2 0
v 0 1.3 0
v 0 1.4 0
v 0.1 0 0
v 0.1 0.3 0
v 0.1 0.4 0
v 0.1 0.7 0
v 0.1 0.8 0
v 0.1 1 0
v 0.1 1.1 0
v 0.1 1.2 0
v 0.1 1.3 0
v 0.1 1.4 0
v 0.2 0.3 0
v 0.2 0.4 0
v 0.2 0.7 0
v 0.2 0.8 0
v 0.2 0.9 0
v 0.2 1 0
v 0.2 1.1 0
v 0.2 1.2 0
v 0.2 1.3 0
v 0.3 0.8 0
v 0.3 0.9 0
v 0.3 1.1 0
v 0.4 0.9 0
v 0.4 1.1 0
v 0 0.8 -0.1
v 0 0.9 -0.1
v 0.1 0.8 -0.1
v 0.1 0.9 -0.1
v 0 0.9 -0.3
v 0 1.1 -0.3
v 0.1 0.9 -0.3
v 0.1 1.1 -0.3
v 0 0.9 0.2
v 0 1.1 0.2
v 0.1 0.9 0.2
v 0.1 1.1 0.2
v 0 0.8 0
v 0 0.9 0
v 0.1 0.8 0
v 0.1 0.9 0
v -0.3 0.9 -0.1
v -0.3 1.1 -0.1
v -0.2 0.8 -0.1
v -0.2 0.9 -0.1
v -0.2 1.1 -0.1
v -0.1 0.3 -0.1
v -0.1 0.4 -0.1
v -0.1 0.7 -0.1
v -0.1 0.8 -0.1
v -0.1 0.9 -0.1
v -0.1 1 -0.1
v -0.1 1.1 -0.1
v -0.1 1.2 -0.1
v -0.1 1.3 -0.1
v 0 0 -0.1
v 0 0.3 -0.1
v 0 0.4 -0.1
v 0 0.7 -0.1
v 0 0.8 -0.1
v 0 1 -0.1
v 0 1.1 -0.1
v 0 1.2 -0.1
v 0 1.3 -0.1
v 0 1.4 -0.1
v 0.1 0 -0.1
v 0.1 0.3 -0.1
v 0.1 0.4 -0.1
v 0.1 0.7 -0.1
v 0.1 0.8 -0.1
v 0.1 1 -0.1
v 0.1 1.1 -0.1
v 0.1 1.2 -0.1
v 0.1 1.3 -0.1
v 0.1 1.4 -0.1
v 0.2 0.3 -0.1
v 0.2 0.4 -0.1
v 0.2 0.7 -0.1
v 0.2 0.8 -0.1
v 0.2 0.9 -0.1
v 0.2 1 -0.1
v 0.2 1.1 -0.1
v 0.2 1.2 -0.1
v 0.2 1.3 -0.1
v 0.3 0.8 -0.1
v 0.3 0.9 -0.1
v 0.3 1.1 -0.1
v 0.4 0.9 -0.1
v 0.4 1.1 -0.1
v -0.1 0.8 -0.2
v -0.1 0.9 -0.2
v -0.1 1.1 -0.2
v -0.1 1.2 -0.2
v 0 0.3 -0.2
v 0 0.4 -0.2
v 0 0.7 -0.2
v 0 0.8 -0.2
v 0 0.9 -0.2
v 0 1 -0.2
v 0 1.1 -0.2
v 0 1.2 -0.2
v 0 1.3 -0.2
v 0.1 0.3 -0.2
v 0.1 0.4 -0.2
v 0.1 0.7 -0.2
v 0.1 0.8 -0.2
v 0.1 0.9 -0.2
v 0.1 1 -0.2
v 0.1 1.1 -0.2
v 0.1 1.2 -0.2
v 0.1 1.3 -0.2
v 0.2 0.8 -0.2
v 0.2 0.9 -0.2
v 0.2 1.1 -0.2
v 0.2 1.2 -0.2
v 0 0.8 -0.3
v 0 0.9 -0.3
v 0.1 0.8 -0.3
v 0.1 0.9 -0.3
v 0 0.9 -0.4
v 0 1.1 -0.4
v 0.1 0.9 -0.4
v 0.1 1.1 -0.4
v 0 0 0
v 0.1 0 0
v 0 0 -0.1
v 0.1 0 -0.1
v 0 0.3 0.1
v 0.1 0.3 0.1
v -0.1 0.3 0
v 0 0.3 0
v 0.1 0.3 0
v 0.2 0.3 0
v -0.1 0.3 -0.1
v 0 0.3 -0.1
v 0.1 0.3 -0.1
v 0.2 0.3 -0.1
v 0 0.3 -0.2
v 0.1 0.3 -0.2
v 0 0.7 0.1
v 0.1 0.7 0.1
v -0.1 0.7 0
v 0 0.7 0
v 0.1 0.7 0
v 0.2 0.7 0
v -0.1 0.7 -0.1
v 0 0.7 -0.1
v 0.1 0.7 -0.1
v 0.2 0.7 -0.1
v 0 0.7 -0.2
v 0.1 0.7 -0.2
v 0 0.8 0.2
v 0.1 0.8 0.2
v -0.1 0.8 0.1
v 0 0.8 0.1
v 0.1 0.8 0.1
v 0.2 0.8 0.1
v -0.2 0.8 0
v -0.1 0.8 0
v 0 0.8 0
v 0.1 0.8 0
v 0.2 0.8 0
v 0.3 0.8 0
v -0.2 0.8 -0.1
v -0.1 0.8 -0.1
v 0 0.8 -0.1
v 0.1 0.8 -0.1
v 0.2 0.8 -0.1
v 0.3 0.8 -0.1
v -0.1 0.8 -0.2
v 0 0.8 -0.2
v 0.1 0.8 -0.2
v 0.2 0.8 -0.2
v 0 0.8 -0.3
v 0.1 0.8 -0.3
v 0 0.9 0.3
v 0.1 0.9 0.3
v 0 0.9 0.2
v 0.1 0.9 0.2
v -0.3 0.9 0
v -0.2 0.9 0
v 0.3 0.9 0
v 0.4 0.9 0
v -0.3 0.9 -0.1
v -0.2 0.9 -0.1
v 0.3 0.9 -0.1
v 0.4 0.9 -0.1
v 0 0.9 -0.3
v 0.1 0.9 -0.3
v 0 0.9 -0.4
v 0.1 0.9 -0.4
v 0 1 0.1
v 0.1 1 0.1
v -0.1 1 0
v 0 1 0
v 0.1 1 0
v 0.2 1 0
v -0.1 1 -0.1
v 0 1 -0.1
v 0.1 1 -0.1
v 0.2 1 -0.1
v 0 1 -0.2
v 0.1 1 -0.2
v -0.1 1.1 0.1
v 0 1.1 0.1
v 0.1 1.1 0.1
v 0.2 1.1 0.1
v -0.1 1.1 0
v 0 1.1 0
v 0.1 1.1 0
v 0.2 1.1 0
v -0.1 1.1 -0.1
v 0 1.1 -0.1
v 0.1 1.1 -0.1
v 0.2 1.1 -0.1
v -0.1 1.1 -0.2
v 0 1.1 -0.2
v 0.1 1.1 -0.2
v 0.2 1.1 -0.2
v 0 0.4 0.1
v 0.1 0.4 0.1
v -0.1 0.4 0
v 0 0.4 0
v 0.1 0.4 0
v 0.2 0.4 0
v -0.1 0.4 -0.1
v 0 0.4 -0.1
v 0.1 0.4 -0.1
v 0.2 0.4 -0.1
v 0 0.4 -0.2
v 0.1 0.4 -0.2
v 0 0.8 0
v 0.1 0.8 0
v 0 0.8 -0.1
v 0.1 0.8 -0.1
v 0 0.9 0.2
v 0.1 0.9 0.2
v -0.1 0.9 0.1
v 0 0.9 0.1
v 0.1 0.9 0.1
v 0.2 0.9 0.1
v -0.2 0.9 0
v -0.1 0.9 0
v 0 0.9 0
v 0.1 0.9 0
v 0.2 0.9 0
v 0.3 0.9 0
v -0.2 0.9 -0.1
v -0.1 0.9 -0.1
v 0 0.9 -0.1
v 0.1 0.9 -0.1
v 0.2 0.9 -0.1
v 0.3 0.9 -0.1
v -0.1 0.9 -0.2
v 0 0.9 -0.2
v 0.1 0.9 -0.2
v 0.2 0.9 -0.2
v 0 0.9 -0.3
v 0.1 0.9 -0.3
v 0 1.1 0.3
v 0.1 1.1 0.3
v 0 1.1 0.2
v 0.1 1.1 0.2
v -0.3 1.1 0
v -0.2 1.1 0
v 0.3 1.1 0
v 0.4 1.1 0
v -0.3 1.1 -0.1
v -0.2 1.1 -0.1
v 0.3 1.1 -0.1
v 0.4 1.1 -0.1
v 0 1.1 -0.3
v 0.1 1.1 -0.3
v 0 1.1 -0.4
v 0.1 1.1 -0.4
v -0.1 1.2 0.1
v 0 1.2 0.1
v 0.1 1.2 0.1
v 0.2 1.2 0.1
v -0.1 1.2 0
v 0 1.2 0
v 0.1 1.2 0
v 0.2 1.2 0
v -0.1 1.2 -0.1
v 0 1.2 -0.1
v 0.1 1.2 -0.1
v 0.2 1.2 -0.1
v -0.1 1.2 -0.2
v 0 1.2 -0.2
v 0.1 1.2 -0.2
v 0.2 1.2 -0.2
v 0 1.3 0.1
v 0.1 1.3 0.1
v -0.1 1.3 0
v 0 1.3 0
v 0.1 1.3 0
v 0.2 1.3 0
v -0.1 1.3 -0.1
v 0 1.3 -0.1
v 0.1 1.3 -0.1
v 0.2 1.3 -0.1
v 0 1.3 -0.2
v 0.1 1.3 -0.2
v 0 1.4 0
v 0.1 1.4 0
v 0 1.4 -0.1
v 0.1 1.4 -0.1

# faces
f 3/5/1 2/5/1 1/5/1
f 4/5/1 2/5/1 3/5/1
f 7/5/1 6/5/1 5/5/1
f 8/5/1 6/5/1 7/5/1
f 11/4/1 10/4/1 9/4/1
f 12/4/1 10/4/1 11/4/1
f 16/4/1 14/4/1 13/4/1
f 17/4/1 14/4/1 16/4/1
f 19/5/1 16/5/1 15/5/1
f 20/5/1 16/5/1 19/5/1
f 21/5/1 18/5/1 17/5/1
f 22/5/1 18/5/1 21/5/1
f 26/3/1 24/3/1 23/3/1
f 27/3/1 24/3/1 26/3/1
f 29/3/1 26/3/1 25/3/1
f 30/2/1 27/2/1 26/2/1
f 30/3/1 26/3/1 29/3/1
f 31/3/1 28/3/1 27/3/1
f 31/2/1 27/2/1 30/2/1
f 32/3/1 28/3/1 31/3/1
f 33/2/1 31/2/1 30/2/1
f 34/2/1 31/2/1 33/2/1
f 38/5/1 36/5/1 35/5/1
f 39/5/1 36/5/1 38/5/1
f 41/4/1 38/4/1 37/4/1
f 42/4/1 38/4/1 41/4/1
f 43/4/1 40/4/1 39/4/1
f 44/4/1 40/4/1 43/4/1
f 46/5/1 43/5/1 42/5/1
f 47/5/1 43/5/1 46/5/1
f 50/4/1 46/4/1 45/4/1
f 51/4/1 46/4/1 50/4/1
f 52/4/1 48/4/1 47/4/1
f 53/4/1 48/4/1 52/4/1
f 56/5/1 50/5/1 49/5/1
f 57/5/1 50/5/1 56/5/1
f 58/5/1 54/5/1 53/5/1
f 59/5/1 54/5/1 58/5/1
f 65/5/1 56/5/1 55/5/1
f 66/5/1 56/5/1 65/5/1
f 67/3/1 62/3/1 61/3/1
f 68/3/1 62/3/1 67/3/1
f 69/3/1 64/3/1 63/3/1
f 70/3/1 64/3/1 69/3/1
f 71/5/1 60/5/1 59/5/1
f 72/5/1 60/5/1 71/5/1
f 77/1/1 74/1/1 73/1/1
f 78/1/1 74/1/1 77/1/1
f 79/1/1 76/1/1 75/1/1
f 80/1/1 76/1/1 79/1/1
f 81/1/1 79/1/1 78/1/1
f 82/1/1 79/1/1 81/1/1
f 85/5/1 84/5/1 83/5/1
f 86/5/1 84/5/1 85/5/1
f 89/5/1 88/5/1 87/5/1
f 90/5/1 88/5/1 89/5/1
f 91/5/2 92/5/2 93/5/2
f 93/5/2 92/5/2 94/5/2
f 95/5/2 96/5/2 97/5/2
f 97/5/2 96/5/2 98/5/2
f 99/5/2 100/5/2 102/5/2
f 102/5/2 100/5/2 103/5/2
f 101/4/2 102/4/2 105/4/2
f 105/4/2 102/4/2 106/4/2
f 103/4/2 104/4/2 107/4/2
f 107/4/2 104/4/2 108/4/2
f 106/5/2 107/5/2 110/5/2
f 110/5/2 107/5/2 111/5/2
f 109/4/2 110/4/2 114/4/2
f 114/4/2 110/4/2 115/4/2
f 111/4/2 112/4/2 116/4/2
f 116/4/2 112/4/2 117/4/2
f 113/5/2 114/5/2 120/5/2
f 120/5/2 114/5/2 121/5/2
f 117/5/2 118/5/2 122/5/2
f 122/5/2 118/5/2 123/5/2
f 119/5/2 120/5/2 129/5/2
f 129/5/2 120/5/2 130/5/2
f 125/3/2 126/3/2 131/3/2
f 131/3/2 126/3/2 132/3/2
f 127/3/2 128/3/2 133/3/2
f 133/3/2 128/3/2 134/3/2
f 123/5/2 124/5/2 135/5/2
f 135/5/2 124/5/2 136/5/2
f 137/1/2 138/1/2 141/1/2
f 141/1/2 138/1/2 142/1/2
f 139/1/2 140/1/2 143/1/2
f 143/1/2 140/1/2 144/1/2
f 142/1/2 143/1/2 145/1/2
f 145/1/2 143/1/2 146/1/2
f 147/4/2 148/4/2 149/4/2
f 149/4/2 148/4/2 150/4/2
f 151/4/2 152/4/2 154/4/2
f 154/4/2 152/4/2 155/4/2
f 153/5/2 154/5/2 157/5/2
f 157/5/2 154/5/2 158/5/2
f 155/5/2 156/5/2 159/5/2
f 159/5/2 156/5/2 160/5/2
f 161/3/2 162/3/2 164/3/2
f 164/3/2 162/3/2 165/3/2
f 163/3/2 164/3/2 167/3/2
f 164/2/2 165/2/2 168/2/2
f 167/3/2 164/3/2 168/3/2
f 165/3/2 166/3/2 169/3/2
f 168/2/2 165/2/2 169/2/2
f 169/3/2 166/3/2 170/3/2
f 168/2/2 169/2/2 171/2/2
f 171/2/2 169/2/2 172/2/2
f 173/5/2 174/5/2 175/5/2
f 175/5/2 174/5/2 176/5/2
f 177/5/2 178/5/2 179/5/2
f 179/5/2 178/5/2 180/5/2
f 183/5/3 182/5/3 181/5/3
f 184/5/3 182/5/3 183/5/3
f 187/5/3 186/5/3 185/5/3
f 188/5/3 186/5/3 187/5/3
f 196/5/3 190/5/3 189/5/3
f 197/5/3 190/5/3 196/5/3
f 199/3/3 192/3/3 191/3/3
f 200/3/3 192/3/3 199/3/3
f 202/4/3 194/4/3 193/4/3
f 203/4/3 194/4/3 202/4/3
f 204/4/3 196/4/3 195/4/3
f 205/4/3 196/4/3 204/4/3
f 207/3/3 199/3/3 198/3/3
f 208/2/3 200/2/3 199/2/3
f 208/3/3 199/3/3 207/3/3
f 209/1/3 201/1/3 200/1/3
f 209/2/3 200/2/3 208/2/3
f 210/1/3 201/1/3 209/1/3
f 211/5/3 206/5/3 205/5/3
f 212/5/3 206/5/3 211/5/3
f 213/3/3 209/3/3 208/3/3
f 214/3/3 209/3/3 213/3/3
f 218/5/3 216/5/3 215/5/3
f 219/5/3 216/5/3 218/5/3
f 223/5/3 218/5/3 217/5/3
f 224/5/3 218/5/3 223/5/3
f 230/4/3 221/4/3 220/4/3
f 231/4/3 221/4/3 230/4/3
f 232/4/3 223/4/3 222/4/3
f 233/4/3 223/4/3 232/4/3
f 234/3/3 226/3/3 225/3/3
f 235/3/3 226/3/3 234/3/3
f 236/2/3 228/2/3 227/2/3
f 237/2/3 228/2/3 236/2/3
f 239/5/3 230/5/3 229/5/3
f 240/5/3 230/5/3 239/5/3
f 241/5/3 232/5/3 231/5/3
f 242/5/3 232/5/3 241/5/3
f 247/1/3 238/1/3 237/1/3
f 248/1/3 238/1/3 247/1/3
f 249/4/3 241/4/3 240/4/3
f 250/4/3 241/4/3 249/4/3
f 251/4/3 243/4/3 242/4/3
f 252/4/3 243/4/3 251/4/3
f 254/3/3 245/3/3 244/3/3
f 255/3/3 245/3/3 254/3/3
f 256/2/3 247/2/3 246/2/3
f 257/2/3 247/2/3 256/2/3
f 258/5/3 253/5/3 252/5/3
f 259/5/3 253/5/3 258/5/3
f 261/5/3 260/5/3 259/5/3
f 262/5/3 260/5/3 261/5/3
f 265/5/3 264/5/3 263/5/3
f 266/5/3 264/5/3 265/5/3
f 269/5/3 268/5/3 267/5/3
f 270/5/3 268/5/3 269/5/3
f 271/5/4 272/5/4 273/5/4
f 273/5/4 272/5/4 274/5/4
f 275/5/4 276/5/4 277/5/4
f 277/5/4 276/5/4 278/5/4
f 279/5/4 280/5/4 282/5/4
f 282/5/4 280/5/4 283/5/4
f 281/5/4 282/5/4 287/5/4
f 287/5/4 282/5/4 288/5/4
f 284/4/4 285/4/4 294/4/4
f 294/4/4 285/4/4 295/4/4
f 286/4/4 287/4/4 296/4/4
f 296/4/4 287/4/4 297/4/4
f 289/3/4 290/3/4 298/3/4
f 298/3/4 290/3/4 299/3/4
f 291/2/4 292/2/4 300/2/4
f 300/2/4 292/2/4 301/2/4
f 293/5/4 294/5/4 303/5/4
f 303/5/4 294/5/4 304/5/4
f 295/5/4 296/5/4 305/5/4
f 305/5/4 296/5/4 306/5/4
f 301/1/4 302/1/4 311/1/4
f 311/1/4 302/1/4 312/1/4
f 304/4/4 305/4/4 313/4/4
f 313/4/4 305/4/4 314/4/4
f 306/4/4 307/4/4 315/4/4
f 315/4/4 307/4/4 316/4/4
f 308/3/4 309/3/4 318/3/4
f 318/3/4 309/3/4 319/3/4
f 310/2/4 311/2/4 320/2/4
f 320/2/4 311/2/4 321/2/4
f 316/5/4 317/5/4 322/5/4
f 322/5/4 317/5/4 323/5/4
f 323/5/4 324/5/4 325/5/4
f 325/5/4 324/5/4 326/5/4
f 327/5/4 328/5/4 334/5/4
f 334/5/4 328/5/4 335/5/4
f 329/3/4 330/3/4 337/3/4
f 337/3/4 330/3/4 338/3/4
f 331/4/4 332/4/4 340/4/4
f 340/4/4 332/4/4 341/4/4
f 333/4/4 334/4/4 342/4/4
f 342/4/4 334/4/4 343/4/4
f 336/3/4 337/3/4 345/3/4
f 337/2/4 338/2/4 346/2/4
f 345/3/4 337/3/4 346/3/4
f 338/1/4 339/1/4 347/1/4
f 346/2/4 338/2/4 347/2/4
f 347/1/4 339/1/4 348/1/4
f 343/5/4 344/5/4 349/5/4
f 349/5/4 344/5/4 350/5/4
f 346/3/4 347/3/4 351/3/4
f 351/3/4 347/3/4 352/3/4
f 353/5/4 354/5/4 355/5/4
f 355/5/4 354/5/4 356/5/4
f 357/5/4 358/5/4 359/5/4
f 359/5/4 358/5/4 360/5/4
f 363/5/5 362/5/5 361/5/5
f 364/5/5 362/5/5 363/5/5
f 368/4/5 366/4/5 365/4/5
f 369/4/5 366/4/5 368/4/5
f 371/4/5 368/4/5 367/4/5
f 372/4/5 368/4/5 371/4/5
f 373/4/5 370/4/5 369/4/5
f 374/4/5 370/4/5 373/4/5
f 375/4/5 373/4/5 372/4/5
f 376/4/5 373/4/5 375/4/5
f 380/4/5 378/4/5 377/4/5
f 381/4/5 378/4/5 380/4/5
f 383/4/5 380/4/5 379/4/5
f 384/4/5 380/4/5 383/4/5
f 385/4/5 382/4/5 381/4/5
f 386/4/5 382/4/5 385/4/5
f 387/4/5 385/4/5 384/4/5
f 388/4/5 385/4/5 387/4/5
f 392/5/5 390/5/5 389/5/5
f 393/5/5 390/5/5 392/5/5
f 396/5/5 392/5/5 391/5/5
f 397/5/5 392/5/5 396/5/5
f 398/5/5 394/5/5 393/5/5
f 399/5/5 394/5/5 398/5/5
f 401/5/5 396/5/5 395/5/5
f 402/5/5 396/5/5 401/5/5
f 405/5/5 400/5/5 399/5/5
f 406/5/5 400/5/5 405/5/5
f 407/5/5 403/5/5 402/5/5
f 408/5/5 403/5/5 407/5/5
f 409/5/5 405/5/5 404/5/5
f 410/5/5 405/5/5 409/5/5
f 411/5/5 409/5/5 408/5/5
f 412/5/5 409/5/5 411/5/5
f 415/5/5 414/5/5 413/5/5
f 416/5/5 414/5/5 415/5/5
f 421/5/5 418/5/5 417/5/5
f 422/5/5 418/5/5 421/5/5
f 423/5/5 420/5/5 419/5/5
f 424/5/5 420/5/5 423/5/5
f 427/5/5 426/5/5 425/5/5
f 428/5/5 426/5/5 427/5/5
f 432/3/5 430/3/5 429/3/5
f 433/3/5 430/3/5 432/3/5
f 435/3/5 432/3/5 431/3/5
f 435/3/5 434/3/5 433/3/5
f 435/3/5 433/3/5 432/3/5
f 436/3/5 434/3/5 435/3/5
f 437/3/5 434/3/5 436/3/5
f 438/3/5 434/3/5 437/3/5
f 439/3/5 437/3/5 436/3/5
f 440/3/5 437/3/5 439/3/5
f 445/3/5 442/3/5 441/3/5
f 446/3/5 442/3/5 445/3/5
f 447/3/5 444/3/5 443/3/5
f 448/3/5 444/3/5 447/3/5
f 453/3/5 450/3/5 449/3/5
f 454/3/5 450/3/5 453/3/5
f 455/3/5 452/3/5 451/3/5
f 456/3/5 452/3/5 455/3/5
f 457/4/6 458/4/6 460/4/6
f 460/4/6 458/4/6 461/4/6
f 459/4/6 460/4/6 463/4/6
f 463/4/6 460/4/6 464/4/6
f 461/4/6 462/4/6 465/4/6
f 465/4/6 462/4/6 466/4/6
f 464/4/6 465/4/6 467/4/6
f 467/4/6 465/4/6 468/4/6
f 469/5/6 470/5/6 471/5/6
f 471/5/6 470/5/6 472/5/6
f 473/5/6 474/5/6 476/5/6
f 476/5/6 474/5/6 477/5/6
f 475/5/6 476/5/6 480/5/6
f 477/5/6 478/5/6 480/5/6
f 476/5/6 477/5/6 480/5/6
f 480/5/6 478/5/6 481/5/6
f 481/5/6 478/5/6 482/5/6
f 482/5/6 478/5/6 483/5/6
f 479/5/6 480/5/6 485/5/6
f 480/5/6 481/5/6 485/5/6
f 485/5/6 481/5/6 486/5/6
f 486/5/6 481/5/6 487/5/6
f 483/5/6 484/5/6 488/5/6
f 482/5/6 483/5/6 488/5/6
f 488/5/6 484/5/6 489/5/6
f 489/5/6 484/5/6 490/5/6
f 486/5/6 487/5/6 491/5/6
f 488/5/6 489/5/6 491/5/6
f 487/5/6 488/5/6 491/5/6
f 491/5/6 489/5/6 492/5/6
f 492/5/6 489/5/6 493/5/6
f 493/5/6 489/5/6 494/5/6
f 492/5/6 493/5/6 495/5/6
f 495/5/6 493/5/6 496/5/6
f 497/5/6 498/5/6 499/5/6
f 499/5/6 498/5/6 500/5/6
f 501/5/6 502/5/6 505/5/6
f 505/5/6 502/5/6 506/5/6
f 503/5/6 504/5/6 507/5/6
f 507/5/6 504/5/6 508/5/6
f 509/5/6 510/5/6 511/5/6
f 511/5/6 510/5/6 512/5/6
f 513/3/6 514/3/6 517/3/6
f 517/3/6 514/3/6 518/3/6
f 515/3/6 516/3/6 519/3/6
f 519/3/6 516/3/6 520/3/6
f 521/3/6 522/3/6 525/3/6
f 525/3/6 522/3/6 526/3/6
f 523/3/6 524/3/6 527/3/6
f 527/3/6 524/3/6 528/3/6
f 529/1/6 530/1/6 532/1/6
f 532/1/6 530/1/6 533/1/6
f 531/2/6 532/2/6 535/2/6
f 535/2/6 532/2/6 536/2/6
f 533/2/6 534/2/6 537/2/6
f 537/2/6 534/2/6 538/2/6
f 536/1/6 537/1/6 539/1/6
f 539/1/6 537/1/6 540/1/6
f 541/1/6 542/1/6 543/1/6
f 543/1/6 542/1/6 544/1/6
