# MagicaVoxel @ Ephtracy

# group
o 

# material
mtllib Arbol2.mtl
usemtl palette

# normals
vn -1 0 0
vn 1 0 0
vn 0 0 1
vn 0 0 -1
vn 0 -1 0
vn 0 1 0

# texcoords
vt 0.158203 0.5
vt 0.220703 0.5
vt 0.501953 0.5
vt 0.556641 0.5

# verts
v -0.4 0.9 0.1
v -0.4 0.9 0
v -0.4 1 0.1
v -0.4 1 0
v -0.3 0 0.2
v -0.3 0 0.1
v -0.3 0.1 0.2
v -0.3 0.1 0.1
v -0.3 0.9 0.2
v -0.3 0.9 0.1
v -0.3 1 0.2
v -0.3 1 0.1
v -0.2 0 0.3
v -0.2 0 0.2
v -0.2 0 0
v -0.2 0 -0.1
v -0.2 0.1 0.3
v -0.2 0.1 0.2
v -0.2 0.1 0.1
v -0.2 0.1 0
v -0.2 0.1 -0.1
v -0.2 0.2 0.2
v -0.2 0.2 0
v -0.2 0.9 0.3
v -0.2 0.9 0.2
v -0.2 0.9 0
v -0.2 0.9 -0.1
v -0.2 1 0.3
v -0.2 1 0.2
v -0.2 1 0.1
v -0.2 1 0
v -0.2 1 -0.1
v -0.2 1.1 0.2
v -0.2 1.1 0.1
v -0.2 1.1 0
v -0.1 0 0.4
v -0.1 0 0.3
v -0.1 0 0.1
v -0.1 0 0
v -0.1 0 -0.1
v -0.1 0 -0.2
v -0.1 0.1 0.4
v -0.1 0.1 0.3
v -0.1 0.1 0.2
v -0.1 0.1 0.1
v -0.1 0.1 0
v -0.1 0.1 -0.1
v -0.1 0.1 -0.2
v -0.1 0.2 0.3
v -0.1 0.2 0.2
v -0.1 0.2 0
v -0.1 0.2 -0.1
v -0.1 0.3 0.2
v -0.1 0.3 0.1
v -0.1 0.3 -0.1
v -0.1 0.3 -0.2
v -0.1 0.4 0.2
v -0.1 0.4 0.1
v -0.1 0.4 0
v -0.1 0.4 -0.1
v -0.1 0.4 -0.2
v -0.1 0.5 0.3
v -0.1 0.5 0.2
v -0.1 0.5 0.1
v -0.1 0.5 0
v -0.1 0.6 0.3
v -0.1 0.6 0.2
v -0.1 0.6 0.1
v -0.1 0.6 0
v -0.1 0.7 0.2
v -0.1 0.7 0.1
v -0.1 0.7 0
v -0.1 0.8 0.2
v -0.1 0.8 0.1
v -0.1 0.8 0
v -0.1 0.9 0.1
v -0.1 0.9 0
v -0.1 1 0
v -0.1 1 -0.1
v -0.1 1.1 0.1
v -0.1 1.1 0
v -0.1 1.1 -0.1
v -0.1 1.2 0.1
v -0.1 1.2 0
v 0 0.4 0
v 0 0.4 -0.1
v 0 0.5 0
v 0 0.5 -0.1
v 0 0.6 0
v 0 0.6 -0.1
v 0.1 0.9 0
v 0.1 0.9 -0.1
v 0.1 1 0
v 0.1 1 -0.1
v 0.3 0.9 0.1
v 0.3 0.9 0
v 0.3 1 0.1
v 0.3 1 0
v -0.1 0.9 0.3
v -0.1 0.9 0.2
v -0.1 0.9 0
v -0.1 0.9 -0.1
v -0.1 1 0.3
v -0.1 1 0.2
v -0.1 1 0.1
v -0.1 1 0
v -0.1 1 -0.1
v -0.1 1.1 0.2
v -0.1 1.1 0.1
v 0 0.2 0.2
v 0 0.2 0.1
v 0 0.3 0.2
v 0 0.3 0.1
v 0 0.3 0
v 0 0.3 -0.1
v 0 0.3 -0.2
v 0 0.4 0.2
v 0 0.4 0.1
v 0 0.4 0
v 0 0.4 -0.1
v 0 0.4 -0.2
v 0 0.5 0.3
v 0 0.5 0.2
v 0 0.5 0.1
v 0 0.6 0.3
v 0 0.6 0.2
v 0 0.6 0.1
v 0 0.6 0
v 0 0.7 0.2
v 0 0.7 0.1
v 0 0.7 0
v 0 0.8 0.2
v 0 0.8 0.1
v 0 0.8 0
v 0 0.9 0.1
v 0 0.9 0
v 0 1.1 0.1
v 0 1.1 0
v 0 1.2 0.1
v 0 1.2 0
v 0.1 0 0.4
v 0.1 0 0.3
v 0.1 0 0.1
v 0.1 0 0
v 0.1 0 -0.1
v 0.1 0 -0.2
v 0.1 0.1 0.4
v 0.1 0.1 0.3
v 0.1 0.1 0.2
v 0.1 0.1 0.1
v 0.1 0.1 0
v 0.1 0.1 -0.1
v 0.1 0.1 -0.2
v 0.1 0.2 0.3
v 0.1 0.2 0.2
v 0.1 0.2 0.1
v 0.1 0.2 0
v 0.1 0.2 -0.1
v 0.1 0.3 0.1
v 0.1 0.3 0
v 0.1 0.4 0.1
v 0.1 0.4 0
v 0.1 0.5 0.2
v 0.1 0.5 0.1
v 0.1 0.5 0
v 0.1 0.5 -0.1
v 0.1 0.6 0.2
v 0.1 0.6 0.1
v 0.1 0.6 0
v 0.1 0.6 -0.1
v 0.1 0.9 0.1
v 0.1 0.9 0
v 0.1 1 0.1
v 0.1 1 0
v 0.1 1 -0.1
v 0.1 1.1 0
v 0.1 1.1 -0.1
v 0.2 0 0.3
v 0.2 0 0.2
v 0.2 0 0
v 0.2 0 -0.1
v 0.2 0.1 0.3
v 0.2 0.1 0.2
v 0.2 0.1 0.1
v 0.2 0.1 0
v 0.2 0.1 -0.1
v 0.2 0.2 0.2
v 0.2 0.2 0
v 0.2 0.9 0
v 0.2 0.9 -0.1
v 0.2 1 0.1
v 0.2 1 0
v 0.2 1 -0.1
v 0.2 1.1 0.1
v 0.2 1.1 0
v 0.3 0 0.2
v 0.3 0 0.1
v 0.3 0.1 0.2
v 0.3 0.1 0.1
v 0.3 0.9 0.2
v 0.3 0.9 0.1
v 0.3 1 0.2
v 0.3 1 0.1
v 0.4 0.9 0.1
v 0.4 0.9 0
v 0.4 1 0.1
v 0.4 1 0
v -0.1 0 0.4
v -0.1 0.1 0.4
v 0.1 0 0.4
v 0.1 0.1 0.4
v -0.2 0 0.3
v -0.2 0.1 0.3
v -0.2 0.9 0.3
v -0.2 1 0.3
v -0.1 0 0.3
v -0.1 0.1 0.3
v -0.1 0.2 0.3
v -0.1 0.5 0.3
v -0.1 0.6 0.3
v -0.1 0.9 0.3
v -0.1 1 0.3
v 0 0.5 0.3
v 0 0.6 0.3
v 0.1 0 0.3
v 0.1 0.1 0.3
v 0.1 0.2 0.3
v 0.2 0 0.3
v 0.2 0.1 0.3
v -0.3 0 0.2
v -0.3 0.1 0.2
v -0.3 0.9 0.2
v -0.3 1 0.2
v -0.2 0 0.2
v -0.2 0.1 0.2
v -0.2 0.2 0.2
v -0.2 0.9 0.2
v -0.2 1 0.2
v -0.2 1.1 0.2
v -0.1 0.1 0.2
v -0.1 0.2 0.2
v -0.1 0.3 0.2
v -0.1 0.4 0.2
v -0.1 0.5 0.2
v -0.1 0.7 0.2
v -0.1 0.8 0.2
v -0.1 0.9 0.2
v -0.1 1 0.2
v -0.1 1.1 0.2
v 0 0.2 0.2
v 0 0.3 0.2
v 0 0.4 0.2
v 0 0.5 0.2
v 0 0.6 0.2
v 0 0.7 0.2
v 0 0.8 0.2
v 0.1 0.1 0.2
v 0.1 0.2 0.2
v 0.1 0.5 0.2
v 0.1 0.6 0.2
v 0.2 0 0.2
v 0.2 0.1 0.2
v 0.2 0.2 0.2
v 0.2 0.9 0.2
v 0.2 1 0.2
v 0.3 0 0.2
v 0.3 0.1 0.2
v 0.3 0.9 0.2
v 0.3 1 0.2
v -0.4 0.9 0.1
v -0.4 1 0.1
v -0.3 0.9 0.1
v -0.3 1 0.1
v -0.1 0.3 0.1
v -0.1 0.4 0.1
v -0.1 0.6 0.1
v -0.1 0.7 0.1
v -0.1 0.8 0.1
v -0.1 0.9 0.1
v -0.1 1 0.1
v -0.1 1.1 0.1
v -0.1 1.2 0.1
v 0 0.2 0.1
v 0 0.3 0.1
v 0 0.4 0.1
v 0 0.5 0.1
v 0 0.6 0.1
v 0 0.7 0.1
v 0 0.8 0.1
v 0 0.9 0.1
v 0 1.1 0.1
v 0 1.2 0.1
v 0.1 0.2 0.1
v 0.1 0.3 0.1
v 0.1 0.4 0.1
v 0.1 0.5 0.1
v 0.2 1 0.1
v 0.2 1.1 0.1
v 0.3 0.9 0.1
v 0.3 1 0.1
v 0.4 0.9 0.1
v 0.4 1 0.1
v -0.2 0 0
v -0.2 0.1 0
v -0.1 0 0
v -0.1 0.1 0
v 0 0.3 0
v 0 0.4 0
v 0.1 0 0
v 0.1 0.1 0
v 0.1 0.3 0
v 0.1 0.4 0
v 0.1 0.9 0
v 0.1 1 0
v 0.2 0 0
v 0.2 0.1 0
v 0.2 0.9 0
v 0.2 1 0
v -0.3 0 0.1
v -0.3 0.1 0.1
v -0.2 0.1 0.1
v -0.1 0 0.1
v -0.1 0.1 0.1
v -0.1 0.7 0.1
v -0.1 0.8 0.1
v 0 0.7 0.1
v 0 0.8 0.1
v 0.1 0 0.1
v 0.1 0.1 0.1
v 0.1 0.9 0.1
v 0.1 1 0.1
v 0.2 0.1 0.1
v 0.2 0.9 0.1
v 0.2 1 0.1
v 0.3 0 0.1
v 0.3 0.1 0.1
v 0.3 0.9 0.1
v 0.3 1 0.1
v -0.4 0.9 0
v -0.4 1 0
v -0.3 0.9 0
v -0.3 1 0
v -0.2 0.1 0
v -0.2 0.2 0
v -0.2 0.9 0
v -0.2 1 0
v -0.2 1.1 0
v -0.1 0.1 0
v -0.1 0.2 0
v -0.1 0.4 0
v -0.1 0.5 0
v -0.1 0.6 0
v -0.1 0.7 0
v -0.1 0.8 0
v -0.1 0.9 0
v -0.1 1 0
v -0.1 1.1 0
v -0.1 1.2 0
v 0 0.4 0
v 0 0.5 0
v 0 0.6 0
v 0 0.7 0
v 0 0.8 0
v 0 0.9 0
v 0 1.1 0
v 0 1.2 0
v 0.1 0.1 0
v 0.1 0.2 0
v 0.1 0.9 0
v 0.1 1 0
v 0.1 1.1 0
v 0.2 0.1 0
v 0.2 0.2 0
v 0.2 1 0
v 0.2 1.1 0
v 0.3 0.9 0
v 0.3 1 0
v 0.4 0.9 0
v 0.4 1 0
v -0.2 0 -0.1
v -0.2 0.1 -0.1
v -0.2 0.9 -0.1
v -0.2 1 -0.1
v -0.1 0 -0.1
v -0.1 0.1 -0.1
v -0.1 0.2 -0.1
v -0.1 0.3 -0.1
v -0.1 0.9 -0.1
v -0.1 1 -0.1
v -0.1 1.1 -0.1
v 0 0.3 -0.1
v 0 0.4 -0.1
v 0 0.5 -0.1
v 0 0.6 -0.1
v 0.1 0 -0.1
v 0.1 0.1 -0.1
v 0.1 0.2 -0.1
v 0.1 0.5 -0.1
v 0.1 0.6 -0.1
v 0.1 0.9 -0.1
v 0.1 1 -0.1
v 0.1 1.1 -0.1
v 0.2 0 -0.1
v 0.2 0.1 -0.1
v 0.2 0.9 -0.1
v 0.2 1 -0.1
v -0.1 0 -0.2
v -0.1 0.1 -0.2
v -0.1 0.3 -0.2
v -0.1 0.4 -0.2
v 0 0.3 -0.2
v 0 0.4 -0.2
v 0.1 0 -0.2
v 0.1 0.1 -0.2
v -0.1 0 0.4
v 0.1 0 0.4
v -0.2 0 0.3
v -0.1 0 0.3
v 0.1 0 0.3
v 0.2 0 0.3
v -0.3 0 0.2
v -0.2 0 0.2
v 0.2 0 0.2
v 0.3 0 0.2
v -0.3 0 0.1
v -0.1 0 0.1
v 0.1 0 0.1
v 0.3 0 0.1
v -0.2 0 0
v -0.1 0 0
v 0.1 0 0
v 0.2 0 0
v -0.2 0 -0.1
v -0.1 0 -0.1
v 0.1 0 -0.1
v 0.2 0 -0.1
v -0.1 0 -0.2
v 0.1 0 -0.2
v -0.2 0.1 0.1
v -0.1 0.1 0.1
v 0.1 0.1 0.1
v 0.2 0.1 0.1
v -0.2 0.1 0
v -0.1 0.1 0
v 0.1 0.1 0
v 0.2 0.1 0
v -0.1 0.3 -0.1
v 0 0.3 -0.1
v -0.1 0.3 -0.2
v 0 0.3 -0.2
v -0.1 0.4 0.2
v 0 0.4 0.2
v -0.1 0.4 0.1
v 0 0.4 0.1
v 0.1 0.4 0.1
v 0 0.4 0
v 0.1 0.4 0
v -0.1 0.5 0.3
v 0 0.5 0.3
v -0.1 0.5 0.2
v 0 0.5 0.2
v 0.1 0.5 0.2
v 0 0.5 0.1
v 0.1 0.5 0.1
v -0.1 0.7 0.2
v 0 0.7 0.2
v -0.1 0.7 0.1
v 0 0.7 0.1
v -0.1 0.8 0.1
v 0 0.8 0.1
v -0.1 0.8 0
v 0 0.8 0
v -0.2 0.9 0.3
v -0.1 0.9 0.3
v -0.3 0.9 0.2
v -0.2 0.9 0.2
v -0.1 0.9 0.2
v 0.2 0.9 0.2
v 0.3 0.9 0.2
v -0.4 0.9 0.1
v -0.3 0.9 0.1
v -0.2 0.9 0.1
v -0.1 0.9 0.1
v 0 0.9 0.1
v 0.1 0.9 0.1
v 0.2 0.9 0.1
v 0.3 0.9 0.1
v 0.4 0.9 0.1
v -0.4 0.9 0
v -0.3 0.9 0
v -0.2 0.9 0
v -0.1 0.9 0
v 0 0.9 0
v 0.1 0.9 0
v 0.2 0.9 0
v 0.3 0.9 0
v 0.4 0.9 0
v -0.2 0.9 -0.1
v -0.1 0.9 -0.1
v 0.1 0.9 -0.1
v 0.2 0.9 -0.1
v 0.1 1 0.1
v 0.2 1 0.1
v -0.1 1 0
v 0.1 1 0
v 0.2 1 0
v -0.1 1 -0.1
v 0.1 1 -0.1
v -0.1 0.1 0.4
v 0.1 0.1 0.4
v -0.2 0.1 0.3
v -0.1 0.1 0.3
v 0.1 0.1 0.3
v 0.2 0.1 0.3
v -0.3 0.1 0.2
v -0.2 0.1 0.2
v -0.1 0.1 0.2
v 0.1 0.1 0.2
v 0.2 0.1 0.2
v 0.3 0.1 0.2
v -0.3 0.1 0.1
v -0.2 0.1 0.1
v 0.2 0.1 0.1
v 0.3 0.1 0.1
v -0.2 0.1 0
v -0.1 0.1 0
v 0.1 0.1 0
v 0.2 0.1 0
v -0.2 0.1 -0.1
v -0.1 0.1 -0.1
v 0.1 0.1 -0.1
v 0.2 0.1 -0.1
v -0.1 0.1 -0.2
v 0.1 0.1 -0.2
v -0.1 0.2 0.3
v 0.1 0.2 0.3
v -0.2 0.2 0.2
v -0.1 0.2 0.2
v 0 0.2 0.2
v 0.1 0.2 0.2
v 0.2 0.2 0.2
v 0 0.2 0.1
v 0.1 0.2 0.1
v -0.2 0.2 0
v -0.1 0.2 0
v 0.1 0.2 0
v 0.2 0.2 0
v -0.1 0.3 0.2
v 0 0.3 0.2
v -0.1 0.3 0.1
v 0 0.3 0.1
v 0.1 0.3 0.1
v 0 0.3 0
v 0.1 0.3 0
v -0.1 0.4 0
v 0 0.4 0
v -0.1 0.4 -0.1
v 0 0.4 -0.1
v -0.1 0.4 -0.2
v 0 0.4 -0.2
v -0.1 0.6 0.3
v 0 0.6 0.3
v -0.1 0.6 0.2
v 0 0.6 0.2
v 0.1 0.6 0.2
v -0.1 0.6 0.1
v 0 0.6 0.1
v 0.1 0.6 0.1
v 0 0.6 0
v 0.1 0.6 0
v 0 0.6 -0.1
v 0.1 0.6 -0.1
v -0.1 0.7 0.1
v 0 0.7 0.1
v -0.1 0.7 0
v 0 0.7 0
v -0.1 0.8 0.2
v 0 0.8 0.2
v -0.1 0.8 0.1
v 0 0.8 0.1
v -0.2 1 0.3
v -0.1 1 0.3
v -0.3 1 0.2
v -0.2 1 0.2
v -0.1 1 0.2
v 0.2 1 0.2
v 0.3 1 0.2
v -0.4 1 0.1
v -0.3 1 0.1
v -0.2 1 0.1
v -0.1 1 0.1
v 0.2 1 0.1
v 0.3 1 0.1
v 0.4 1 0.1
v -0.4 1 0
v -0.3 1 0
v -0.2 1 0
v -0.1 1 0
v 0.1 1 0
v 0.2 1 0
v 0.3 1 0
v 0.4 1 0
v -0.2 1 -0.1
v -0.1 1 -0.1
v 0.1 1 -0.1
v 0.2 1 -0.1
v -0.2 1.1 0.2
v -0.1 1.1 0.2
v -0.2 1.1 0.1
v -0.1 1.1 0.1
v 0 1.1 0.1
v 0.2 1.1 0.1
v -0.2 1.1 0
v -0.1 1.1 0
v 0 1.1 0
v 0.1 1.1 0
v 0.2 1.1 0
v -0.1 1.1 -0.1
v 0.1 1.1 -0.1
v -0.1 1.2 0.1
v 0 1.2 0.1
v -0.1 1.2 0
v 0 1.2 0

# faces
f 3/3/1 2/3/1 1/3/1
f 4/3/1 2/3/1 3/3/1
f 7/2/1 6/2/1 5/2/1
f 8/2/1 6/2/1 7/2/1
f 11/3/1 10/3/1 9/3/1
f 12/3/1 10/3/1 11/3/1
f 17/2/1 14/2/1 13/2/1
f 18/2/1 14/2/1 17/2/1
f 20/2/1 16/2/1 15/2/1
f 21/2/1 16/2/1 20/2/1
f 22/2/1 19/2/1 18/2/1
f 22/2/1 20/2/1 19/2/1
f 23/2/1 20/2/1 22/2/1
f 28/3/1 25/3/1 24/3/1
f 29/3/1 25/3/1 28/3/1
f 31/4/1 27/4/1 26/4/1
f 32/4/1 27/4/1 31/4/1
f 33/4/1 30/4/1 29/4/1
f 34/3/1 31/3/1 30/3/1
f 34/4/1 30/4/1 33/4/1
f 35/3/1 31/3/1 34/3/1
f 42/2/1 37/2/1 36/2/1
f 43/2/1 37/2/1 42/2/1
f 45/2/1 39/2/1 38/2/1
f 46/2/1 39/2/1 45/2/1
f 47/2/1 41/2/1 40/2/1
f 48/2/1 41/2/1 47/2/1
f 49/1/1 44/1/1 43/1/1
f 50/1/1 44/1/1 49/1/1
f 51/2/1 47/2/1 46/2/1
f 52/2/1 47/2/1 51/2/1
f 53/2/1 51/2/1 50/2/1
f 54/2/1 51/2/1 53/2/1
f 55/1/1 52/1/1 51/1/1
f 58/2/1 51/2/1 54/2/1
f 59/1/1 55/1/1 51/1/1
f 59/2/1 51/2/1 58/2/1
f 60/2/1 56/2/1 55/2/1
f 60/1/1 55/1/1 59/1/1
f 61/2/1 56/2/1 60/2/1
f 63/2/1 58/2/1 57/2/1
f 63/2/1 59/2/1 58/2/1
f 64/2/1 59/2/1 63/2/1
f 65/2/1 59/2/1 64/2/1
f 66/3/1 63/3/1 62/3/1
f 67/4/1 64/4/1 63/4/1
f 67/3/1 63/3/1 66/3/1
f 68/1/1 65/1/1 64/1/1
f 68/4/1 64/4/1 67/4/1
f 69/1/1 65/1/1 68/1/1
f 71/2/1 69/2/1 68/2/1
f 72/2/1 69/2/1 71/2/1
f 73/2/1 71/2/1 70/2/1
f 74/2/1 71/2/1 73/2/1
f 76/2/1 75/2/1 74/2/1
f 77/2/1 75/2/1 76/2/1
f 81/4/1 79/4/1 78/4/1
f 82/4/1 79/4/1 81/4/1
f 83/3/1 81/3/1 80/3/1
f 84/3/1 81/3/1 83/3/1
f 87/1/1 86/1/1 85/1/1
f 88/1/1 86/1/1 87/1/1
f 89/2/1 88/2/1 87/2/1
f 90/2/1 88/2/1 89/2/1
f 93/4/1 92/4/1 91/4/1
f 94/4/1 92/4/1 93/4/1
f 97/3/1 96/3/1 95/3/1
f 98/3/1 96/3/1 97/3/1
f 99/3/2 100/3/2 103/3/2
f 103/3/2 100/3/2 104/3/2
f 101/4/2 102/4/2 106/4/2
f 106/4/2 102/4/2 107/4/2
f 104/4/2 105/4/2 108/4/2
f 108/4/2 105/4/2 109/4/2
f 110/2/2 111/2/2 112/2/2
f 112/2/2 111/2/2 113/2/2
f 113/2/2 114/2/2 118/2/2
f 118/2/2 114/2/2 119/2/2
f 115/2/2 116/2/2 120/2/2
f 120/2/2 116/2/2 121/2/2
f 117/2/2 118/2/2 123/2/2
f 123/2/2 118/2/2 124/2/2
f 122/3/2 123/3/2 125/3/2
f 125/3/2 123/3/2 126/3/2
f 127/2/2 128/2/2 130/2/2
f 130/2/2 128/2/2 131/2/2
f 129/2/2 130/2/2 132/2/2
f 132/2/2 130/2/2 133/2/2
f 133/2/2 134/2/2 135/2/2
f 135/2/2 134/2/2 136/2/2
f 137/3/2 138/3/2 139/3/2
f 139/3/2 138/3/2 140/3/2
f 141/2/2 142/2/2 147/2/2
f 147/2/2 142/2/2 148/2/2
f 143/2/2 144/2/2 150/2/2
f 150/2/2 144/2/2 151/2/2
f 145/2/2 146/2/2 152/2/2
f 152/2/2 146/2/2 153/2/2
f 148/1/2 149/1/2 154/1/2
f 154/1/2 149/1/2 155/1/2
f 151/2/2 152/2/2 157/2/2
f 157/2/2 152/2/2 158/2/2
f 156/2/2 157/2/2 159/2/2
f 157/1/2 158/1/2 160/1/2
f 159/2/2 157/2/2 160/2/2
f 160/1/2 158/1/2 162/1/2
f 161/2/2 162/2/2 164/2/2
f 162/1/2 158/1/2 165/1/2
f 164/2/2 162/2/2 165/2/2
f 165/1/2 158/1/2 166/1/2
f 163/4/2 164/4/2 167/4/2
f 164/1/2 165/1/2 168/1/2
f 167/4/2 164/4/2 168/4/2
f 165/2/2 166/2/2 169/2/2
f 168/1/2 165/1/2 169/1/2
f 169/2/2 166/2/2 170/2/2
f 171/1/2 172/1/2 173/1/2
f 173/1/2 172/1/2 174/1/2
f 174/4/2 175/4/2 176/4/2
f 176/4/2 175/4/2 177/4/2
f 178/2/2 179/2/2 182/2/2
f 182/2/2 179/2/2 183/2/2
f 180/2/2 181/2/2 185/2/2
f 185/2/2 181/2/2 186/2/2
f 183/2/2 184/2/2 187/2/2
f 184/2/2 185/2/2 187/2/2
f 187/2/2 185/2/2 188/2/2
f 189/4/2 190/4/2 192/4/2
f 192/4/2 190/4/2 193/4/2
f 191/3/2 192/3/2 194/3/2
f 194/3/2 192/3/2 195/3/2
f 196/2/2 197/2/2 198/2/2
f 198/2/2 197/2/2 199/2/2
f 200/3/2 201/3/2 202/3/2
f 202/3/2 201/3/2 203/3/2
f 204/3/2 205/3/2 206/3/2
f 206/3/2 205/3/2 207/3/2
f 210/2/3 209/2/3 208/2/3
f 211/2/3 209/2/3 210/2/3
f 216/2/3 213/2/3 212/2/3
f 217/2/3 213/2/3 216/2/3
f 221/3/3 215/3/3 214/3/3
f 222/3/3 215/3/3 221/3/3
f 223/3/3 220/3/3 219/3/3
f 224/3/3 220/3/3 223/3/3
f 226/1/3 218/1/3 217/1/3
f 227/1/3 218/1/3 226/1/3
f 228/2/3 226/2/3 225/2/3
f 229/2/3 226/2/3 228/2/3
f 234/2/3 231/2/3 230/2/3
f 235/2/3 231/2/3 234/2/3
f 237/3/3 233/3/3 232/3/3
f 238/3/3 233/3/3 237/3/3
f 240/2/3 236/2/3 235/2/3
f 241/2/3 236/2/3 240/2/3
f 248/4/3 239/4/3 238/4/3
f 249/4/3 239/4/3 248/4/3
f 250/2/3 242/2/3 241/2/3
f 251/2/3 242/2/3 250/2/3
f 252/2/3 244/2/3 243/2/3
f 253/2/3 244/2/3 252/2/3
f 255/2/3 246/2/3 245/2/3
f 256/2/3 246/2/3 255/2/3
f 259/4/3 254/4/3 253/4/3
f 260/4/3 254/4/3 259/4/3
f 262/2/3 258/2/3 257/2/3
f 263/2/3 258/2/3 262/2/3
f 264/4/3 248/4/3 247/4/3
f 265/4/3 248/4/3 264/4/3
f 266/2/3 262/2/3 261/2/3
f 267/2/3 262/2/3 266/2/3
f 268/3/3 265/3/3 264/3/3
f 269/3/3 265/3/3 268/3/3
f 272/3/3 271/3/3 270/3/3
f 273/3/3 271/3/3 272/3/3
f 284/2/3 275/2/3 274/2/3
f 285/2/3 275/2/3 284/2/3
f 287/2/3 277/2/3 276/2/3
f 288/2/3 277/2/3 287/2/3
f 289/2/3 279/2/3 278/2/3
f 290/2/3 279/2/3 289/2/3
f 291/3/3 282/3/3 281/3/3
f 291/3/3 281/3/3 280/3/3
f 292/3/3 282/3/3 291/3/3
f 293/2/3 284/2/3 283/2/3
f 294/2/3 284/2/3 293/2/3
f 295/2/3 286/2/3 285/2/3
f 296/2/3 286/2/3 295/2/3
f 297/3/3 291/3/3 280/3/3
f 298/3/3 291/3/3 297/3/3
f 301/3/3 300/3/3 299/3/3
f 302/3/3 300/3/3 301/3/3
f 305/2/3 304/2/3 303/2/3
f 306/2/3 304/2/3 305/2/3
f 311/1/3 308/1/3 307/1/3
f 312/1/3 308/1/3 311/1/3
f 315/2/3 310/2/3 309/2/3
f 316/2/3 310/2/3 315/2/3
f 317/4/3 314/4/3 313/4/3
f 318/4/3 314/4/3 317/4/3
f 319/2/4 320/2/4 321/2/4
f 319/2/4 321/2/4 322/2/4
f 322/2/4 321/2/4 323/2/4
f 324/2/4 325/2/4 326/2/4
f 326/2/4 325/2/4 327/2/4
f 328/2/4 329/2/4 332/2/4
f 330/4/4 331/4/4 333/4/4
f 333/4/4 331/4/4 334/4/4
f 328/2/4 332/2/4 335/2/4
f 335/2/4 332/2/4 336/2/4
f 333/3/4 334/3/4 337/3/4
f 337/3/4 334/3/4 338/3/4
f 339/3/4 340/3/4 341/3/4
f 341/3/4 340/3/4 342/3/4
f 341/4/4 342/4/4 345/4/4
f 345/4/4 342/4/4 346/4/4
f 343/2/4 344/2/4 348/2/4
f 348/2/4 344/2/4 349/2/4
f 346/3/4 347/3/4 356/3/4
f 356/3/4 347/3/4 357/3/4
f 350/2/4 351/2/4 359/2/4
f 351/1/4 352/1/4 360/1/4
f 359/2/4 351/2/4 360/2/4
f 352/2/4 353/2/4 361/2/4
f 360/1/4 352/1/4 361/1/4
f 361/2/4 353/2/4 362/2/4
f 354/2/4 355/2/4 363/2/4
f 355/1/4 356/1/4 364/1/4
f 363/2/4 355/2/4 364/2/4
f 357/3/4 358/3/4 365/3/4
f 365/3/4 358/3/4 366/3/4
f 364/1/4 356/1/4 369/1/4
f 369/1/4 356/1/4 370/1/4
f 367/2/4 368/2/4 372/2/4
f 372/2/4 368/2/4 373/2/4
f 370/3/4 371/3/4 374/3/4
f 374/3/4 371/3/4 375/3/4
f 376/3/4 377/3/4 378/3/4
f 378/3/4 377/3/4 379/3/4
f 380/2/4 381/2/4 384/2/4
f 384/2/4 381/2/4 385/2/4
f 382/4/4 383/4/4 388/4/4
f 388/4/4 383/4/4 389/4/4
f 386/1/4 387/1/4 391/1/4
f 385/2/4 386/2/4 396/2/4
f 386/1/4 391/1/4 397/1/4
f 391/1/4 392/1/4 397/1/4
f 396/2/4 386/2/4 397/2/4
f 392/1/4 393/1/4 397/1/4
f 393/2/4 394/2/4 398/2/4
f 397/1/4 393/1/4 398/1/4
f 398/2/4 394/2/4 399/2/4
f 389/4/4 390/4/4 401/4/4
f 401/4/4 390/4/4 402/4/4
f 395/2/4 396/2/4 403/2/4
f 403/2/4 396/2/4 404/2/4
f 400/4/4 401/4/4 405/4/4
f 405/4/4 401/4/4 406/4/4
f 409/2/4 410/2/4 411/2/4
f 411/2/4 410/2/4 412/2/4
f 407/2/4 408/2/4 413/2/4
f 413/2/4 408/2/4 414/2/4
f 418/2/5 416/2/5 415/2/5
f 419/2/5 416/2/5 418/2/5
f 422/2/5 418/2/5 417/2/5
f 422/2/5 420/2/5 419/2/5
f 422/2/5 419/2/5 418/2/5
f 423/2/5 420/2/5 422/2/5
f 425/2/5 422/2/5 421/2/5
f 425/2/5 424/2/5 423/2/5
f 425/2/5 423/2/5 422/2/5
f 426/2/5 424/2/5 425/2/5
f 427/2/5 424/2/5 426/2/5
f 428/2/5 424/2/5 427/2/5
f 430/2/5 427/2/5 426/2/5
f 431/2/5 427/2/5 430/2/5
f 433/2/5 430/2/5 429/2/5
f 433/2/5 432/2/5 431/2/5
f 433/2/5 431/2/5 430/2/5
f 434/2/5 432/2/5 433/2/5
f 435/2/5 432/2/5 434/2/5
f 436/2/5 432/2/5 435/2/5
f 437/2/5 435/2/5 434/2/5
f 438/2/5 435/2/5 437/2/5
f 443/2/5 440/2/5 439/2/5
f 444/2/5 440/2/5 443/2/5
f 445/2/5 442/2/5 441/2/5
f 446/2/5 442/2/5 445/2/5
f 449/2/5 448/2/5 447/2/5
f 450/2/5 448/2/5 449/2/5
f 453/2/5 452/2/5 451/2/5
f 454/2/5 452/2/5 453/2/5
f 456/2/5 455/2/5 454/2/5
f 457/2/5 455/2/5 456/2/5
f 460/3/5 459/3/5 458/3/5
f 461/3/5 459/3/5 460/3/5
f 463/4/5 462/4/5 461/4/5
f 464/4/5 462/4/5 463/4/5
f 467/2/5 466/2/5 465/2/5
f 468/2/5 466/2/5 467/2/5
f 471/2/5 470/2/5 469/2/5
f 472/2/5 470/2/5 471/2/5
f 476/3/5 474/3/5 473/3/5
f 477/3/5 474/3/5 476/3/5
f 481/3/5 476/3/5 475/3/5
f 482/4/5 477/4/5 476/4/5
f 482/4/5 478/4/5 477/4/5
f 482/3/5 476/3/5 481/3/5
f 483/4/5 478/4/5 482/4/5
f 484/4/5 478/4/5 483/4/5
f 485/4/5 478/4/5 484/4/5
f 486/3/5 479/3/5 478/3/5
f 486/4/5 478/4/5 485/4/5
f 487/3/5 479/3/5 486/3/5
f 489/3/5 481/3/5 480/3/5
f 490/4/5 482/4/5 481/4/5
f 490/3/5 481/3/5 489/3/5
f 490/4/5 483/4/5 482/4/5
f 491/4/5 483/4/5 490/4/5
f 492/4/5 483/4/5 491/4/5
f 493/1/5 485/1/5 484/1/5
f 494/1/5 485/1/5 493/1/5
f 496/3/5 488/3/5 487/3/5
f 497/3/5 488/3/5 496/3/5
f 498/4/5 492/4/5 491/4/5
f 499/4/5 492/4/5 498/4/5
f 500/4/5 495/4/5 494/4/5
f 501/4/5 495/4/5 500/4/5
f 505/3/5 503/3/5 502/3/5
f 506/3/5 503/3/5 505/3/5
f 507/4/5 505/4/5 504/4/5
f 508/4/5 505/4/5 507/4/5
f 509/2/6 510/2/6 512/2/6
f 512/2/6 510/2/6 513/2/6
f 511/2/6 512/2/6 516/2/6
f 516/2/6 512/2/6 517/2/6
f 513/2/6 514/2/6 518/2/6
f 518/2/6 514/2/6 519/2/6
f 515/2/6 516/2/6 521/2/6
f 521/2/6 516/2/6 522/2/6
f 519/2/6 520/2/6 523/2/6
f 523/2/6 520/2/6 524/2/6
f 525/2/6 526/2/6 529/2/6
f 529/2/6 526/2/6 530/2/6
f 527/2/6 528/2/6 531/2/6
f 531/2/6 528/2/6 532/2/6
f 530/2/6 531/2/6 533/2/6
f 533/2/6 531/2/6 534/2/6
f 535/1/6 536/1/6 538/1/6
f 538/1/6 536/1/6 539/1/6
f 539/1/6 536/1/6 540/1/6
f 540/2/6 541/2/6 542/2/6
f 539/2/6 540/2/6 542/2/6
f 542/2/6 541/2/6 543/2/6
f 537/2/6 538/2/6 544/2/6
f 544/2/6 538/2/6 545/2/6
f 543/2/6 541/2/6 546/2/6
f 546/2/6 541/2/6 547/2/6
f 548/2/6 549/2/6 550/2/6
f 550/2/6 549/2/6 551/2/6
f 551/2/6 552/2/6 553/2/6
f 553/2/6 552/2/6 554/2/6
f 555/1/6 556/1/6 557/1/6
f 557/1/6 556/1/6 558/1/6
f 557/2/6 558/2/6 559/2/6
f 559/2/6 558/2/6 560/2/6
f 561/3/6 562/3/6 563/3/6
f 563/3/6 562/3/6 564/3/6
f 563/4/6 564/4/6 566/4/6
f 564/4/6 565/4/6 566/4/6
f 566/4/6 565/4/6 567/4/6
f 567/4/6 565/4/6 568/4/6
f 567/1/6 568/1/6 569/1/6
f 569/1/6 568/1/6 570/1/6
f 569/2/6 570/2/6 571/2/6
f 571/2/6 570/2/6 572/2/6
f 573/2/6 574/2/6 575/2/6
f 575/2/6 574/2/6 576/2/6
f 577/2/6 578/2/6 579/2/6
f 579/2/6 578/2/6 580/2/6
f 581/3/6 582/3/6 584/3/6
f 584/3/6 582/3/6 585/3/6
f 583/3/6 584/3/6 589/3/6
f 589/3/6 584/3/6 590/3/6
f 585/4/6 586/4/6 591/4/6
f 586/3/6 587/3/6 592/3/6
f 591/4/6 586/4/6 592/4/6
f 592/3/6 587/3/6 593/3/6
f 588/3/6 589/3/6 595/3/6
f 589/4/6 590/4/6 596/4/6
f 595/3/6 589/3/6 596/3/6
f 596/4/6 590/4/6 597/4/6
f 593/3/6 594/3/6 601/3/6
f 601/3/6 594/3/6 602/3/6
f 597/4/6 598/4/6 603/4/6
f 603/4/6 598/4/6 604/4/6
f 599/4/6 600/4/6 605/4/6
f 605/4/6 600/4/6 606/4/6
f 607/4/6 608/4/6 609/4/6
f 609/4/6 608/4/6 610/4/6
f 609/3/6 610/3/6 613/3/6
f 613/3/6 610/3/6 614/3/6
f 611/3/6 612/3/6 615/3/6
f 615/3/6 612/3/6 616/3/6
f 616/3/6 612/3/6 617/3/6
f 614/4/6 615/4/6 618/4/6
f 615/4/6 616/4/6 618/4/6
f 618/4/6 616/4/6 619/4/6
f 620/3/6 621/3/6 622/3/6
f 622/3/6 621/3/6 623/3/6
