# MagicaVoxel @ Ephtracy

# group
o 

# material
mtllib Fogata.mtl
usemtl palette

# normals
vn -1 0 0
vn 1 0 0
vn 0 0 1
vn 0 0 -1
vn 0 -1 0
vn 0 1 0

# texcoords
vt 0.146484 0.5
vt 0.208984 0.5
vt 0.220703 0.5
vt 0.255859 0.5
vt 0.373047 0.5
vt 0.931641 0.5
vt 0.935547 0.5

# verts
v -0.4 0 0.1
v -0.4 0 0
v -0.4 0 -0.1
v -0.4 0 -0.2
v -0.4 0.1 0.1
v -0.4 0.1 0
v -0.4 0.1 -0.1
v -0.4 0.1 -0.2
v -0.4 0.2 -0.1
v -0.4 0.2 -0.2
v -0.3 0 0.3
v -0.3 0 0.2
v -0.3 0 0
v -0.3 0 -0.1
v -0.3 0 -0.3
v -0.3 0 -0.4
v -0.3 0.1 0.3
v -0.3 0.1 0.2
v -0.3 0.1 0
v -0.3 0.1 -0.1
v -0.3 0.1 -0.3
v -0.3 0.1 -0.4
v -0.2 0 0.2
v -0.2 0 0.1
v -0.2 0 -0.2
v -0.2 0 -0.3
v -0.2 0.1 0.2
v -0.2 0.1 0.1
v -0.2 0.1 0
v -0.2 0.1 -0.1
v -0.2 0.1 -0.2
v -0.2 0.1 -0.3
v -0.2 0.2 0
v -0.2 0.2 -0.1
v -0.1 0 0.4
v -0.1 0 0.3
v -0.1 0 0.1
v -0.1 0 0
v -0.1 0 -0.1
v -0.1 0 -0.2
v -0.1 0.1 0.4
v -0.1 0.1 0.3
v -0.1 0.1 0.1
v -0.1 0.1 0
v -0.1 0.1 -0.1
v -0.1 0.1 -0.2
v -0.1 0.2 0.1
v -0.1 0.2 0
v -0.1 0.2 -0.1
v -0.1 0.2 -0.2
v -0.1 0.3 0
v -0.1 0.3 -0.1
v 0 0 0.2
v 0 0 0.1
v 0 0 -0.2
v 0 0 -0.3
v 0 0 -0.4
v 0 0 -0.5
v 0 0.1 0.2
v 0 0.1 0.1
v 0 0.1 -0.2
v 0 0.1 -0.3
v 0 0.1 -0.4
v 0 0.1 -0.5
v 0 0.2 0.2
v 0 0.2 0.1
v 0 0.2 0
v 0 0.2 -0.1
v 0 0.2 -0.2
v 0 0.2 -0.3
v 0 0.2 -0.4
v 0 0.2 -0.5
v 0 0.3 0.1
v 0 0.3 0
v 0 0.3 -0.1
v 0 0.3 -0.2
v 0 0.4 0
v 0 0.4 -0.1
v 0.1 0 0.5
v 0.1 0 0.4
v 0.1 0 -0.5
v 0.1 0 -0.6
v 0.1 0.1 0.5
v 0.1 0.1 0.4
v 0.1 0.1 -0.5
v 0.1 0.1 -0.6
v 0.2 0 0.2
v 0.2 0 0.1
v 0.2 0 -0.2
v 0.2 0 -0.3
v 0.2 0.1 0.2
v 0.2 0.1 0.1
v 0.2 0.1 -0.2
v 0.2 0.1 -0.3
v 0.3 0 0.3
v 0.3 0 0.2
v 0.3 0 0.1
v 0.3 0 0
v 0.3 0 -0.3
v 0.3 0 -0.4
v 0.3 0.1 0.3
v 0.3 0.1 0.2
v 0.3 0.1 0.1
v 0.3 0.1 0
v 0.3 0.1 -0.3
v 0.3 0.1 -0.4
v 0.4 0 -0.1
v 0.4 0 -0.2
v 0.4 0.1 -0.1
v 0.4 0.1 -0.2
v 0.5 0 0.2
v 0.5 0 0.1
v 0.5 0.1 0.1
v 0.5 0.2 0.2
v 0.5 0.2 0.1
v -0.3 0 0.1
v -0.3 0 0
v -0.3 0 -0.1
v -0.3 0 -0.2
v -0.3 0.1 0.1
v -0.3 0.1 0
v -0.3 0.1 -0.1
v -0.3 0.1 -0.2
v -0.3 0.2 -0.1
v -0.3 0.2 -0.2
v -0.2 0 0.3
v -0.2 0 0.2
v -0.2 0 -0.3
v -0.2 0 -0.4
v -0.2 0.1 0.3
v -0.2 0.1 0.2
v -0.2 0.1 -0.3
v -0.2 0.1 -0.4
v -0.1 0 0.2
v -0.1 0 0.1
v -0.1 0 -0.2
v -0.1 0 -0.3
v -0.1 0.1 0.2
v -0.1 0.1 0.1
v -0.1 0.1 -0.2
v -0.1 0.1 -0.3
v 0.1 0 0.4
v 0.1 0 0.3
v 0.1 0 0.2
v 0.1 0 0.1
v 0.1 0 -0.2
v 0.1 0 -0.3
v 0.1 0 -0.4
v 0.1 0 -0.5
v 0.1 0.1 0.4
v 0.1 0.1 0.3
v 0.1 0.1 0.2
v 0.1 0.1 0.1
v 0.1 0.1 -0.2
v 0.1 0.1 -0.3
v 0.1 0.1 -0.4
v 0.1 0.1 -0.5
v 0.1 0.2 0.2
v 0.1 0.2 0.1
v 0.1 0.2 0
v 0.1 0.2 -0.1
v 0.1 0.2 -0.2
v 0.1 0.2 -0.3
v 0.1 0.2 -0.4
v 0.1 0.2 -0.5
v 0.1 0.3 0.1
v 0.1 0.3 0
v 0.1 0.3 -0.1
v 0.1 0.3 -0.2
v 0.1 0.4 0
v 0.1 0.4 -0.1
v 0.2 0 0.5
v 0.2 0 0.4
v 0.2 0 0.1
v 0.2 0 0
v 0.2 0 -0.1
v 0.2 0 -0.2
v 0.2 0 -0.5
v 0.2 0 -0.6
v 0.2 0.1 0.5
v 0.2 0.1 0.4
v 0.2 0.1 0.1
v 0.2 0.1 0
v 0.2 0.1 -0.1
v 0.2 0.1 -0.2
v 0.2 0.1 -0.5
v 0.2 0.1 -0.6
v 0.2 0.2 0.1
v 0.2 0.2 0
v 0.2 0.2 -0.1
v 0.2 0.2 -0.2
v 0.2 0.3 0
v 0.2 0.3 -0.1
v 0.3 0 0.2
v 0.3 0 0.1
v 0.3 0 -0.2
v 0.3 0 -0.3
v 0.3 0.1 0.2
v 0.3 0.1 0.1
v 0.3 0.1 0
v 0.3 0.1 -0.1
v 0.3 0.1 -0.2
v 0.3 0.1 -0.3
v 0.3 0.2 0
v 0.3 0.2 -0.1
v 0.4 0 0.3
v 0.4 0 0.2
v 0.4 0 0
v 0.4 0 -0.1
v 0.4 0 -0.3
v 0.4 0 -0.4
v 0.4 0.1 0.3
v 0.4 0.1 0.2
v 0.4 0.1 0
v 0.4 0.1 -0.1
v 0.4 0.1 -0.3
v 0.4 0.1 -0.4
v 0.5 0 0.1
v 0.5 0 0
v 0.5 0 -0.1
v 0.5 0 -0.2
v 0.5 0.1 0.1
v 0.5 0.1 0
v 0.5 0.1 -0.1
v 0.5 0.1 -0.2
v 0.6 0 0.2
v 0.6 0 0.1
v 0.6 0.2 0.2
v 0.6 0.2 0.1
v 0.1 0 0.5
v 0.1 0.1 0.5
v 0.2 0 0.5
v 0.2 0.1 0.5
v -0.1 0 0.4
v -0.1 0.1 0.4
v 0 0 0.4
v 0 0.1 0.4
v 0.1 0 0.4
v 0.1 0.1 0.4
v -0.3 0 0.3
v -0.3 0.1 0.3
v -0.2 0 0.3
v -0.2 0.1 0.3
v 0.3 0 0.3
v 0.3 0.1 0.3
v 0.4 0 0.3
v 0.4 0.1 0.3
v -0.2 0 0.2
v -0.2 0.1 0.2
v -0.1 0 0.2
v -0.1 0.1 0.2
v 0 0 0.2
v 0 0.1 0.2
v 0 0.2 0.2
v 0.1 0 0.2
v 0.1 0.1 0.2
v 0.1 0.2 0.2
v 0.2 0 0.2
v 0.2 0.1 0.2
v 0.3 0 0.2
v 0.3 0.1 0.2
v 0.5 0 0.2
v 0.5 0.2 0.2
v 0.6 0 0.2
v 0.6 0.2 0.2
v -0.4 0 0.1
v -0.4 0.1 0.1
v -0.3 0 0.1
v -0.3 0.1 0.1
v -0.1 0 0.1
v -0.1 0.1 0.1
v -0.1 0.2 0.1
v 0 0 0.1
v 0 0.1 0.1
v 0 0.2 0.1
v 0 0.3 0.1
v 0.1 0 0.1
v 0.1 0.1 0.1
v 0.1 0.2 0.1
v 0.1 0.3 0.1
v 0.2 0 0.1
v 0.2 0.1 0.1
v 0.2 0.2 0.1
v 0.3 0 0.1
v 0.3 0.1 0.1
v 0.4 0 0.1
v 0.4 0.1 0.1
v 0.5 0 0.1
v 0.5 0.1 0.1
v -0.3 0 0
v -0.3 0.1 0
v -0.2 0.1 0
v -0.2 0.2 0
v -0.1 0 0
v -0.1 0.1 0
v -0.1 0.2 0
v -0.1 0.3 0
v 0 0.2 0
v 0 0.3 0
v 0 0.4 0
v 0.1 0.2 0
v 0.1 0.3 0
v 0.1 0.4 0
v 0.2 0 0
v 0.2 0.1 0
v 0.2 0.2 0
v 0.2 0.3 0
v 0.3 0 0
v 0.3 0.1 0
v 0.3 0.2 0
v -0.4 0 -0.1
v -0.4 0.1 -0.1
v -0.4 0.2 -0.1
v -0.3 0 -0.1
v -0.3 0.1 -0.1
v -0.3 0.2 -0.1
v 0.4 0 -0.1
v 0.4 0.1 -0.1
v 0.5 0 -0.1
v 0.5 0.1 -0.1
v -0.2 0 -0.2
v -0.2 0.1 -0.2
v -0.1 0 -0.2
v -0.1 0.1 -0.2
v 0.2 0 -0.2
v 0.2 0.1 -0.2
v 0.3 0 -0.2
v 0.3 0.1 -0.2
v -0.3 0 -0.3
v -0.3 0.1 -0.3
v -0.2 0 -0.3
v -0.2 0.1 -0.3
v 0.3 0 -0.3
v 0.3 0.1 -0.3
v 0.4 0 -0.3
v 0.4 0.1 -0.3
v 0 0 -0.4
v 0 0.1 -0.4
v 0 0.2 -0.4
v 0.1 0 -0.4
v 0.1 0.1 -0.4
v 0.1 0.2 -0.4
v 0.1 0 -0.5
v 0.1 0.1 -0.5
v 0.2 0 -0.5
v 0.2 0.1 -0.5
v 0.1 0 0.4
v 0.1 0.1 0.4
v 0.2 0 0.4
v 0.2 0.1 0.4
v -0.1 0 0.3
v -0.1 0.1 0.3
v 0 0 0.3
v 0 0.1 0.3
v 0.1 0 0.3
v 0.1 0.1 0.3
v -0.3 0 0.2
v -0.3 0.1 0.2
v -0.2 0 0.2
v -0.2 0.1 0.2
v 0.3 0 0.2
v 0.3 0.1 0.2
v 0.4 0 0.2
v 0.4 0.1 0.2
v -0.2 0 0.1
v -0.2 0.1 0.1
v -0.1 0 0.1
v -0.1 0.1 0.1
v 0.2 0 0.1
v 0.2 0.1 0.1
v 0.3 0 0.1
v 0.3 0.1 0.1
v 0.5 0 0.1
v 0.5 0.1 0.1
v 0.5 0.2 0.1
v 0.6 0 0.1
v 0.6 0.2 0.1
v -0.4 0 0
v -0.4 0.1 0
v -0.3 0 0
v -0.3 0.1 0
v 0.4 0 0
v 0.4 0.1 0
v 0.5 0 0
v 0.5 0.1 0
v -0.3 0 -0.1
v -0.3 0.1 -0.1
v -0.2 0.1 -0.1
v -0.2 0.2 -0.1
v -0.1 0 -0.1
v -0.1 0.1 -0.1
v -0.1 0.2 -0.1
v -0.1 0.3 -0.1
v 0 0.2 -0.1
v 0 0.3 -0.1
v 0 0.4 -0.1
v 0.1 0.2 -0.1
v 0.1 0.3 -0.1
v 0.1 0.4 -0.1
v 0.2 0 -0.1
v 0.2 0.1 -0.1
v 0.2 0.2 -0.1
v 0.2 0.3 -0.1
v 0.3 0.1 -0.1
v 0.3 0.2 -0.1
v 0.4 0 -0.1
v 0.4 0.1 -0.1
v -0.4 0 -0.2
v -0.4 0.1 -0.2
v -0.4 0.2 -0.2
v -0.3 0 -0.2
v -0.3 0.1 -0.2
v -0.3 0.2 -0.2
v -0.1 0 -0.2
v -0.1 0.1 -0.2
v -0.1 0.2 -0.2
v 0 0 -0.2
v 0 0.1 -0.2
v 0 0.2 -0.2
v 0 0.3 -0.2
v 0.1 0 -0.2
v 0.1 0.1 -0.2
v 0.1 0.2 -0.2
v 0.1 0.3 -0.2
v 0.2 0 -0.2
v 0.2 0.1 -0.2
v 0.2 0.2 -0.2
v 0.4 0 -0.2
v 0.4 0.1 -0.2
v 0.5 0 -0.2
v 0.5 0.1 -0.2
v -0.2 0 -0.3
v -0.2 0.1 -0.3
v -0.1 0 -0.3
v -0.1 0.1 -0.3
v 0 0 -0.3
v 0 0.1 -0.3
v 0 0.2 -0.3
v 0.1 0 -0.3
v 0.1 0.1 -0.3
v 0.1 0.2 -0.3
v 0.2 0 -0.3
v 0.2 0.1 -0.3
v 0.3 0 -0.3
v 0.3 0.1 -0.3
v -0.3 0 -0.4
v -0.3 0.1 -0.4
v -0.2 0 -0.4
v -0.2 0.1 -0.4
v 0.3 0 -0.4
v 0.3 0.1 -0.4
v 0.4 0 -0.4
v 0.4 0.1 -0.4
v 0 0 -0.5
v 0 0.1 -0.5
v 0 0.2 -0.5
v 0.1 0 -0.5
v 0.1 0.1 -0.5
v 0.1 0.2 -0.5
v 0.1 0 -0.6
v 0.1 0.1 -0.6
v 0.2 0 -0.6
v 0.2 0.1 -0.6
v 0.1 0 0.5
v 0.2 0 0.5
v -0.1 0 0.4
v 0 0 0.4
v 0.1 0 0.4
v 0.2 0 0.4
v -0.3 0 0.3
v -0.2 0 0.3
v -0.1 0 0.3
v 0 0 0.3
v 0.1 0 0.3
v 0.3 0 0.3
v 0.4 0 0.3
v -0.3 0 0.2
v -0.2 0 0.2
v -0.1 0 0.2
v 0 0 0.2
v 0.1 0 0.2
v 0.2 0 0.2
v 0.3 0 0.2
v 0.4 0 0.2
v 0.5 0 0.2
v 0.6 0 0.2
v -0.4 0 0.1
v -0.3 0 0.1
v -0.2 0 0.1
v -0.1 0 0.1
v 0 0 0.1
v 0.1 0 0.1
v 0.2 0 0.1
v 0.3 0 0.1
v 0.4 0 0.1
v 0.5 0 0.1
v 0.6 0 0.1
v -0.4 0 0
v -0.3 0 0
v -0.1 0 0
v 0 0 0
v 0.1 0 0
v 0.2 0 0
v 0.3 0 0
v 0.4 0 0
v 0.5 0 0
v -0.4 0 -0.1
v -0.3 0 -0.1
v -0.1 0 -0.1
v 0 0 -0.1
v 0.1 0 -0.1
v 0.2 0 -0.1
v 0.4 0 -0.1
v 0.5 0 -0.1
v -0.4 0 -0.2
v -0.3 0 -0.2
v -0.2 0 -0.2
v -0.1 0 -0.2
v 0 0 -0.2
v 0.1 0 -0.2
v 0.2 0 -0.2
v 0.3 0 -0.2
v 0.4 0 -0.2
v 0.5 0 -0.2
v -0.3 0 -0.3
v -0.2 0 -0.3
v -0.1 0 -0.3
v 0 0 -0.3
v 0.1 0 -0.3
v 0.2 0 -0.3
v 0.3 0 -0.3
v 0.4 0 -0.3
v -0.3 0 -0.4
v -0.2 0 -0.4
v 0 0 -0.4
v 0.1 0 -0.4
v 0.3 0 -0.4
v 0.4 0 -0.4
v 0 0 -0.5
v 0.1 0 -0.5
v 0.2 0 -0.5
v 0.1 0 -0.6
v 0.2 0 -0.6
v 0.1 0.1 0.5
v 0.2 0.1 0.5
v -0.1 0.1 0.4
v 0 0.1 0.4
v 0.1 0.1 0.4
v 0.2 0.1 0.4
v -0.3 0.1 0.3
v -0.2 0.1 0.3
v -0.1 0.1 0.3
v 0 0.1 0.3
v 0.1 0.1 0.3
v 0.3 0.1 0.3
v 0.4 0.1 0.3
v -0.3 0.1 0.2
v -0.2 0.1 0.2
v -0.1 0.1 0.2
v 0.2 0.1 0.2
v 0.3 0.1 0.2
v 0.4 0.1 0.2
v -0.4 0.1 0.1
v -0.3 0.1 0.1
v -0.2 0.1 0.1
v -0.1 0.1 0.1
v 0.2 0.1 0.1
v 0.3 0.1 0.1
v 0.4 0.1 0.1
v 0.5 0.1 0.1
v -0.4 0.1 0
v -0.3 0.1 0
v -0.2 0.1 0
v 0.3 0.1 0
v 0.4 0.1 0
v 0.5 0.1 0
v -0.3 0.1 -0.1
v -0.2 0.1 -0.1
v 0.3 0.1 -0.1
v 0.4 0.1 -0.1
v 0.5 0.1 -0.1
v -0.2 0.1 -0.2
v -0.1 0.1 -0.2
v 0.2 0.1 -0.2
v 0.3 0.1 -0.2
v 0.4 0.1 -0.2
v 0.5 0.1 -0.2
v -0.3 0.1 -0.3
v -0.2 0.1 -0.3
v -0.1 0.1 -0.3
v 0.2 0.1 -0.3
v 0.3 0.1 -0.3
v 0.4 0.1 -0.3
v -0.3 0.1 -0.4
v -0.2 0.1 -0.4
v 0.3 0.1 -0.4
v 0.4 0.1 -0.4
v 0.1 0.1 -0.5
v 0.2 0.1 -0.5
v 0.1 0.1 -0.6
v 0.2 0.1 -0.6
v 0 0.2 0.2
v 0.1 0.2 0.2
v 0.5 0.2 0.2
v 0.6 0.2 0.2
v -0.1 0.2 0.1
v 0 0.2 0.1
v 0.1 0.2 0.1
v 0.2 0.2 0.1
v 0.5 0.2 0.1
v 0.6 0.2 0.1
v -0.2 0.2 0
v -0.1 0.2 0
v 0 0.2 0
v 0.1 0.2 0
v 0.2 0.2 0
v 0.3 0.2 0
v -0.4 0.2 -0.1
v -0.3 0.2 -0.1
v -0.2 0.2 -0.1
v -0.1 0.2 -0.1
v 0 0.2 -0.1
v 0.1 0.2 -0.1
v 0.2 0.2 -0.1
v 0.3 0.2 -0.1
v -0.4 0.2 -0.2
v -0.3 0.2 -0.2
v -0.1 0.2 -0.2
v 0 0.2 -0.2
v 0.1 0.2 -0.2
v 0.2 0.2 -0.2
v 0 0.2 -0.3
v 0.1 0.2 -0.3
v 0 0.2 -0.4
v 0.1 0.2 -0.4
v 0 0.2 -0.5
v 0.1 0.2 -0.5
v 0 0.3 0.1
v 0.1 0.3 0.1
v -0.1 0.3 0
v 0 0.3 0
v 0.1 0.3 0
v 0.2 0.3 0
v -0.1 0.3 -0.1
v 0 0.3 -0.1
v 0.1 0.3 -0.1
v 0.2 0.3 -0.1
v 0 0.3 -0.2
v 0.1 0.3 -0.2
v 0 0.4 0
v 0.1 0.4 0
v 0 0.4 -0.1
v 0.1 0.4 -0.1

# faces
f 5/3/1 2/3/1 1/3/1
f 6/3/1 2/3/1 5/3/1
f 7/7/1 4/7/1 3/7/1
f 8/7/1 4/7/1 7/7/1
f 9/6/1 8/6/1 7/6/1
f 10/6/1 8/6/1 9/6/1
f 17/4/1 12/4/1 11/4/1
f 18/4/1 12/4/1 17/4/1
f 19/4/1 14/4/1 13/4/1
f 20/4/1 14/4/1 19/4/1
f 21/4/1 16/4/1 15/4/1
f 22/4/1 16/4/1 21/4/1
f 27/3/1 24/3/1 23/3/1
f 28/3/1 24/3/1 27/3/1
f 31/3/1 26/3/1 25/3/1
f 32/3/1 26/3/1 31/3/1
f 33/5/1 30/5/1 29/5/1
f 34/5/1 30/5/1 33/5/1
f 41/6/1 36/6/1 35/6/1
f 42/6/1 36/6/1 41/6/1
f 43/4/1 38/4/1 37/4/1
f 44/4/1 38/4/1 43/4/1
f 45/4/1 40/4/1 39/4/1
f 46/4/1 40/4/1 45/4/1
f 47/5/1 44/5/1 43/5/1
f 48/5/1 44/5/1 47/5/1
f 49/5/1 46/5/1 45/5/1
f 50/5/1 46/5/1 49/5/1
f 51/2/1 49/2/1 48/2/1
f 52/2/1 49/2/1 51/2/1
f 59/4/1 54/4/1 53/4/1
f 60/4/1 54/4/1 59/4/1
f 61/4/1 56/4/1 55/4/1
f 62/4/1 56/4/1 61/4/1
f 63/7/1 58/7/1 57/7/1
f 64/7/1 58/7/1 63/7/1
f 65/5/1 60/5/1 59/5/1
f 66/5/1 60/5/1 65/5/1
f 69/5/1 62/5/1 61/5/1
f 70/5/1 62/5/1 69/5/1
f 71/6/1 64/6/1 63/6/1
f 72/6/1 64/6/1 71/6/1
f 73/2/1 67/2/1 66/2/1
f 74/2/1 67/2/1 73/2/1
f 75/2/1 69/2/1 68/2/1
f 76/2/1 69/2/1 75/2/1
f 77/2/1 75/2/1 74/2/1
f 78/2/1 75/2/1 77/2/1
f 83/6/1 80/6/1 79/6/1
f 84/6/1 80/6/1 83/6/1
f 85/6/1 82/6/1 81/6/1
f 86/6/1 82/6/1 85/6/1
f 91/3/1 88/3/1 87/3/1
f 92/3/1 88/3/1 91/3/1
f 93/3/1 90/3/1 89/3/1
f 94/3/1 90/3/1 93/3/1
f 101/4/1 96/4/1 95/4/1
f 102/4/1 96/4/1 101/4/1
f 103/6/1 98/6/1 97/6/1
f 104/6/1 98/6/1 103/6/1
f 105/4/1 100/4/1 99/4/1
f 106/4/1 100/4/1 105/4/1
f 109/4/1 108/4/1 107/4/1
f 110/4/1 108/4/1 109/4/1
f 113/6/1 112/6/1 111/6/1
f 114/6/1 113/6/1 111/6/1
f 115/6/1 113/6/1 114/6/1
f 116/3/2 117/3/2 120/3/2
f 120/3/2 117/3/2 121/3/2
f 118/7/2 119/7/2 122/7/2
f 122/7/2 119/7/2 123/7/2
f 122/6/2 123/6/2 124/6/2
f 124/6/2 123/6/2 125/6/2
f 126/4/2 127/4/2 130/4/2
f 130/4/2 127/4/2 131/4/2
f 128/4/2 129/4/2 132/4/2
f 132/4/2 129/4/2 133/4/2
f 134/3/2 135/3/2 138/3/2
f 138/3/2 135/3/2 139/3/2
f 136/3/2 137/3/2 140/3/2
f 140/3/2 137/3/2 141/3/2
f 142/7/2 143/7/2 150/7/2
f 150/7/2 143/7/2 151/7/2
f 144/4/2 145/4/2 152/4/2
f 152/4/2 145/4/2 153/4/2
f 146/4/2 147/4/2 154/4/2
f 154/4/2 147/4/2 155/4/2
f 148/7/2 149/7/2 156/7/2
f 156/7/2 149/7/2 157/7/2
f 152/5/2 153/5/2 158/5/2
f 158/5/2 153/5/2 159/5/2
f 154/5/2 155/5/2 162/5/2
f 162/5/2 155/5/2 163/5/2
f 156/6/2 157/6/2 164/6/2
f 164/6/2 157/6/2 165/6/2
f 159/2/2 160/2/2 166/2/2
f 166/2/2 160/2/2 167/2/2
f 161/2/2 162/2/2 168/2/2
f 168/2/2 162/2/2 169/2/2
f 167/2/2 168/2/2 170/2/2
f 170/2/2 168/2/2 171/2/2
f 172/6/2 173/6/2 180/6/2
f 180/6/2 173/6/2 181/6/2
f 174/4/2 175/4/2 182/4/2
f 182/4/2 175/4/2 183/4/2
f 176/4/2 177/4/2 184/4/2
f 184/4/2 177/4/2 185/4/2
f 178/6/2 179/6/2 186/6/2
f 186/6/2 179/6/2 187/6/2
f 182/5/2 183/5/2 188/5/2
f 188/5/2 183/5/2 189/5/2
f 184/5/2 185/5/2 190/5/2
f 190/5/2 185/5/2 191/5/2
f 189/2/2 190/2/2 192/2/2
f 192/2/2 190/2/2 193/2/2
f 194/3/2 195/3/2 198/3/2
f 198/3/2 195/3/2 199/3/2
f 196/3/2 197/3/2 202/3/2
f 202/3/2 197/3/2 203/3/2
f 200/5/2 201/5/2 204/5/2
f 204/5/2 201/5/2 205/5/2
f 206/4/2 207/4/2 212/4/2
f 212/4/2 207/4/2 213/4/2
f 208/4/2 209/4/2 214/4/2
f 214/4/2 209/4/2 215/4/2
f 210/4/2 211/4/2 216/4/2
f 216/4/2 211/4/2 217/4/2
f 218/7/2 219/7/2 222/7/2
f 222/7/2 219/7/2 223/7/2
f 220/4/2 221/4/2 224/4/2
f 224/4/2 221/4/2 225/4/2
f 226/6/2 227/6/2 228/6/2
f 228/6/2 227/6/2 229/6/2
f 232/6/3 231/6/3 230/6/3
f 233/6/3 231/6/3 232/6/3
f 236/6/3 235/6/3 234/6/3
f 237/6/3 235/6/3 236/6/3
f 238/7/3 237/7/3 236/7/3
f 239/7/3 237/7/3 238/7/3
f 242/4/3 241/4/3 240/4/3
f 243/4/3 241/4/3 242/4/3
f 246/4/3 245/4/3 244/4/3
f 247/4/3 245/4/3 246/4/3
f 250/3/3 249/3/3 248/3/3
f 251/3/3 249/3/3 250/3/3
f 255/4/3 253/4/3 252/4/3
f 256/5/3 254/5/3 253/5/3
f 256/4/3 253/4/3 255/4/3
f 257/5/3 254/5/3 256/5/3
f 260/3/3 259/3/3 258/3/3
f 261/3/3 259/3/3 260/3/3
f 264/6/3 263/6/3 262/6/3
f 265/6/3 263/6/3 264/6/3
f 268/3/3 267/3/3 266/3/3
f 269/3/3 267/3/3 268/3/3
f 273/4/3 271/4/3 270/4/3
f 274/5/3 272/5/3 271/5/3
f 274/4/3 271/4/3 273/4/3
f 275/5/3 272/5/3 274/5/3
f 279/2/3 276/2/3 275/2/3
f 280/2/3 276/2/3 279/2/3
f 281/4/3 278/4/3 277/4/3
f 282/5/3 279/5/3 278/5/3
f 282/4/3 278/4/3 281/4/3
f 283/5/3 279/5/3 282/5/3
f 286/6/3 285/6/3 284/6/3
f 287/6/3 285/6/3 286/6/3
f 288/7/3 287/7/3 286/7/3
f 289/7/3 287/7/3 288/7/3
f 292/4/3 291/4/3 290/4/3
f 294/4/3 292/4/3 290/4/3
f 295/5/3 293/5/3 292/5/3
f 295/4/3 292/4/3 294/4/3
f 296/5/3 293/5/3 295/5/3
f 298/2/3 297/2/3 296/2/3
f 299/2/3 297/2/3 298/2/3
f 302/2/3 300/2/3 299/2/3
f 303/2/3 300/2/3 302/2/3
f 306/2/3 302/2/3 301/2/3
f 307/2/3 302/2/3 306/2/3
f 308/4/3 305/4/3 304/4/3
f 309/5/3 306/5/3 305/5/3
f 309/4/3 305/4/3 308/4/3
f 310/5/3 306/5/3 309/5/3
f 314/7/3 312/7/3 311/7/3
f 315/6/3 313/6/3 312/6/3
f 315/7/3 312/7/3 314/7/3
f 316/6/3 313/6/3 315/6/3
f 319/4/3 318/4/3 317/4/3
f 320/4/3 318/4/3 319/4/3
f 323/3/3 322/3/3 321/3/3
f 324/3/3 322/3/3 323/3/3
f 327/3/3 326/3/3 325/3/3
f 328/3/3 326/3/3 327/3/3
f 331/4/3 330/4/3 329/4/3
f 332/4/3 330/4/3 331/4/3
f 335/4/3 334/4/3 333/4/3
f 336/4/3 334/4/3 335/4/3
f 340/7/3 338/7/3 337/7/3
f 341/6/3 339/6/3 338/6/3
f 341/7/3 338/7/3 340/7/3
f 342/6/3 339/6/3 341/6/3
f 345/6/3 344/6/3 343/6/3
f 346/6/3 344/6/3 345/6/3
f 347/6/4 348/6/4 349/6/4
f 349/6/4 348/6/4 350/6/4
f 351/6/4 352/6/4 353/6/4
f 353/6/4 352/6/4 354/6/4
f 353/7/4 354/7/4 355/7/4
f 355/7/4 354/7/4 356/7/4
f 357/4/4 358/4/4 359/4/4
f 359/4/4 358/4/4 360/4/4
f 361/4/4 362/4/4 363/4/4
f 363/4/4 362/4/4 364/4/4
f 365/3/4 366/3/4 367/3/4
f 367/3/4 366/3/4 368/3/4
f 369/3/4 370/3/4 371/3/4
f 371/3/4 370/3/4 372/3/4
f 373/6/4 374/6/4 376/6/4
f 374/6/4 375/6/4 376/6/4
f 376/6/4 375/6/4 377/6/4
f 378/3/4 379/3/4 380/3/4
f 380/3/4 379/3/4 381/3/4
f 382/7/4 383/7/4 384/7/4
f 384/7/4 383/7/4 385/7/4
f 386/4/4 387/4/4 388/4/4
f 386/4/4 388/4/4 390/4/4
f 388/5/4 389/5/4 391/5/4
f 390/4/4 388/4/4 391/4/4
f 391/5/4 389/5/4 392/5/4
f 392/2/4 393/2/4 394/2/4
f 394/2/4 393/2/4 395/2/4
f 395/2/4 396/2/4 398/2/4
f 398/2/4 396/2/4 399/2/4
f 397/2/4 398/2/4 402/2/4
f 402/2/4 398/2/4 403/2/4
f 400/4/4 401/4/4 404/4/4
f 401/5/4 402/5/4 404/5/4
f 404/5/4 402/5/4 405/5/4
f 400/4/4 404/4/4 406/4/4
f 406/4/4 404/4/4 407/4/4
f 408/7/4 409/7/4 411/7/4
f 409/6/4 410/6/4 412/6/4
f 411/7/4 409/7/4 412/7/4
f 412/6/4 410/6/4 413/6/4
f 414/4/4 415/4/4 417/4/4
f 415/5/4 416/5/4 418/5/4
f 417/4/4 415/4/4 418/4/4
f 418/5/4 416/5/4 419/5/4
f 419/2/4 420/2/4 423/2/4
f 423/2/4 420/2/4 424/2/4
f 421/4/4 422/4/4 425/4/4
f 422/5/4 423/5/4 426/5/4
f 425/4/4 422/4/4 426/4/4
f 426/5/4 423/5/4 427/5/4
f 428/4/4 429/4/4 430/4/4
f 430/4/4 429/4/4 431/4/4
f 432/3/4 433/3/4 434/3/4
f 434/3/4 433/3/4 435/3/4
f 436/4/4 437/4/4 439/4/4
f 437/5/4 438/5/4 440/5/4
f 439/4/4 437/4/4 440/4/4
f 440/5/4 438/5/4 441/5/4
f 442/3/4 443/3/4 444/3/4
f 444/3/4 443/3/4 445/3/4
f 446/4/4 447/4/4 448/4/4
f 448/4/4 447/4/4 449/4/4
f 450/4/4 451/4/4 452/4/4
f 452/4/4 451/4/4 453/4/4
f 454/7/4 455/7/4 457/7/4
f 455/6/4 456/6/4 458/6/4
f 457/7/4 455/7/4 458/7/4
f 458/6/4 456/6/4 459/6/4
f 460/6/4 461/6/4 462/6/4
f 462/6/4 461/6/4 463/6/4
f 468/6/5 465/6/5 464/6/5
f 469/6/5 465/6/5 468/6/5
f 472/6/5 467/6/5 466/6/5
f 473/7/5 468/7/5 467/7/5
f 473/6/5 467/6/5 472/6/5
f 474/7/5 468/7/5 473/7/5
f 477/4/5 471/4/5 470/4/5
f 478/4/5 471/4/5 477/4/5
f 483/4/5 476/4/5 475/4/5
f 484/4/5 476/4/5 483/4/5
f 489/3/5 479/3/5 478/3/5
f 490/3/5 479/3/5 489/3/5
f 491/4/5 481/4/5 480/4/5
f 492/4/5 481/4/5 491/4/5
f 493/3/5 483/3/5 482/3/5
f 494/3/5 483/3/5 493/3/5
f 496/6/5 486/6/5 485/6/5
f 497/6/5 486/6/5 496/6/5
f 498/3/5 488/3/5 487/3/5
f 499/3/5 488/3/5 498/3/5
f 500/4/5 491/4/5 490/4/5
f 501/3/5 492/3/5 491/3/5
f 501/4/5 491/4/5 500/4/5
f 502/4/5 493/4/5 492/4/5
f 502/3/5 492/3/5 501/3/5
f 503/4/5 493/4/5 502/4/5
f 504/6/5 495/6/5 494/6/5
f 505/7/5 496/7/5 495/7/5
f 505/6/5 495/6/5 504/6/5
f 506/7/5 496/7/5 505/7/5
f 508/4/5 500/4/5 499/4/5
f 509/3/5 503/3/5 502/3/5
f 509/3/5 501/3/5 500/3/5
f 509/4/5 500/4/5 508/4/5
f 509/3/5 502/3/5 501/3/5
f 510/3/5 503/3/5 509/3/5
f 511/3/5 503/3/5 510/3/5
f 512/4/5 504/4/5 503/4/5
f 512/3/5 503/3/5 511/3/5
f 512/4/5 505/4/5 504/4/5
f 513/4/5 505/4/5 512/4/5
f 515/7/5 508/7/5 507/7/5
f 516/7/5 508/7/5 515/7/5
f 518/4/5 510/4/5 509/4/5
f 519/3/5 511/3/5 510/3/5
f 519/4/5 510/4/5 518/4/5
f 520/4/5 512/4/5 511/4/5
f 520/3/5 511/3/5 519/3/5
f 521/4/5 512/4/5 520/4/5
f 523/4/5 514/4/5 513/4/5
f 524/4/5 514/4/5 523/4/5
f 526/3/5 518/3/5 517/3/5
f 527/3/5 518/3/5 526/3/5
f 528/4/5 520/4/5 519/4/5
f 529/4/5 520/4/5 528/4/5
f 530/3/5 522/3/5 521/3/5
f 531/3/5 522/3/5 530/3/5
f 533/4/5 526/4/5 525/4/5
f 534/4/5 526/4/5 533/4/5
f 537/4/5 532/4/5 531/4/5
f 538/4/5 532/4/5 537/4/5
f 539/7/5 536/7/5 535/7/5
f 540/7/5 536/7/5 539/7/5
f 542/6/5 541/6/5 540/6/5
f 543/6/5 541/6/5 542/6/5
f 544/6/6 545/6/6 548/6/6
f 548/6/6 545/6/6 549/6/6
f 546/6/6 547/6/6 552/6/6
f 547/7/6 548/7/6 553/7/6
f 552/6/6 547/6/6 553/6/6
f 553/7/6 548/7/6 554/7/6
f 550/4/6 551/4/6 557/4/6
f 557/4/6 551/4/6 558/4/6
f 555/4/6 556/4/6 561/4/6
f 561/4/6 556/4/6 562/4/6
f 558/3/6 559/3/6 565/3/6
f 565/3/6 559/3/6 566/3/6
f 560/3/6 561/3/6 567/3/6
f 567/3/6 561/3/6 568/3/6
f 563/3/6 564/3/6 571/3/6
f 571/3/6 564/3/6 572/3/6
f 568/6/6 569/6/6 574/6/6
f 569/7/6 570/7/6 575/7/6
f 574/6/6 569/6/6 575/6/6
f 575/7/6 570/7/6 576/7/6
f 572/4/6 573/4/6 577/4/6
f 577/4/6 573/4/6 578/4/6
f 574/4/6 575/4/6 579/4/6
f 579/4/6 575/4/6 580/4/6
f 580/4/6 581/4/6 586/4/6
f 586/4/6 581/4/6 587/4/6
f 582/3/6 583/3/6 589/3/6
f 589/3/6 583/3/6 590/3/6
f 584/3/6 585/3/6 591/3/6
f 591/3/6 585/3/6 592/3/6
f 588/4/6 589/4/6 594/4/6
f 594/4/6 589/4/6 595/4/6
f 592/4/6 593/4/6 596/4/6
f 596/4/6 593/4/6 597/4/6
f 598/6/6 599/6/6 600/6/6
f 600/6/6 599/6/6 601/6/6
f 602/5/6 603/5/6 607/5/6
f 607/5/6 603/5/6 608/5/6
f 604/6/6 605/6/6 610/6/6
f 610/6/6 605/6/6 611/6/6
f 606/5/6 607/5/6 613/5/6
f 613/5/6 607/5/6 614/5/6
f 608/5/6 609/5/6 615/5/6
f 615/5/6 609/5/6 616/5/6
f 612/5/6 613/5/6 620/5/6
f 620/5/6 613/5/6 621/5/6
f 616/5/6 617/5/6 624/5/6
f 624/5/6 617/5/6 625/5/6
f 618/6/6 619/6/6 626/6/6
f 626/6/6 619/6/6 627/6/6
f 621/5/6 622/5/6 628/5/6
f 628/5/6 622/5/6 629/5/6
f 623/5/6 624/5/6 630/5/6
f 630/5/6 624/5/6 631/5/6
f 629/5/6 630/5/6 632/5/6
f 632/5/6 630/5/6 633/5/6
f 634/6/6 635/6/6 636/6/6
f 636/6/6 635/6/6 637/6/6
f 638/2/6 639/2/6 641/2/6
f 641/2/6 639/2/6 642/2/6
f 640/2/6 641/2/6 644/2/6
f 644/2/6 641/2/6 645/2/6
f 642/2/6 643/2/6 646/2/6
f 646/2/6 643/2/6 647/2/6
f 645/2/6 646/2/6 648/2/6
f 648/2/6 646/2/6 649/2/6
f 650/2/6 651/2/6 652/2/6
f 652/2/6 651/2/6 653/2/6
