# MagicaVoxel @ Ephtracy

# group
o 

# material
mtllib Lampara.mtl
usemtl palette

# normals
vn -1 0 0
vn 1 0 0
vn 0 0 1
vn 0 0 -1
vn 0 -1 0
vn 0 1 0

# texcoords
vt 0.208984 0.5
vt 0.220703 0.5
vt 0.244141 0.5
vt 0.373047 0.5
vt 0.935547 0.5
vt 0.982422 0.5

# verts
v -0.3 0 0.1
v -0.3 0 0
v -0.3 0.1 0.1
v -0.3 0.1 0
v -0.3 0.9 0.1
v -0.3 0.9 0
v -0.3 1 0.1
v -0.3 1 0
v -0.2 0.1 0.1
v -0.2 0.1 0
v -0.2 0.2 0.1
v -0.2 0.2 0
v -0.2 0.8 0.1
v -0.2 0.8 0
v -0.2 0.9 0.1
v -0.2 0.9 0
v -0.2 1.1 0.1
v -0.2 1.1 0
v -0.2 1.2 0.1
v -0.2 1.2 0
v -0.1 0 0.3
v -0.1 0 0.2
v -0.1 0 -0.1
v -0.1 0 -0.2
v -0.1 0.1 0.3
v -0.1 0.1 0.2
v -0.1 0.1 0.1
v -0.1 0.1 0
v -0.1 0.1 -0.1
v -0.1 0.1 -0.2
v -0.1 0.2 0.2
v -0.1 0.2 0.1
v -0.1 0.2 0
v -0.1 0.2 -0.1
v -0.1 0.3 0.1
v -0.1 0.3 0
v -0.1 0.4 0.1
v -0.1 0.4 0
v -0.1 0.5 0.1
v -0.1 0.5 0
v -0.1 0.6 0.1
v -0.1 0.6 0
v -0.1 0.8 0.2
v -0.1 0.8 0.1
v -0.1 0.8 0
v -0.1 0.8 -0.1
v -0.1 0.9 0.3
v -0.1 0.9 0.2
v -0.1 0.9 0.1
v -0.1 0.9 0
v -0.1 0.9 -0.1
v -0.1 0.9 -0.2
v -0.1 1 0.3
v -0.1 1 0.2
v -0.1 1 0.1
v -0.1 1 0
v -0.1 1 -0.1
v -0.1 1 -0.2
v -0.1 1.1 0.2
v -0.1 1.1 0.1
v -0.1 1.1 0
v -0.1 1.1 -0.1
v -0.1 1.2 0.2
v -0.1 1.2 0.1
v -0.1 1.2 0
v -0.1 1.2 -0.1
v -0.1 1.3 0.1
v -0.1 1.3 0
v 0 0.1 0.1
v 0 0.1 0
v 0 0.2 0.1
v 0 0.2 0
v 0 0.8 0.1
v 0 0.8 0
v 0 0.9 0.1
v 0 0.9 0
v 0.1 0 0.1
v 0.1 0 0
v 0.1 0.1 0.1
v 0.1 0.1 0
v 0.1 0.9 0.1
v 0.1 0.9 0
v 0.1 1 0.1
v 0.1 1 0
v -0.2 0 0.1
v -0.2 0 0
v -0.2 0.1 0.1
v -0.2 0.1 0
v -0.2 0.9 0.1
v -0.2 0.9 0
v -0.2 1 0.1
v -0.2 1 0
v -0.1 0.1 0.1
v -0.1 0.1 0
v -0.1 0.2 0.1
v -0.1 0.2 0
v -0.1 0.8 0.1
v -0.1 0.8 0
v -0.1 0.9 0.1
v -0.1 0.9 0
v 0 0 0.3
v 0 0 0.2
v 0 0 -0.1
v 0 0 -0.2
v 0 0.1 0.3
v 0 0.1 0.2
v 0 0.1 0.1
v 0 0.1 0
v 0 0.1 -0.1
v 0 0.1 -0.2
v 0 0.2 0.2
v 0 0.2 0.1
v 0 0.2 0
v 0 0.2 -0.1
v 0 0.3 0.1
v 0 0.3 0
v 0 0.4 0.1
v 0 0.4 0
v 0 0.5 0.1
v 0 0.5 0
v 0 0.6 0.1
v 0 0.6 0
v 0 0.8 0.2
v 0 0.8 0.1
v 0 0.8 0
v 0 0.8 -0.1
v 0 0.9 0.3
v 0 0.9 0.2
v 0 0.9 0.1
v 0 0.9 0
v 0 0.9 -0.1
v 0 0.9 -0.2
v 0 1 0.3
v 0 1 0.2
v 0 1 0.1
v 0 1 0
v 0 1 -0.1
v 0 1 -0.2
v 0 1.1 0.2
v 0 1.1 0.1
v 0 1.1 0
v 0 1.1 -0.1
v 0 1.2 0.2
v 0 1.2 0.1
v 0 1.2 0
v 0 1.2 -0.1
v 0 1.3 0.1
v 0 1.3 0
v 0.1 0.1 0.1
v 0.1 0.1 0
v 0.1 0.2 0.1
v 0.1 0.2 0
v 0.1 0.8 0.1
v 0.1 0.8 0
v 0.1 0.9 0.1
v 0.1 0.9 0
v 0.1 1.1 0.1
v 0.1 1.1 0
v 0.1 1.2 0.1
v 0.1 1.2 0
v 0.2 0 0.1
v 0.2 0 0
v 0.2 0.1 0.1
v 0.2 0.1 0
v 0.2 0.9 0.1
v 0.2 0.9 0
v 0.2 1 0.1
v 0.2 1 0
v -0.1 0 0.3
v -0.1 0.1 0.3
v -0.1 0.9 0.3
v -0.1 1 0.3
v 0 0 0.3
v 0 0.1 0.3
v 0 0.9 0.3
v 0 1 0.3
v -0.1 0.1 0.2
v -0.1 0.2 0.2
v -0.1 0.8 0.2
v -0.1 0.9 0.2
v -0.1 1.1 0.2
v -0.1 1.2 0.2
v 0 0.1 0.2
v 0 0.2 0.2
v 0 0.8 0.2
v 0 0.9 0.2
v 0 1.1 0.2
v 0 1.2 0.2
v -0.3 0 0.1
v -0.3 0.1 0.1
v -0.3 0.9 0.1
v -0.3 1 0.1
v -0.2 0 0.1
v -0.2 0.1 0.1
v -0.2 0.2 0.1
v -0.2 0.8 0.1
v -0.2 0.9 0.1
v -0.2 1 0.1
v -0.2 1.1 0.1
v -0.2 1.2 0.1
v -0.1 0.1 0.1
v -0.1 0.2 0.1
v -0.1 0.3 0.1
v -0.1 0.4 0.1
v -0.1 0.5 0.1
v -0.1 0.6 0.1
v -0.1 0.8 0.1
v -0.1 0.9 0.1
v -0.1 1 0.1
v -0.1 1.1 0.1
v -0.1 1.2 0.1
v -0.1 1.3 0.1
v 0 0.1 0.1
v 0 0.2 0.1
v 0 0.3 0.1
v 0 0.4 0.1
v 0 0.5 0.1
v 0 0.6 0.1
v 0 0.8 0.1
v 0 0.9 0.1
v 0 1 0.1
v 0 1.1 0.1
v 0 1.2 0.1
v 0 1.3 0.1
v 0.1 0 0.1
v 0.1 0.1 0.1
v 0.1 0.2 0.1
v 0.1 0.8 0.1
v 0.1 0.9 0.1
v 0.1 1 0.1
v 0.1 1.1 0.1
v 0.1 1.2 0.1
v 0.2 0 0.1
v 0.2 0.1 0.1
v 0.2 0.9 0.1
v 0.2 1 0.1
v -0.1 0.1 0
v -0.1 0.2 0
v -0.1 0.8 0
v -0.1 0.9 0
v 0 0.1 0
v 0 0.2 0
v 0 0.8 0
v 0 0.9 0
v -0.1 0 -0.1
v -0.1 0.1 -0.1
v -0.1 0.9 -0.1
v -0.1 1 -0.1
v 0 0 -0.1
v 0 0.1 -0.1
v 0 0.9 -0.1
v 0 1 -0.1
v -0.1 0 0.2
v -0.1 0.1 0.2
v -0.1 0.9 0.2
v -0.1 1 0.2
v 0 0 0.2
v 0 0.1 0.2
v 0 0.9 0.2
v 0 1 0.2
v -0.1 0.1 0.1
v -0.1 0.2 0.1
v -0.1 0.8 0.1
v -0.1 0.9 0.1
v 0 0.1 0.1
v 0 0.2 0.1
v 0 0.8 0.1
v 0 0.9 0.1
v -0.3 0 0
v -0.3 0.1 0
v -0.3 0.9 0
v -0.3 1 0
v -0.2 0 0
v -0.2 0.1 0
v -0.2 0.2 0
v -0.2 0.8 0
v -0.2 0.9 0
v -0.2 1 0
v -0.2 1.1 0
v -0.2 1.2 0
v -0.1 0.1 0
v -0.1 0.2 0
v -0.1 0.3 0
v -0.1 0.4 0
v -0.1 0.5 0
v -0.1 0.6 0
v -0.1 0.8 0
v -0.1 0.9 0
v -0.1 1 0
v -0.1 1.1 0
v -0.1 1.2 0
v -0.1 1.3 0
v 0 0.1 0
v 0 0.2 0
v 0 0.3 0
v 0 0.4 0
v 0 0.5 0
v 0 0.6 0
v 0 0.8 0
v 0 0.9 0
v 0 1 0
v 0 1.1 0
v 0 1.2 0
v 0 1.3 0
v 0.1 0 0
v 0.1 0.1 0
v 0.1 0.2 0
v 0.1 0.8 0
v 0.1 0.9 0
v 0.1 1 0
v 0.1 1.1 0
v 0.1 1.2 0
v 0.2 0 0
v 0.2 0.1 0
v 0.2 0.9 0
v 0.2 1 0
v -0.1 0.1 -0.1
v -0.1 0.2 -0.1
v -0.1 0.8 -0.1
v -0.1 0.9 -0.1
v -0.1 1.1 -0.1
v -0.1 1.2 -0.1
v 0 0.1 -0.1
v 0 0.2 -0.1
v 0 0.8 -0.1
v 0 0.9 -0.1
v 0 1.1 -0.1
v 0 1.2 -0.1
v -0.1 0 -0.2
v -0.1 0.1 -0.2
v -0.1 0.9 -0.2
v -0.1 1 -0.2
v 0 0 -0.2
v 0 0.1 -0.2
v 0 0.9 -0.2
v 0 1 -0.2
v -0.1 0 0.3
v 0 0 0.3
v -0.1 0 0.2
v 0 0 0.2
v -0.3 0 0.1
v -0.2 0 0.1
v 0.1 0 0.1
v 0.2 0 0.1
v -0.3 0 0
v -0.2 0 0
v 0.1 0 0
v 0.2 0 0
v -0.1 0 -0.1
v 0 0 -0.1
v -0.1 0 -0.2
v 0 0 -0.2
v -0.1 0.1 0.2
v 0 0.1 0.2
v -0.2 0.1 0.1
v -0.1 0.1 0.1
v 0 0.1 0.1
v 0.1 0.1 0.1
v -0.2 0.1 0
v -0.1 0.1 0
v 0 0.1 0
v 0.1 0.1 0
v -0.1 0.1 -0.1
v 0 0.1 -0.1
v -0.1 0.2 0.1
v 0 0.2 0.1
v -0.1 0.2 0
v 0 0.2 0
v -0.1 0.8 0.2
v 0 0.8 0.2
v -0.2 0.8 0.1
v -0.1 0.8 0.1
v 0 0.8 0.1
v 0.1 0.8 0.1
v -0.2 0.8 0
v -0.1 0.8 0
v 0 0.8 0
v 0.1 0.8 0
v -0.1 0.8 -0.1
v 0 0.8 -0.1
v -0.1 0.9 0.3
v 0 0.9 0.3
v -0.1 0.9 0.2
v 0 0.9 0.2
v -0.3 0.9 0.1
v -0.2 0.9 0.1
v 0.1 0.9 0.1
v 0.2 0.9 0.1
v -0.3 0.9 0
v -0.2 0.9 0
v 0.1 0.9 0
v 0.2 0.9 0
v -0.1 0.9 -0.1
v 0 0.9 -0.1
v -0.1 0.9 -0.2
v 0 0.9 -0.2
v -0.1 1 0.1
v 0 1 0.1
v -0.1 1 0
v 0 1 0
v -0.1 1.1 0.2
v 0 1.1 0.2
v -0.2 1.1 0.1
v -0.1 1.1 0.1
v 0 1.1 0.1
v 0.1 1.1 0.1
v -0.2 1.1 0
v -0.1 1.1 0
v 0 1.1 0
v 0.1 1.1 0
v -0.1 1.1 -0.1
v 0 1.1 -0.1
v -0.1 0.1 0.3
v 0 0.1 0.3
v -0.1 0.1 0.2
v 0 0.1 0.2
v -0.3 0.1 0.1
v -0.2 0.1 0.1
v 0.1 0.1 0.1
v 0.2 0.1 0.1
v -0.3 0.1 0
v -0.2 0.1 0
v 0.1 0.1 0
v 0.2 0.1 0
v -0.1 0.1 -0.1
v 0 0.1 -0.1
v -0.1 0.1 -0.2
v 0 0.1 -0.2
v -0.1 0.2 0.2
v 0 0.2 0.2
v -0.2 0.2 0.1
v -0.1 0.2 0.1
v 0 0.2 0.1
v 0.1 0.2 0.1
v -0.2 0.2 0
v -0.1 0.2 0
v 0 0.2 0
v 0.1 0.2 0
v -0.1 0.2 -0.1
v 0 0.2 -0.1
v -0.1 0.8 0.1
v 0 0.8 0.1
v -0.1 0.8 0
v 0 0.8 0
v -0.1 0.9 0.2
v 0 0.9 0.2
v -0.2 0.9 0.1
v -0.1 0.9 0.1
v 0 0.9 0.1
v 0.1 0.9 0.1
v -0.2 0.9 0
v -0.1 0.9 0
v 0 0.9 0
v 0.1 0.9 0
v -0.1 0.9 -0.1
v 0 0.9 -0.1
v -0.1 1 0.3
v 0 1 0.3
v -0.1 1 0.2
v 0 1 0.2
v -0.3 1 0.1
v -0.2 1 0.1
v 0.1 1 0.1
v 0.2 1 0.1
v -0.3 1 0
v -0.2 1 0
v 0.1 1 0
v 0.2 1 0
v -0.1 1 -0.1
v 0 1 -0.1
v -0.1 1 -0.2
v 0 1 -0.2
v -0.1 1.2 0.2
v 0 1.2 0.2
v -0.2 1.2 0.1
v -0.1 1.2 0.1
v 0 1.2 0.1
v 0.1 1.2 0.1
v -0.2 1.2 0
v -0.1 1.2 0
v 0 1.2 0
v 0.1 1.2 0
v -0.1 1.2 -0.1
v 0 1.2 -0.1
v -0.1 1.3 0.1
v 0 1.3 0.1
v -0.1 1.3 0
v 0 1.3 0

# faces
f 3/6/1 2/6/1 1/6/1
f 4/6/1 2/6/1 3/6/1
f 7/5/1 6/5/1 5/5/1
f 8/5/1 6/5/1 7/5/1
f 11/5/1 10/5/1 9/5/1
f 12/5/1 10/5/1 11/5/1
f 15/6/1 14/6/1 13/6/1
f 16/6/1 14/6/1 15/6/1
f 19/1/1 18/1/1 17/1/1
f 20/1/1 18/1/1 19/1/1
f 25/6/1 22/6/1 21/6/1
f 26/6/1 22/6/1 25/6/1
f 29/6/1 24/6/1 23/6/1
f 30/6/1 24/6/1 29/6/1
f 31/5/1 27/5/1 26/5/1
f 32/5/1 27/5/1 31/5/1
f 33/5/1 29/5/1 28/5/1
f 34/5/1 29/5/1 33/5/1
f 35/2/1 33/2/1 32/2/1
f 36/2/1 33/2/1 35/2/1
f 37/3/1 36/3/1 35/3/1
f 38/3/1 36/3/1 37/3/1
f 39/2/1 38/2/1 37/2/1
f 40/2/1 38/2/1 39/2/1
f 41/3/1 40/3/1 39/3/1
f 42/3/1 40/3/1 41/3/1
f 44/2/1 42/2/1 41/2/1
f 45/2/1 42/2/1 44/2/1
f 48/6/1 44/6/1 43/6/1
f 49/6/1 44/6/1 48/6/1
f 50/6/1 46/6/1 45/6/1
f 51/6/1 46/6/1 50/6/1
f 53/5/1 48/5/1 47/5/1
f 54/5/1 48/5/1 53/5/1
f 57/5/1 52/5/1 51/5/1
f 58/5/1 52/5/1 57/5/1
f 60/1/1 56/1/1 55/1/1
f 61/1/1 56/1/1 60/1/1
f 63/1/1 60/1/1 59/1/1
f 64/1/1 60/1/1 63/1/1
f 65/1/1 62/1/1 61/1/1
f 66/1/1 62/1/1 65/1/1
f 67/4/1 65/4/1 64/4/1
f 68/4/1 65/4/1 67/4/1
f 71/5/1 70/5/1 69/5/1
f 72/5/1 70/5/1 71/5/1
f 75/6/1 74/6/1 73/6/1
f 76/6/1 74/6/1 75/6/1
f 79/6/1 78/6/1 77/6/1
f 80/6/1 78/6/1 79/6/1
f 83/5/1 82/5/1 81/5/1
f 84/5/1 82/5/1 83/5/1
f 85/6/2 86/6/2 87/6/2
f 87/6/2 86/6/2 88/6/2
f 89/5/2 90/5/2 91/5/2
f 91/5/2 90/5/2 92/5/2
f 93/5/2 94/5/2 95/5/2
f 95/5/2 94/5/2 96/5/2
f 97/6/2 98/6/2 99/6/2
f 99/6/2 98/6/2 100/6/2
f 101/6/2 102/6/2 105/6/2
f 105/6/2 102/6/2 106/6/2
f 103/6/2 104/6/2 109/6/2
f 109/6/2 104/6/2 110/6/2
f 106/5/2 107/5/2 111/5/2
f 111/5/2 107/5/2 112/5/2
f 108/5/2 109/5/2 113/5/2
f 113/5/2 109/5/2 114/5/2
f 112/2/2 113/2/2 115/2/2
f 115/2/2 113/2/2 116/2/2
f 115/3/2 116/3/2 117/3/2
f 117/3/2 116/3/2 118/3/2
f 117/2/2 118/2/2 119/2/2
f 119/2/2 118/2/2 120/2/2
f 119/3/2 120/3/2 121/3/2
f 121/3/2 120/3/2 122/3/2
f 121/2/2 122/2/2 124/2/2
f 124/2/2 122/2/2 125/2/2
f 123/6/2 124/6/2 128/6/2
f 128/6/2 124/6/2 129/6/2
f 125/6/2 126/6/2 130/6/2
f 130/6/2 126/6/2 131/6/2
f 127/5/2 128/5/2 133/5/2
f 133/5/2 128/5/2 134/5/2
f 131/5/2 132/5/2 137/5/2
f 137/5/2 132/5/2 138/5/2
f 135/1/2 136/1/2 140/1/2
f 140/1/2 136/1/2 141/1/2
f 139/1/2 140/1/2 143/1/2
f 143/1/2 140/1/2 144/1/2
f 141/1/2 142/1/2 145/1/2
f 145/1/2 142/1/2 146/1/2
f 144/4/2 145/4/2 147/4/2
f 147/4/2 145/4/2 148/4/2
f 149/5/2 150/5/2 151/5/2
f 151/5/2 150/5/2 152/5/2
f 153/6/2 154/6/2 155/6/2
f 155/6/2 154/6/2 156/6/2
f 157/1/2 158/1/2 159/1/2
f 159/1/2 158/1/2 160/1/2
f 161/6/2 162/6/2 163/6/2
f 163/6/2 162/6/2 164/6/2
f 165/5/2 166/5/2 167/5/2
f 167/5/2 166/5/2 168/5/2
f 173/6/3 170/6/3 169/6/3
f 174/6/3 170/6/3 173/6/3
f 175/5/3 172/5/3 171/5/3
f 176/5/3 172/5/3 175/5/3
f 183/5/3 178/5/3 177/5/3
f 184/5/3 178/5/3 183/5/3
f 185/6/3 180/6/3 179/6/3
f 186/6/3 180/6/3 185/6/3
f 187/1/3 182/1/3 181/1/3
f 188/1/3 182/1/3 187/1/3
f 193/6/3 190/6/3 189/6/3
f 194/6/3 190/6/3 193/6/3
f 197/5/3 192/5/3 191/5/3
f 198/5/3 192/5/3 197/5/3
f 201/5/3 195/5/3 194/5/3
f 202/5/3 195/5/3 201/5/3
f 207/6/3 197/6/3 196/6/3
f 208/6/3 197/6/3 207/6/3
f 210/1/3 200/1/3 199/1/3
f 211/1/3 200/1/3 210/1/3
f 214/2/3 203/2/3 202/2/3
f 215/3/3 204/3/3 203/3/3
f 215/2/3 203/2/3 214/2/3
f 216/2/3 205/2/3 204/2/3
f 216/3/3 204/3/3 215/3/3
f 217/3/3 206/3/3 205/3/3
f 217/2/3 205/2/3 216/2/3
f 218/2/3 207/2/3 206/2/3
f 218/3/3 206/3/3 217/3/3
f 219/2/3 207/2/3 218/2/3
f 221/1/3 210/1/3 209/1/3
f 222/1/3 210/1/3 221/1/3
f 223/4/3 212/4/3 211/4/3
f 224/4/3 212/4/3 223/4/3
f 226/5/3 214/5/3 213/5/3
f 227/5/3 214/5/3 226/5/3
f 228/6/3 220/6/3 219/6/3
f 229/6/3 220/6/3 228/6/3
f 231/1/3 223/1/3 222/1/3
f 232/1/3 223/1/3 231/1/3
f 233/6/3 226/6/3 225/6/3
f 234/6/3 226/6/3 233/6/3
f 235/5/3 230/5/3 229/5/3
f 236/5/3 230/5/3 235/5/3
f 241/5/3 238/5/3 237/5/3
f 242/5/3 238/5/3 241/5/3
f 243/6/3 240/6/3 239/6/3
f 244/6/3 240/6/3 243/6/3
f 249/6/3 246/6/3 245/6/3
f 250/6/3 246/6/3 249/6/3
f 251/5/3 248/5/3 247/5/3
f 252/5/3 248/5/3 251/5/3
f 253/6/4 254/6/4 257/6/4
f 257/6/4 254/6/4 258/6/4
f 255/5/4 256/5/4 259/5/4
f 259/5/4 256/5/4 260/5/4
f 261/5/4 262/5/4 265/5/4
f 265/5/4 262/5/4 266/5/4
f 263/6/4 264/6/4 267/6/4
f 267/6/4 264/6/4 268/6/4
f 269/6/4 270/6/4 273/6/4
f 273/6/4 270/6/4 274/6/4
f 271/5/4 272/5/4 277/5/4
f 277/5/4 272/5/4 278/5/4
f 274/5/4 275/5/4 281/5/4
f 281/5/4 275/5/4 282/5/4
f 276/6/4 277/6/4 287/6/4
f 287/6/4 277/6/4 288/6/4
f 279/1/4 280/1/4 290/1/4
f 290/1/4 280/1/4 291/1/4
f 282/2/4 283/2/4 294/2/4
f 283/3/4 284/3/4 295/3/4
f 294/2/4 283/2/4 295/2/4
f 284/2/4 285/2/4 296/2/4
f 295/3/4 284/3/4 296/3/4
f 285/3/4 286/3/4 297/3/4
f 296/2/4 285/2/4 297/2/4
f 286/2/4 287/2/4 298/2/4
f 297/3/4 286/3/4 298/3/4
f 298/2/4 287/2/4 299/2/4
f 289/1/4 290/1/4 301/1/4
f 301/1/4 290/1/4 302/1/4
f 291/4/4 292/4/4 303/4/4
f 303/4/4 292/4/4 304/4/4
f 293/5/4 294/5/4 306/5/4
f 306/5/4 294/5/4 307/5/4
f 299/6/4 300/6/4 308/6/4
f 308/6/4 300/6/4 309/6/4
f 302/1/4 303/1/4 311/1/4
f 311/1/4 303/1/4 312/1/4
f 305/6/4 306/6/4 313/6/4
f 313/6/4 306/6/4 314/6/4
f 309/5/4 310/5/4 315/5/4
f 315/5/4 310/5/4 316/5/4
f 317/5/4 318/5/4 323/5/4
f 323/5/4 318/5/4 324/5/4
f 319/6/4 320/6/4 325/6/4
f 325/6/4 320/6/4 326/6/4
f 321/1/4 322/1/4 327/1/4
f 327/1/4 322/1/4 328/1/4
f 329/6/4 330/6/4 333/6/4
f 333/6/4 330/6/4 334/6/4
f 331/5/4 332/5/4 335/5/4
f 335/5/4 332/5/4 336/5/4
f 339/6/5 338/6/5 337/6/5
f 340/6/5 338/6/5 339/6/5
f 345/6/5 342/6/5 341/6/5
f 346/6/5 342/6/5 345/6/5
f 347/6/5 344/6/5 343/6/5
f 348/6/5 344/6/5 347/6/5
f 351/6/5 350/6/5 349/6/5
f 352/6/5 350/6/5 351/6/5
f 356/5/5 354/5/5 353/5/5
f 357/5/5 354/5/5 356/5/5
f 359/5/5 356/5/5 355/5/5
f 360/5/5 356/5/5 359/5/5
f 361/5/5 358/5/5 357/5/5
f 362/5/5 358/5/5 361/5/5
f 363/5/5 361/5/5 360/5/5
f 364/5/5 361/5/5 363/5/5
f 367/2/5 366/2/5 365/2/5
f 368/2/5 366/2/5 367/2/5
f 372/6/5 370/6/5 369/6/5
f 373/6/5 370/6/5 372/6/5
f 375/6/5 372/6/5 371/6/5
f 376/6/5 372/6/5 375/6/5
f 377/6/5 374/6/5 373/6/5
f 378/6/5 374/6/5 377/6/5
f 379/6/5 377/6/5 376/6/5
f 380/6/5 377/6/5 379/6/5
f 383/5/5 382/5/5 381/5/5
f 384/5/5 382/5/5 383/5/5
f 389/5/5 386/5/5 385/5/5
f 390/5/5 386/5/5 389/5/5
f 391/5/5 388/5/5 387/5/5
f 392/5/5 388/5/5 391/5/5
f 395/5/5 394/5/5 393/5/5
f 396/5/5 394/5/5 395/5/5
f 399/1/5 398/1/5 397/1/5
f 400/1/5 398/1/5 399/1/5
f 404/1/5 402/1/5 401/1/5
f 405/1/5 402/1/5 404/1/5
f 407/1/5 404/1/5 403/1/5
f 408/1/5 404/1/5 407/1/5
f 409/1/5 406/1/5 405/1/5
f 410/1/5 406/1/5 409/1/5
f 411/1/5 409/1/5 408/1/5
f 412/1/5 409/1/5 411/1/5
f 413/6/6 414/6/6 415/6/6
f 415/6/6 414/6/6 416/6/6
f 417/6/6 418/6/6 421/6/6
f 421/6/6 418/6/6 422/6/6
f 419/6/6 420/6/6 423/6/6
f 423/6/6 420/6/6 424/6/6
f 425/6/6 426/6/6 427/6/6
f 427/6/6 426/6/6 428/6/6
f 429/5/6 430/5/6 432/5/6
f 432/5/6 430/5/6 433/5/6
f 431/5/6 432/5/6 435/5/6
f 435/5/6 432/5/6 436/5/6
f 433/5/6 434/5/6 437/5/6
f 437/5/6 434/5/6 438/5/6
f 436/5/6 437/5/6 439/5/6
f 439/5/6 437/5/6 440/5/6
f 441/2/6 442/2/6 443/2/6
f 443/2/6 442/2/6 444/2/6
f 445/6/6 446/6/6 448/6/6
f 448/6/6 446/6/6 449/6/6
f 447/6/6 448/6/6 451/6/6
f 451/6/6 448/6/6 452/6/6
f 449/6/6 450/6/6 453/6/6
f 453/6/6 450/6/6 454/6/6
f 452/6/6 453/6/6 455/6/6
f 455/6/6 453/6/6 456/6/6
f 457/5/6 458/5/6 459/5/6
f 459/5/6 458/5/6 460/5/6
f 461/5/6 462/5/6 465/5/6
f 465/5/6 462/5/6 466/5/6
f 463/5/6 464/5/6 467/5/6
f 467/5/6 464/5/6 468/5/6
f 469/5/6 470/5/6 471/5/6
f 471/5/6 470/5/6 472/5/6
f 473/1/6 474/1/6 476/1/6
f 476/1/6 474/1/6 477/1/6
f 475/1/6 476/1/6 479/1/6
f 479/1/6 476/1/6 480/1/6
f 477/1/6 478/1/6 481/1/6
f 481/1/6 478/1/6 482/1/6
f 480/1/6 481/1/6 483/1/6
f 483/1/6 481/1/6 484/1/6
f 485/4/6 486/4/6 487/4/6
f 487/4/6 486/4/6 488/4/6
