# MagicaVoxel @ Ephtracy

# group
o 

# material
mtllib Pocimas.mtl
usemtl palette

# normals
vn -1 0 0
vn 1 0 0
vn 0 0 1
vn 0 0 -1
vn 0 -1 0
vn 0 1 0

# texcoords
vt 0.0605469 0.5
vt 0.333984 0.5
vt 0.583984 0.5
vt 0.744141 0.5

# verts
v -0.4 0 0
v -0.4 0 -0.2
v -0.4 0.2 0
v -0.4 0.2 -0.1
v -0.4 0.2 -0.2
v -0.4 0.3 -0.1
v -0.4 0.3 -0.2
v -0.3 0 0.3
v -0.3 0 0.1
v -0.3 0.2 0.2
v -0.3 0.2 0.1
v -0.3 0.4 0.3
v -0.3 0.4 0.2
v -0.3 0.5 0.3
v -0.3 0.5 0.2
v -0.1 0 0
v -0.1 0 -0.2
v -0.1 0.3 0
v -0.1 0.3 -0.2
v 0 0.3 0
v 0 0.3 -0.1
v 0 0.4 0
v 0 0.4 -0.1
v -0.3 0.2 -0.1
v -0.3 0.2 -0.2
v -0.3 0.3 -0.1
v -0.3 0.3 -0.2
v -0.2 0 0
v -0.2 0 -0.2
v -0.2 0.1 0.2
v -0.2 0.1 0.1
v -0.2 0.2 0.3
v -0.2 0.2 0.2
v -0.2 0.2 0.1
v -0.2 0.2 0
v -0.2 0.2 -0.2
v -0.2 0.4 0.3
v -0.2 0.4 0.2
v -0.2 0.5 0.3
v -0.2 0.5 0.2
v -0.1 0 0.3
v -0.1 0 0.1
v -0.1 0.1 0.2
v -0.1 0.1 0.1
v -0.1 0.2 0.3
v -0.1 0.2 0.2
v 0.1 0 0
v 0.1 0 -0.2
v 0.1 0.3 0
v 0.1 0.3 -0.1
v 0.1 0.3 -0.2
v 0.1 0.4 0
v 0.1 0.4 -0.1
v -0.3 0 0.3
v -0.3 0.4 0.3
v -0.3 0.5 0.3
v -0.2 0.2 0.3
v -0.2 0.4 0.3
v -0.2 0.5 0.3
v -0.1 0 0.3
v -0.1 0.2 0.3
v -0.4 0 0
v -0.4 0.2 0
v -0.2 0 0
v -0.2 0.2 0
v -0.1 0 0
v -0.1 0.3 0
v 0 0.3 0
v 0 0.4 0
v 0.1 0 0
v 0.1 0.3 0
v 0.1 0.4 0
v -0.4 0.2 -0.1
v -0.4 0.3 -0.1
v -0.3 0.2 -0.1
v -0.3 0.3 -0.1
v -0.3 0.2 0.2
v -0.3 0.4 0.2
v -0.3 0.5 0.2
v -0.2 0.1 0.2
v -0.2 0.2 0.2
v -0.2 0.4 0.2
v -0.2 0.5 0.2
v -0.1 0.1 0.2
v -0.1 0.2 0.2
v -0.3 0 0.1
v -0.3 0.2 0.1
v -0.2 0.1 0.1
v -0.2 0.2 0.1
v -0.1 0 0.1
v -0.1 0.1 0.1
v 0 0.3 -0.1
v 0 0.4 -0.1
v 0.1 0.3 -0.1
v 0.1 0.4 -0.1
v -0.4 0 -0.2
v -0.4 0.2 -0.2
v -0.4 0.3 -0.2
v -0.3 0.2 -0.2
v -0.3 0.3 -0.2
v -0.2 0 -0.2
v -0.2 0.2 -0.2
v -0.1 0 -0.2
v -0.1 0.3 -0.2
v 0.1 0 -0.2
v 0.1 0.3 -0.2
v -0.3 0 0.3
v -0.1 0 0.3
v -0.3 0 0.1
v -0.1 0 0.1
v -0.4 0 0
v -0.2 0 0
v -0.1 0 0
v 0.1 0 0
v -0.4 0 -0.2
v -0.2 0 -0.2
v -0.1 0 -0.2
v 0.1 0 -0.2
v -0.2 0.1 0.2
v -0.1 0.1 0.2
v -0.2 0.1 0.1
v -0.1 0.1 0.1
v -0.2 0.2 0.3
v -0.1 0.2 0.3
v -0.3 0.2 0.2
v -0.2 0.2 0.2
v -0.1 0.2 0.2
v -0.3 0.2 0.1
v -0.2 0.2 0.1
v -0.4 0.2 0
v -0.2 0.2 0
v -0.4 0.2 -0.1
v -0.3 0.2 -0.1
v -0.3 0.2 -0.2
v -0.2 0.2 -0.2
v -0.1 0.3 0
v 0 0.3 0
v -0.4 0.3 -0.1
v -0.3 0.3 -0.1
v 0 0.3 -0.1
v 0.1 0.3 -0.1
v -0.4 0.3 -0.2
v -0.3 0.3 -0.2
v -0.1 0.3 -0.2
v 0.1 0.3 -0.2
v 0 0.4 0
v 0.1 0.4 0
v 0 0.4 -0.1
v 0.1 0.4 -0.1
v -0.3 0.5 0.3
v -0.2 0.5 0.3
v -0.3 0.5 0.2
v -0.2 0.5 0.2

# faces
f 3/4/1 2/4/1 1/4/1
f 4/4/1 2/4/1 3/4/1
f 5/4/1 2/4/1 4/4/1
f 6/2/1 5/2/1 4/2/1
f 7/2/1 5/2/1 6/2/1
f 10/3/1 9/3/1 8/3/1
f 11/3/1 9/3/1 10/3/1
f 12/3/1 10/3/1 8/3/1
f 13/3/1 10/3/1 12/3/1
f 14/2/1 13/2/1 12/2/1
f 15/2/1 13/2/1 14/2/1
f 18/1/1 17/1/1 16/1/1
f 19/1/1 17/1/1 18/1/1
f 22/2/1 21/2/1 20/2/1
f 23/2/1 21/2/1 22/2/1
f 24/2/2 25/2/2 26/2/2
f 26/2/2 25/2/2 27/2/2
f 30/3/2 31/3/2 33/3/2
f 33/3/2 31/3/2 34/3/2
f 28/4/2 29/4/2 35/4/2
f 35/4/2 29/4/2 36/4/2
f 32/3/2 33/3/2 37/3/2
f 37/3/2 33/3/2 38/3/2
f 37/2/2 38/2/2 39/2/2
f 39/2/2 38/2/2 40/2/2
f 41/3/2 42/3/2 43/3/2
f 43/3/2 42/3/2 44/3/2
f 41/3/2 43/3/2 45/3/2
f 45/3/2 43/3/2 46/3/2
f 47/1/2 48/1/2 49/1/2
f 49/1/2 48/1/2 50/1/2
f 50/1/2 48/1/2 51/1/2
f 49/2/2 50/2/2 52/2/2
f 52/2/2 50/2/2 53/2/2
f 57/3/3 55/3/3 54/3/3
f 58/2/3 56/2/3 55/2/3
f 58/3/3 55/3/3 57/3/3
f 59/2/3 56/2/3 58/2/3
f 60/3/3 57/3/3 54/3/3
f 61/3/3 57/3/3 60/3/3
f 64/4/3 63/4/3 62/4/3
f 65/4/3 63/4/3 64/4/3
f 68/1/3 67/1/3 66/1/3
f 70/1/3 68/1/3 66/1/3
f 71/2/3 69/2/3 68/2/3
f 71/1/3 68/1/3 70/1/3
f 72/2/3 69/2/3 71/2/3
f 75/2/3 74/2/3 73/2/3
f 76/2/3 74/2/3 75/2/3
f 77/3/4 78/3/4 81/3/4
f 78/2/4 79/2/4 82/2/4
f 81/3/4 78/3/4 82/3/4
f 82/2/4 79/2/4 83/2/4
f 80/3/4 81/3/4 84/3/4
f 84/3/4 81/3/4 85/3/4
f 86/3/4 87/3/4 88/3/4
f 88/3/4 87/3/4 89/3/4
f 86/3/4 88/3/4 90/3/4
f 90/3/4 88/3/4 91/3/4
f 92/2/4 93/2/4 94/2/4
f 94/2/4 93/2/4 95/2/4
f 96/4/4 97/4/4 99/4/4
f 97/2/4 98/2/4 99/2/4
f 99/2/4 98/2/4 100/2/4
f 96/4/4 99/4/4 101/4/4
f 101/4/4 99/4/4 102/4/4
f 103/1/4 104/1/4 105/1/4
f 105/1/4 104/1/4 106/1/4
f 109/3/5 108/3/5 107/3/5
f 110/3/5 108/3/5 109/3/5
f 115/4/5 112/4/5 111/4/5
f 116/4/5 112/4/5 115/4/5
f 117/1/5 114/1/5 113/1/5
f 118/1/5 114/1/5 117/1/5
f 119/3/6 120/3/6 121/3/6
f 121/3/6 120/3/6 122/3/6
f 123/3/6 124/3/6 126/3/6
f 126/3/6 124/3/6 127/3/6
f 125/3/6 126/3/6 128/3/6
f 128/3/6 126/3/6 129/3/6
f 130/4/6 131/4/6 132/4/6
f 132/4/6 131/4/6 133/4/6
f 133/4/6 131/4/6 134/4/6
f 134/4/6 131/4/6 135/4/6
f 136/1/6 137/1/6 140/1/6
f 138/2/6 139/2/6 142/2/6
f 142/2/6 139/2/6 143/2/6
f 140/1/6 141/1/6 144/1/6
f 136/1/6 140/1/6 144/1/6
f 144/1/6 141/1/6 145/1/6
f 146/2/6 147/2/6 148/2/6
f 148/2/6 147/2/6 149/2/6
f 150/2/6 151/2/6 152/2/6
f 152/2/6 151/2/6 153/2/6
