# MagicaVoxel @ Ephtracy

# group
o 

# material
mtllib Silla.mtl
usemtl palette

# normals
vn -1 0 0
vn 1 0 0
vn 0 0 1
vn 0 0 -1
vn 0 -1 0
vn 0 1 0

# texcoords
vt 0.158203 0.5
vt 0.220703 0.5
vt 0.255859 0.5

# verts
v -0.8 0.3 0.4
v -0.8 0.3 0.3
v -0.8 0.3 0.2
v -0.8 0.3 0
v -0.8 0.4 0.4
v -0.8 0.4 0.3
v -0.8 0.4 0.2
v -0.8 0.4 0
v -0.7 0.3 0.5
v -0.7 0.3 0.4
v -0.7 0.3 0.3
v -0.7 0.3 0.2
v -0.7 0.3 0
v -0.7 0.3 -0.1
v -0.7 0.4 0.5
v -0.7 0.4 0.4
v -0.7 0.4 0.3
v -0.7 0.4 0.2
v -0.7 0.4 0
v -0.7 0.4 -0.1
v -0.6 0 0.4
v -0.6 0 0.3
v -0.6 0 0
v -0.6 0 -0.1
v -0.6 0.3 0.4
v -0.6 0.3 0.3
v -0.6 0.3 0
v -0.6 0.3 -0.1
v -0.6 0.3 -0.2
v -0.6 0.4 -0.1
v -0.6 0.4 -0.2
v -0.3 0.3 0.4
v -0.3 0.3 0.3
v -0.3 0.3 0
v -0.3 0.3 -0.1
v -0.3 0.4 0.4
v -0.3 0.4 0.3
v -0.3 0.4 0
v -0.3 0.4 -0.1
v -0.2 0.3 0.5
v -0.2 0.3 0.4
v -0.2 0.3 -0.1
v -0.2 0.3 -0.2
v -0.2 0.4 0.5
v -0.2 0.4 0.4
v -0.2 0.4 -0.1
v -0.2 0.4 -0.2
v 0.2 0.3 0.4
v 0.2 0.3 0.3
v 0.2 0.4 0.4
v 0.2 0.4 0.3
v 0.3 0.3 0.5
v 0.3 0.3 0.4
v 0.3 0.3 0
v 0.3 0.3 -0.1
v 0.3 0.4 0.5
v 0.3 0.4 0.4
v 0.3 0.4 0
v 0.3 0.4 -0.1
v 0.4 0.3 -0.1
v 0.4 0.3 -0.2
v 0.4 0.4 -0.1
v 0.4 0.4 -0.2
v 0.5 0 0.4
v 0.5 0 0.3
v 0.5 0 0
v 0.5 0 -0.1
v 0.5 0.3 0.4
v 0.5 0.3 0.3
v 0.5 0.3 0
v 0.5 0.3 -0.1
v -0.5 0 0.4
v -0.5 0 0.3
v -0.5 0 0
v -0.5 0 -0.1
v -0.5 0.3 0.5
v -0.5 0.3 0.4
v -0.5 0.3 0.3
v -0.5 0.3 0
v -0.5 0.3 -0.1
v -0.5 0.3 -0.2
v -0.5 0.4 0.5
v -0.5 0.4 0.4
v -0.5 0.4 -0.1
v -0.5 0.4 -0.2
v -0.4 0.3 0.4
v -0.4 0.3 0.3
v -0.4 0.3 0
v -0.4 0.3 -0.1
v -0.4 0.4 0.4
v -0.4 0.4 0.3
v -0.4 0.4 0
v -0.4 0.4 -0.1
v 0 0.3 0.5
v 0 0.3 0.4
v 0 0.4 0.5
v 0 0.4 0.4
v 0.1 0.3 0.4
v 0.1 0.3 0.3
v 0.1 0.3 -0.1
v 0.1 0.3 -0.2
v 0.1 0.4 0.4
v 0.1 0.4 0.3
v 0.1 0.4 -0.1
v 0.1 0.4 -0.2
v 0.2 0.3 0
v 0.2 0.3 -0.1
v 0.2 0.4 0
v 0.2 0.4 -0.1
v 0.6 0 0.4
v 0.6 0 0.3
v 0.6 0 0
v 0.6 0 -0.1
v 0.6 0.3 0.5
v 0.6 0.3 0.4
v 0.6 0.3 0.3
v 0.6 0.3 0
v 0.6 0.3 -0.1
v 0.6 0.4 0.5
v 0.6 0.4 0.4
v 0.7 0.3 0.4
v 0.7 0.3 0.3
v 0.7 0.3 0.2
v 0.7 0.3 0.1
v 0.7 0.3 -0.1
v 0.7 0.3 -0.2
v 0.7 0.4 0.4
v 0.7 0.4 0.3
v 0.7 0.4 0.2
v 0.7 0.4 0.1
v 0.7 0.4 -0.1
v 0.7 0.4 -0.2
v 0.8 0.3 0.3
v 0.8 0.3 0.2
v 0.8 0.3 0.1
v 0.8 0.3 -0.1
v 0.8 0.4 0.3
v 0.8 0.4 0.2
v 0.8 0.4 0.1
v 0.8 0.4 -0.1
v -0.7 0.3 0.5
v -0.7 0.4 0.5
v -0.5 0.3 0.5
v -0.5 0.4 0.5
v -0.2 0.3 0.5
v -0.2 0.4 0.5
v 0 0.3 0.5
v 0 0.4 0.5
v 0.3 0.3 0.5
v 0.3 0.4 0.5
v 0.6 0.3 0.5
v 0.6 0.4 0.5
v -0.8 0.3 0.4
v -0.8 0.4 0.4
v -0.7 0.3 0.4
v -0.7 0.4 0.4
v -0.6 0 0.4
v -0.6 0.3 0.4
v -0.5 0 0.4
v -0.5 0.3 0.4
v -0.5 0.4 0.4
v -0.4 0.3 0.4
v -0.4 0.4 0.4
v -0.3 0.3 0.4
v -0.3 0.4 0.4
v -0.2 0.3 0.4
v -0.2 0.4 0.4
v 0 0.3 0.4
v 0 0.4 0.4
v 0.1 0.3 0.4
v 0.1 0.4 0.4
v 0.2 0.3 0.4
v 0.2 0.4 0.4
v 0.3 0.3 0.4
v 0.3 0.4 0.4
v 0.5 0 0.4
v 0.5 0.3 0.4
v 0.6 0 0.4
v 0.6 0.3 0.4
v 0.6 0.4 0.4
v 0.7 0.3 0.4
v 0.7 0.4 0.4
v -0.4 0.3 0.3
v -0.4 0.4 0.3
v -0.3 0.3 0.3
v -0.3 0.4 0.3
v 0.1 0.3 0.3
v 0.1 0.4 0.3
v 0.2 0.3 0.3
v 0.2 0.4 0.3
v 0.7 0.3 0.3
v 0.7 0.4 0.3
v 0.8 0.3 0.3
v 0.8 0.4 0.3
v -0.8 0.3 0.2
v -0.8 0.4 0.2
v -0.7 0.3 0.2
v -0.7 0.4 0.2
v 0.7 0.3 0.1
v 0.7 0.4 0.1
v 0.8 0.3 0.1
v 0.8 0.4 0.1
v -0.6 0 0
v -0.6 0.3 0
v -0.5 0 0
v -0.5 0.3 0
v 0.5 0 0
v 0.5 0.3 0
v 0.6 0 0
v 0.6 0.3 0
v -0.8 0.3 0.3
v -0.8 0.4 0.3
v -0.7 0.3 0.3
v -0.7 0.4 0.3
v -0.6 0 0.3
v -0.6 0.3 0.3
v -0.5 0 0.3
v -0.5 0.3 0.3
v 0.5 0 0.3
v 0.5 0.3 0.3
v 0.6 0 0.3
v 0.6 0.3 0.3
v 0.7 0.3 0.2
v 0.7 0.4 0.2
v 0.8 0.3 0.2
v 0.8 0.4 0.2
v -0.8 0.3 0
v -0.8 0.4 0
v -0.7 0.3 0
v -0.7 0.4 0
v -0.4 0.3 0
v -0.4 0.4 0
v -0.3 0.3 0
v -0.3 0.4 0
v 0.2 0.3 0
v 0.2 0.4 0
v 0.3 0.3 0
v 0.3 0.4 0
v -0.7 0.3 -0.1
v -0.7 0.4 -0.1
v -0.6 0 -0.1
v -0.6 0.3 -0.1
v -0.6 0.4 -0.1
v -0.5 0 -0.1
v -0.5 0.3 -0.1
v -0.5 0.4 -0.1
v -0.4 0.3 -0.1
v -0.4 0.4 -0.1
v -0.3 0.3 -0.1
v -0.3 0.4 -0.1
v -0.2 0.3 -0.1
v -0.2 0.4 -0.1
v 0.1 0.3 -0.1
v 0.1 0.4 -0.1
v 0.2 0.3 -0.1
v 0.2 0.4 -0.1
v 0.3 0.3 -0.1
v 0.3 0.4 -0.1
v 0.4 0.3 -0.1
v 0.4 0.4 -0.1
v 0.5 0 -0.1
v 0.5 0.3 -0.1
v 0.6 0 -0.1
v 0.6 0.3 -0.1
v 0.7 0.3 -0.1
v 0.7 0.4 -0.1
v 0.8 0.3 -0.1
v 0.8 0.4 -0.1
v -0.6 0.3 -0.2
v -0.6 0.4 -0.2
v -0.5 0.3 -0.2
v -0.5 0.4 -0.2
v -0.2 0.3 -0.2
v -0.2 0.4 -0.2
v 0.1 0.3 -0.2
v 0.1 0.4 -0.2
v 0.4 0.3 -0.2
v 0.4 0.4 -0.2
v 0.7 0.3 -0.2
v 0.7 0.4 -0.2
v -0.6 0 0.4
v -0.5 0 0.4
v 0.5 0 0.4
v 0.6 0 0.4
v -0.6 0 0.3
v -0.5 0 0.3
v 0.5 0 0.3
v 0.6 0 0.3
v -0.6 0 0
v -0.5 0 0
v 0.5 0 0
v 0.6 0 0
v -0.6 0 -0.1
v -0.5 0 -0.1
v 0.5 0 -0.1
v 0.6 0 -0.1
v -0.7 0.3 0.5
v -0.5 0.3 0.5
v -0.2 0.3 0.5
v 0 0.3 0.5
v 0.3 0.3 0.5
v 0.6 0.3 0.5
v -0.8 0.3 0.4
v -0.7 0.3 0.4
v -0.6 0.3 0.4
v -0.5 0.3 0.4
v -0.4 0.3 0.4
v -0.3 0.3 0.4
v -0.2 0.3 0.4
v -0.1 0.3 0.4
v 0 0.3 0.4
v 0.1 0.3 0.4
v 0.2 0.3 0.4
v 0.3 0.3 0.4
v 0.5 0.3 0.4
v 0.6 0.3 0.4
v 0.7 0.3 0.4
v -0.8 0.3 0.3
v -0.7 0.3 0.3
v -0.6 0.3 0.3
v -0.5 0.3 0.3
v -0.4 0.3 0.3
v -0.3 0.3 0.3
v -0.2 0.3 0.3
v -0.1 0.3 0.3
v 0 0.3 0.3
v 0.1 0.3 0.3
v 0.2 0.3 0.3
v 0.3 0.3 0.3
v 0.5 0.3 0.3
v 0.6 0.3 0.3
v 0.7 0.3 0.3
v 0.8 0.3 0.3
v -0.8 0.3 0.2
v -0.7 0.3 0.2
v -0.6 0.3 0.2
v -0.5 0.3 0.2
v -0.4 0.3 0.2
v -0.3 0.3 0.2
v -0.1 0.3 0.2
v 0 0.3 0.2
v 0.1 0.3 0.2
v 0.2 0.3 0.2
v 0.5 0.3 0.2
v 0.6 0.3 0.2
v 0.7 0.3 0.2
v 0.8 0.3 0.2
v -0.7 0.3 0.1
v -0.6 0.3 0.1
v -0.5 0.3 0.1
v -0.4 0.3 0.1
v -0.3 0.3 0.1
v 0.2 0.3 0.1
v 0.3 0.3 0.1
v 0.4 0.3 0.1
v 0.5 0.3 0.1
v 0.6 0.3 0.1
v 0.7 0.3 0.1
v 0.8 0.3 0.1
v -0.8 0.3 0
v -0.7 0.3 0
v -0.6 0.3 0
v -0.5 0.3 0
v -0.4 0.3 0
v -0.3 0.3 0
v -0.2 0.3 0
v -0.1 0.3 0
v 0 0.3 0
v 0.1 0.3 0
v 0.2 0.3 0
v 0.3 0.3 0
v 0.4 0.3 0
v 0.5 0.3 0
v 0.6 0.3 0
v 0.7 0.3 0
v -0.7 0.3 -0.1
v -0.6 0.3 -0.1
v -0.5 0.3 -0.1
v -0.4 0.3 -0.1
v -0.3 0.3 -0.1
v -0.2 0.3 -0.1
v -0.1 0.3 -0.1
v 0.1 0.3 -0.1
v 0.2 0.3 -0.1
v 0.3 0.3 -0.1
v 0.4 0.3 -0.1
v 0.5 0.3 -0.1
v 0.6 0.3 -0.1
v 0.7 0.3 -0.1
v 0.8 0.3 -0.1
v -0.6 0.3 -0.2
v -0.5 0.3 -0.2
v -0.2 0.3 -0.2
v 0.1 0.3 -0.2
v 0.4 0.3 -0.2
v 0.7 0.3 -0.2
v -0.7 0.4 0.5
v -0.5 0.4 0.5
v -0.2 0.4 0.5
v 0 0.4 0.5
v 0.3 0.4 0.5
v 0.6 0.4 0.5
v -0.8 0.4 0.4
v -0.7 0.4 0.4
v -0.6 0.4 0.4
v -0.5 0.4 0.4
v -0.4 0.4 0.4
v -0.3 0.4 0.4
v -0.2 0.4 0.4
v -0.1 0.4 0.4
v 0 0.4 0.4
v 0.1 0.4 0.4
v 0.2 0.4 0.4
v 0.3 0.4 0.4
v 0.5 0.4 0.4
v 0.6 0.4 0.4
v 0.7 0.4 0.4
v -0.8 0.4 0.3
v -0.7 0.4 0.3
v -0.6 0.4 0.3
v -0.5 0.4 0.3
v -0.4 0.4 0.3
v -0.3 0.4 0.3
v -0.2 0.4 0.3
v -0.1 0.4 0.3
v 0 0.4 0.3
v 0.1 0.4 0.3
v 0.2 0.4 0.3
v 0.3 0.4 0.3
v 0.5 0.4 0.3
v 0.6 0.4 0.3
v 0.7 0.4 0.3
v 0.8 0.4 0.3
v -0.8 0.4 0.2
v -0.7 0.4 0.2
v -0.6 0.4 0.2
v -0.5 0.4 0.2
v -0.4 0.4 0.2
v -0.3 0.4 0.2
v -0.1 0.4 0.2
v 0 0.4 0.2
v 0.1 0.4 0.2
v 0.2 0.4 0.2
v 0.5 0.4 0.2
v 0.6 0.4 0.2
v 0.7 0.4 0.2
v 0.8 0.4 0.2
v -0.7 0.4 0.1
v -0.6 0.4 0.1
v -0.5 0.4 0.1
v -0.4 0.4 0.1
v -0.3 0.4 0.1
v 0.2 0.4 0.1
v 0.3 0.4 0.1
v 0.4 0.4 0.1
v 0.5 0.4 0.1
v 0.6 0.4 0.1
v 0.7 0.4 0.1
v 0.8 0.4 0.1
v -0.8 0.4 0
v -0.7 0.4 0
v -0.6 0.4 0
v -0.5 0.4 0
v -0.4 0.4 0
v -0.3 0.4 0
v -0.2 0.4 0
v -0.1 0.4 0
v 0 0.4 0
v 0.1 0.4 0
v 0.2 0.4 0
v 0.3 0.4 0
v 0.4 0.4 0
v 0.5 0.4 0
v 0.6 0.4 0
v 0.7 0.4 0
v -0.7 0.4 -0.1
v -0.6 0.4 -0.1
v -0.5 0.4 -0.1
v -0.4 0.4 -0.1
v -0.3 0.4 -0.1
v -0.2 0.4 -0.1
v -0.1 0.4 -0.1
v 0.1 0.4 -0.1
v 0.2 0.4 -0.1
v 0.3 0.4 -0.1
v 0.4 0.4 -0.1
v 0.6 0.4 -0.1
v 0.7 0.4 -0.1
v 0.8 0.4 -0.1
v -0.6 0.4 -0.2
v -0.5 0.4 -0.2
v -0.2 0.4 -0.2
v 0.1 0.4 -0.2
v 0.4 0.4 -0.2
v 0.7 0.4 -0.2

# faces
f 5/3/1 2/3/1 1/3/1
f 6/3/1 2/3/1 5/3/1
f 7/3/1 4/3/1 3/3/1
f 8/3/1 4/3/1 7/3/1
f 15/3/1 10/3/1 9/3/1
f 16/3/1 10/3/1 15/3/1
f 17/3/1 12/3/1 11/3/1
f 18/3/1 12/3/1 17/3/1
f 19/3/1 14/3/1 13/3/1
f 20/3/1 14/3/1 19/3/1
f 25/1/1 22/1/1 21/1/1
f 26/1/1 22/1/1 25/1/1
f 27/1/1 24/1/1 23/1/1
f 28/1/1 24/1/1 27/1/1
f 30/3/1 29/3/1 28/3/1
f 31/3/1 29/3/1 30/3/1
f 36/3/1 33/3/1 32/3/1
f 37/3/1 33/3/1 36/3/1
f 38/3/1 35/3/1 34/3/1
f 39/3/1 35/3/1 38/3/1
f 44/3/1 41/3/1 40/3/1
f 45/3/1 41/3/1 44/3/1
f 46/3/1 43/3/1 42/3/1
f 47/3/1 43/3/1 46/3/1
f 50/3/1 49/3/1 48/3/1
f 51/3/1 49/3/1 50/3/1
f 56/3/1 53/3/1 52/3/1
f 57/3/1 53/3/1 56/3/1
f 58/3/1 55/3/1 54/3/1
f 59/3/1 55/3/1 58/3/1
f 62/3/1 61/3/1 60/3/1
f 63/3/1 61/3/1 62/3/1
f 68/1/1 65/1/1 64/1/1
f 69/1/1 65/1/1 68/1/1
f 70/1/1 67/1/1 66/1/1
f 71/1/1 67/1/1 70/1/1
f 72/1/2 73/1/2 77/1/2
f 77/1/2 73/1/2 78/1/2
f 74/1/2 75/1/2 79/1/2
f 79/1/2 75/1/2 80/1/2
f 76/3/2 77/3/2 82/3/2
f 82/3/2 77/3/2 83/3/2
f 80/3/2 81/3/2 84/3/2
f 84/3/2 81/3/2 85/3/2
f 86/3/2 87/3/2 90/3/2
f 90/3/2 87/3/2 91/3/2
f 88/3/2 89/3/2 92/3/2
f 92/3/2 89/3/2 93/3/2
f 94/3/2 95/3/2 96/3/2
f 96/3/2 95/3/2 97/3/2
f 98/3/2 99/3/2 102/3/2
f 102/3/2 99/3/2 103/3/2
f 100/3/2 101/3/2 104/3/2
f 104/3/2 101/3/2 105/3/2
f 106/3/2 107/3/2 108/3/2
f 108/3/2 107/3/2 109/3/2
f 110/1/2 111/1/2 115/1/2
f 115/1/2 111/1/2 116/1/2
f 112/1/2 113/1/2 117/1/2
f 117/1/2 113/1/2 118/1/2
f 114/3/2 115/3/2 119/3/2
f 119/3/2 115/3/2 120/3/2
f 121/3/2 122/3/2 127/3/2
f 127/3/2 122/3/2 128/3/2
f 123/3/2 124/3/2 129/3/2
f 129/3/2 124/3/2 130/3/2
f 125/3/2 126/3/2 131/3/2
f 131/3/2 126/3/2 132/3/2
f 133/3/2 134/3/2 137/3/2
f 137/3/2 134/3/2 138/3/2
f 135/3/2 136/3/2 139/3/2
f 139/3/2 136/3/2 140/3/2
f 143/3/3 142/3/3 141/3/3
f 144/3/3 142/3/3 143/3/3
f 147/3/3 146/3/3 145/3/3
f 148/3/3 146/3/3 147/3/3
f 151/3/3 150/3/3 149/3/3
f 152/3/3 150/3/3 151/3/3
f 155/3/3 154/3/3 153/3/3
f 156/3/3 154/3/3 155/3/3
f 159/1/3 158/1/3 157/1/3
f 160/1/3 158/1/3 159/1/3
f 162/3/3 161/3/3 160/3/3
f 163/3/3 161/3/3 162/3/3
f 166/3/3 165/3/3 164/3/3
f 167/3/3 165/3/3 166/3/3
f 170/3/3 169/3/3 168/3/3
f 171/3/3 169/3/3 170/3/3
f 174/3/3 173/3/3 172/3/3
f 175/3/3 173/3/3 174/3/3
f 178/1/3 177/1/3 176/1/3
f 179/1/3 177/1/3 178/1/3
f 181/3/3 180/3/3 179/3/3
f 182/3/3 180/3/3 181/3/3
f 185/3/3 184/3/3 183/3/3
f 186/3/3 184/3/3 185/3/3
f 189/3/3 188/3/3 187/3/3
f 190/3/3 188/3/3 189/3/3
f 193/3/3 192/3/3 191/3/3
f 194/3/3 192/3/3 193/3/3
f 197/3/3 196/3/3 195/3/3
f 198/3/3 196/3/3 197/3/3
f 201/3/3 200/3/3 199/3/3
f 202/3/3 200/3/3 201/3/3
f 205/1/3 204/1/3 203/1/3
f 206/1/3 204/1/3 205/1/3
f 209/1/3 208/1/3 207/1/3
f 210/1/3 208/1/3 209/1/3
f 211/3/4 212/3/4 213/3/4
f 213/3/4 212/3/4 214/3/4
f 215/1/4 216/1/4 217/1/4
f 217/1/4 216/1/4 218/1/4
f 219/1/4 220/1/4 221/1/4
f 221/1/4 220/1/4 222/1/4
f 223/3/4 224/3/4 225/3/4
f 225/3/4 224/3/4 226/3/4
f 227/3/4 228/3/4 229/3/4
f 229/3/4 228/3/4 230/3/4
f 231/3/4 232/3/4 233/3/4
f 233/3/4 232/3/4 234/3/4
f 235/3/4 236/3/4 237/3/4
f 237/3/4 236/3/4 238/3/4
f 239/3/4 240/3/4 242/3/4
f 242/3/4 240/3/4 243/3/4
f 241/1/4 242/1/4 244/1/4
f 244/1/4 242/1/4 245/1/4
f 245/3/4 246/3/4 247/3/4
f 247/3/4 246/3/4 248/3/4
f 249/3/4 250/3/4 251/3/4
f 251/3/4 250/3/4 252/3/4
f 253/3/4 254/3/4 255/3/4
f 255/3/4 254/3/4 256/3/4
f 257/3/4 258/3/4 259/3/4
f 259/3/4 258/3/4 260/3/4
f 261/1/4 262/1/4 263/1/4
f 263/1/4 262/1/4 264/1/4
f 265/3/4 266/3/4 267/3/4
f 267/3/4 266/3/4 268/3/4
f 269/3/4 270/3/4 271/3/4
f 271/3/4 270/3/4 272/3/4
f 273/3/4 274/3/4 275/3/4
f 275/3/4 274/3/4 276/3/4
f 277/3/4 278/3/4 279/3/4
f 279/3/4 278/3/4 280/3/4
f 285/1/5 282/1/5 281/1/5
f 286/1/5 282/1/5 285/1/5
f 287/1/5 284/1/5 283/1/5
f 288/1/5 284/1/5 287/1/5
f 293/1/5 290/1/5 289/1/5
f 294/1/5 290/1/5 293/1/5
f 295/1/5 292/1/5 291/1/5
f 296/1/5 292/1/5 295/1/5
f 304/3/5 298/3/5 297/3/5
f 305/3/5 298/3/5 304/3/5
f 306/3/5 298/3/5 305/3/5
f 309/3/5 300/3/5 299/3/5
f 310/3/5 300/3/5 309/3/5
f 311/3/5 300/3/5 310/3/5
f 314/3/5 302/3/5 301/3/5
f 315/3/5 302/3/5 314/3/5
f 316/3/5 302/3/5 315/3/5
f 318/3/5 304/3/5 303/3/5
f 319/1/5 305/1/5 304/1/5
f 319/3/5 304/3/5 318/3/5
f 320/1/5 305/1/5 319/1/5
f 321/3/5 307/3/5 306/3/5
f 322/3/5 307/3/5 321/3/5
f 323/3/5 309/3/5 308/3/5
f 324/1/5 310/1/5 309/1/5
f 324/3/5 309/3/5 323/3/5
f 325/2/5 311/2/5 310/2/5
f 325/1/5 310/1/5 324/1/5
f 326/3/5 312/3/5 311/3/5
f 326/2/5 311/2/5 325/2/5
f 327/3/5 312/3/5 326/3/5
f 328/3/5 314/3/5 313/3/5
f 329/1/5 315/1/5 314/1/5
f 329/3/5 314/3/5 328/3/5
f 330/1/5 315/1/5 329/1/5
f 331/3/5 317/3/5 316/3/5
f 332/3/5 317/3/5 331/3/5
f 335/3/5 320/3/5 319/3/5
f 336/1/5 321/1/5 320/1/5
f 336/3/5 320/3/5 335/3/5
f 337/2/5 322/2/5 321/2/5
f 337/1/5 321/1/5 336/1/5
f 338/3/5 323/3/5 322/3/5
f 338/2/5 322/2/5 337/2/5
f 339/2/5 325/2/5 324/2/5
f 339/3/5 323/3/5 338/3/5
f 339/2/5 324/2/5 323/2/5
f 339/2/5 326/2/5 325/2/5
f 340/2/5 326/2/5 339/2/5
f 341/1/5 327/1/5 326/1/5
f 341/2/5 326/2/5 340/2/5
f 342/3/5 328/3/5 327/3/5
f 342/1/5 327/1/5 341/1/5
f 343/2/5 330/2/5 329/2/5
f 343/3/5 328/3/5 342/3/5
f 343/2/5 329/2/5 328/2/5
f 344/1/5 331/1/5 330/1/5
f 344/2/5 330/2/5 343/2/5
f 345/2/5 332/2/5 331/2/5
f 345/1/5 331/1/5 344/1/5
f 346/3/5 333/3/5 332/3/5
f 346/2/5 332/2/5 345/2/5
f 347/3/5 333/3/5 346/3/5
f 348/2/5 336/2/5 335/2/5
f 348/2/5 337/2/5 336/2/5
f 348/3/5 335/3/5 334/3/5
f 349/2/5 337/2/5 348/2/5
f 350/1/5 338/1/5 337/1/5
f 350/2/5 337/2/5 349/2/5
f 350/1/5 339/1/5 338/1/5
f 351/1/5 339/1/5 350/1/5
f 352/2/5 340/2/5 339/2/5
f 352/1/5 339/1/5 351/1/5
f 353/2/5 344/2/5 343/2/5
f 353/2/5 342/2/5 341/2/5
f 353/2/5 345/2/5 344/2/5
f 353/2/5 343/2/5 342/2/5
f 354/2/5 345/2/5 353/2/5
f 355/2/5 345/2/5 354/2/5
f 356/2/5 345/2/5 355/2/5
f 357/3/5 346/3/5 345/3/5
f 357/2/5 345/2/5 356/2/5
f 358/3/5 346/3/5 357/3/5
f 360/3/5 348/3/5 334/3/5
f 361/1/5 349/1/5 348/1/5
f 361/3/5 348/3/5 360/3/5
f 362/2/5 351/2/5 350/2/5
f 362/1/5 349/1/5 361/1/5
f 362/2/5 350/2/5 349/2/5
f 363/2/5 351/2/5 362/2/5
f 364/3/5 352/3/5 351/3/5
f 364/2/5 351/2/5 363/2/5
f 365/2/5 340/2/5 352/2/5
f 365/3/5 352/3/5 364/3/5
f 366/2/5 340/2/5 365/2/5
f 367/1/5 341/1/5 340/1/5
f 367/2/5 340/2/5 366/2/5
f 368/2/5 353/2/5 341/2/5
f 368/1/5 341/1/5 367/1/5
f 369/2/5 353/2/5 368/2/5
f 370/3/5 354/3/5 353/3/5
f 370/2/5 353/2/5 369/2/5
f 371/1/5 355/1/5 354/1/5
f 371/3/5 354/3/5 370/3/5
f 372/2/5 356/2/5 355/2/5
f 372/1/5 355/1/5 371/1/5
f 373/1/5 357/1/5 356/1/5
f 373/2/5 356/2/5 372/2/5
f 374/2/5 358/2/5 357/2/5
f 374/1/5 357/1/5 373/1/5
f 375/3/5 359/3/5 358/3/5
f 375/2/5 358/2/5 374/2/5
f 376/3/5 362/3/5 361/3/5
f 377/3/5 362/3/5 376/3/5
f 378/3/5 364/3/5 363/3/5
f 379/3/5 364/3/5 378/3/5
f 380/3/5 366/3/5 365/3/5
f 381/1/5 367/1/5 366/1/5
f 381/3/5 366/3/5 380/3/5
f 382/2/5 368/2/5 367/2/5
f 382/1/5 367/1/5 381/1/5
f 382/2/5 369/2/5 368/2/5
f 383/3/5 370/3/5 369/3/5
f 383/2/5 369/2/5 382/2/5
f 384/3/5 370/3/5 383/3/5
f 385/3/5 372/3/5 371/3/5
f 386/2/5 373/2/5 372/2/5
f 386/3/5 372/3/5 385/3/5
f 387/2/5 373/2/5 386/2/5
f 388/1/5 375/1/5 374/1/5
f 389/3/5 359/3/5 375/3/5
f 389/1/5 375/1/5 388/1/5
f 390/3/5 359/3/5 389/3/5
f 391/3/5 378/3/5 377/3/5
f 392/3/5 378/3/5 391/3/5
f 393/3/5 383/3/5 382/3/5
f 393/3/5 382/3/5 381/3/5
f 394/3/5 383/3/5 393/3/5
f 395/3/5 388/3/5 387/3/5
f 395/3/5 389/3/5 388/3/5
f 395/3/5 387/3/5 386/3/5
f 396/3/5 389/3/5 395/3/5
f 397/3/6 398/3/6 404/3/6
f 404/3/6 398/3/6 405/3/6
f 405/3/6 398/3/6 406/3/6
f 399/3/6 400/3/6 409/3/6
f 409/3/6 400/3/6 410/3/6
f 410/3/6 400/3/6 411/3/6
f 401/3/6 402/3/6 414/3/6
f 414/3/6 402/3/6 415/3/6
f 415/3/6 402/3/6 416/3/6
f 403/3/6 404/3/6 418/3/6
f 404/1/6 405/1/6 419/1/6
f 418/3/6 404/3/6 419/3/6
f 405/2/6 406/2/6 420/2/6
f 419/1/6 405/1/6 420/1/6
f 406/3/6 407/3/6 421/3/6
f 420/2/6 406/2/6 421/2/6
f 421/3/6 407/3/6 422/3/6
f 408/3/6 409/3/6 423/3/6
f 409/1/6 410/1/6 424/1/6
f 423/3/6 409/3/6 424/3/6
f 410/2/6 411/2/6 425/2/6
f 424/1/6 410/1/6 425/1/6
f 411/3/6 412/3/6 426/3/6
f 425/2/6 411/2/6 426/2/6
f 426/3/6 412/3/6 427/3/6
f 413/3/6 414/3/6 428/3/6
f 414/1/6 415/1/6 429/1/6
f 428/3/6 414/3/6 429/3/6
f 415/2/6 416/2/6 430/2/6
f 429/1/6 415/1/6 430/1/6
f 416/3/6 417/3/6 431/3/6
f 430/2/6 416/2/6 431/2/6
f 431/3/6 417/3/6 432/3/6
f 419/3/6 420/3/6 435/3/6
f 420/1/6 421/1/6 436/1/6
f 435/3/6 420/3/6 436/3/6
f 421/2/6 422/2/6 437/2/6
f 436/1/6 421/1/6 437/1/6
f 422/3/6 423/3/6 438/3/6
f 437/2/6 422/2/6 438/2/6
f 424/2/6 425/2/6 439/2/6
f 438/3/6 423/3/6 439/3/6
f 423/2/6 424/2/6 439/2/6
f 425/2/6 426/2/6 439/2/6
f 439/2/6 426/2/6 440/2/6
f 426/1/6 427/1/6 441/1/6
f 440/2/6 426/2/6 441/2/6
f 427/3/6 428/3/6 442/3/6
f 441/1/6 427/1/6 442/1/6
f 429/2/6 430/2/6 443/2/6
f 442/3/6 428/3/6 443/3/6
f 428/2/6 429/2/6 443/2/6
f 430/1/6 431/1/6 444/1/6
f 443/2/6 430/2/6 444/2/6
f 431/2/6 432/2/6 445/2/6
f 444/1/6 431/1/6 445/1/6
f 432/3/6 433/3/6 446/3/6
f 445/2/6 432/2/6 446/2/6
f 446/3/6 433/3/6 447/3/6
f 435/2/6 436/2/6 448/2/6
f 436/2/6 437/2/6 448/2/6
f 434/3/6 435/3/6 448/3/6
f 448/2/6 437/2/6 449/2/6
f 437/1/6 438/1/6 450/1/6
f 449/2/6 437/2/6 450/2/6
f 438/1/6 439/1/6 450/1/6
f 450/1/6 439/1/6 451/1/6
f 439/2/6 440/2/6 452/2/6
f 451/1/6 439/1/6 452/1/6
f 443/2/6 444/2/6 453/2/6
f 441/2/6 442/2/6 453/2/6
f 444/2/6 445/2/6 453/2/6
f 442/2/6 443/2/6 453/2/6
f 453/2/6 445/2/6 454/2/6
f 454/2/6 445/2/6 455/2/6
f 455/2/6 445/2/6 456/2/6
f 445/3/6 446/3/6 457/3/6
f 456/2/6 445/2/6 457/2/6
f 457/3/6 446/3/6 458/3/6
f 434/3/6 448/3/6 460/3/6
f 448/1/6 449/1/6 461/1/6
f 460/3/6 448/3/6 461/3/6
f 449/2/6 450/2/6 462/2/6
f 461/1/6 449/1/6 462/1/6
f 450/2/6 451/2/6 462/2/6
f 462/2/6 451/2/6 463/2/6
f 451/3/6 452/3/6 464/3/6
f 463/2/6 451/2/6 464/2/6
f 452/2/6 440/2/6 465/2/6
f 464/3/6 452/3/6 465/3/6
f 465/2/6 440/2/6 466/2/6
f 440/1/6 441/1/6 467/1/6
f 466/2/6 440/2/6 467/2/6
f 441/2/6 453/2/6 468/2/6
f 467/1/6 441/1/6 468/1/6
f 468/2/6 453/2/6 469/2/6
f 453/3/6 454/3/6 470/3/6
f 469/2/6 453/2/6 470/2/6
f 454/1/6 455/1/6 471/1/6
f 470/3/6 454/3/6 471/3/6
f 455/2/6 456/2/6 472/2/6
f 471/1/6 455/1/6 472/1/6
f 456/1/6 457/1/6 473/1/6
f 472/2/6 456/2/6 473/2/6
f 457/2/6 458/2/6 474/2/6
f 473/1/6 457/1/6 474/1/6
f 458/3/6 459/3/6 475/3/6
f 474/2/6 458/2/6 475/2/6
f 461/3/6 462/3/6 476/3/6
f 462/2/6 463/2/6 477/2/6
f 476/3/6 462/3/6 477/3/6
f 463/3/6 464/3/6 478/3/6
f 477/2/6 463/2/6 478/2/6
f 478/3/6 464/3/6 479/3/6
f 465/3/6 466/3/6 480/3/6
f 466/1/6 467/1/6 481/1/6
f 480/3/6 466/3/6 481/3/6
f 468/2/6 469/2/6 482/2/6
f 481/1/6 467/1/6 482/1/6
f 467/2/6 468/2/6 482/2/6
f 469/3/6 470/3/6 483/3/6
f 482/2/6 469/2/6 483/2/6
f 483/3/6 470/3/6 484/3/6
f 471/3/6 472/3/6 485/3/6
f 472/2/6 473/2/6 486/2/6
f 485/3/6 472/3/6 486/3/6
f 473/2/6 474/2/6 486/2/6
f 474/1/6 475/1/6 487/1/6
f 486/2/6 474/2/6 487/2/6
f 475/3/6 459/3/6 488/3/6
f 487/1/6 475/1/6 488/1/6
f 488/3/6 459/3/6 489/3/6
f 477/3/6 478/3/6 490/3/6
f 490/3/6 478/3/6 491/3/6
f 481/3/6 482/3/6 492/3/6
f 482/3/6 483/3/6 492/3/6
f 492/3/6 483/3/6 493/3/6
f 486/3/6 487/3/6 494/3/6
f 487/3/6 488/3/6 494/3/6
f 494/3/6 488/3/6 495/3/6
