# MagicaVoxel @ Ephtracy

# group
o 

# material
mtllib PlayerErrante.mtl
usemtl palette

# normals
vn -1 0 0
vn 1 0 0
vn 0 0 1
vn 0 0 -1
vn 0 -1 0
vn 0 1 0

# texcoords
vt 0.119141 0.5
vt 0.205078 0.5
vt 0.310547 0.5
vt 0.376953 0.5
vt 0.873047 0.5
vt 0.951172 0.5
vt 0.955078 0.5
vt 0.986328 0.5
vt 0.990234 0.5

# verts
v -0.5 0.9 0.5
v -0.5 0.9 -0.2
v -0.5 1 0.5
v -0.5 1 -0.2
v -0.4 0.2 0.2
v -0.4 0.2 0
v -0.4 0.3 0.4
v -0.4 0.3 0.2
v -0.4 0.3 0
v -0.4 0.3 -0.2
v -0.4 0.9 0.4
v -0.4 0.9 -0.2
v -0.4 0.9 -0.3
v -0.4 1 -0.2
v -0.4 1 -0.3
v -0.3 0 0.3
v -0.3 0 0
v -0.3 0.1 0.3
v -0.3 0.1 0.2
v -0.3 0.2 0.5
v -0.3 0.2 0.2
v -0.3 0.2 0
v -0.3 0.2 -0.1
v -0.3 0.3 0.4
v -0.3 0.3 0.2
v -0.3 0.3 0
v -0.3 0.3 -0.1
v -0.3 0.8 0.5
v -0.3 0.8 0.4
v -0.2 0.2 -0.1
v -0.2 0.2 -0.2
v -0.2 0.3 -0.1
v -0.2 0.3 -0.2
v -0.2 0.8 0.5
v -0.2 0.8 0.4
v -0.2 0.9 0.5
v -0.2 0.9 0.4
v 0.1 0 0.3
v 0.1 0 0
v 0.1 0.1 0.3
v 0.1 0.1 0.2
v 0.1 0.3 0.2
v 0.1 0.3 0
v 0.1 0.8 0.5
v 0.1 0.8 0.4
v 0.1 0.8 -0.2
v 0.1 0.8 -0.3
v 0.1 0.9 0.4
v 0.1 0.9 -0.2
v 0.1 0.9 -0.3
v 0.1 1 0.5
v 0.1 1 0.4
v 0.2 0.2 0.5
v 0.2 0.2 0.2
v 0.2 0.2 0
v 0.2 0.2 -0.1
v 0.2 0.3 0.4
v 0.2 0.3 0.2
v 0.2 0.3 0
v 0.2 0.3 -0.1
v 0.2 0.4 0.4
v 0.2 0.5 0.4
v 0.2 0.8 0.5
v 0.2 0.8 0.4
v -0.2 0.2 0.5
v -0.2 0.2 0.2
v -0.2 0.2 0
v -0.2 0.2 -0.1
v -0.2 0.3 0.4
v -0.2 0.3 0.2
v -0.2 0.3 0
v -0.2 0.3 -0.1
v -0.2 0.4 0.4
v -0.2 0.5 0.4
v -0.2 0.8 0.5
v -0.2 0.8 0.4
v -0.1 0 0.3
v -0.1 0 0
v -0.1 0.1 0.3
v -0.1 0.1 0.2
v -0.1 0.3 0.2
v -0.1 0.3 0
v -0.1 0.8 0.5
v -0.1 0.8 0.4
v -0.1 0.9 0.4
v -0.1 1 0.5
v -0.1 1 0.4
v 0.2 0.2 -0.1
v 0.2 0.2 -0.2
v 0.2 0.3 -0.1
v 0.2 0.3 -0.2
v 0.2 0.8 0.5
v 0.2 0.8 0.4
v 0.2 0.8 -0.2
v 0.2 0.8 -0.3
v 0.2 0.9 0.5
v 0.2 0.9 0.4
v 0.2 0.9 -0.2
v 0.2 0.9 -0.3
v 0.3 0 0.3
v 0.3 0 0
v 0.3 0.1 0.3
v 0.3 0.1 0.2
v 0.3 0.2 0.5
v 0.3 0.2 0.2
v 0.3 0.2 0
v 0.3 0.2 -0.1
v 0.3 0.3 0.4
v 0.3 0.3 0.2
v 0.3 0.3 0
v 0.3 0.3 -0.1
v 0.3 0.8 0.5
v 0.3 0.8 0.4
v 0.4 0.2 0.2
v 0.4 0.2 0
v 0.4 0.3 0.4
v 0.4 0.3 0.2
v 0.4 0.3 0
v 0.4 0.3 -0.2
v 0.4 0.9 0.4
v 0.4 0.9 -0.2
v 0.4 0.9 -0.3
v 0.4 1 -0.2
v 0.4 1 -0.3
v 0.5 0.9 0.5
v 0.5 0.9 -0.2
v 0.5 1 0.5
v 0.5 1 -0.2
v -0.5 0.9 0.5
v -0.5 1 0.5
v -0.3 0.2 0.5
v -0.3 0.8 0.5
v -0.2 0.2 0.5
v -0.2 0.8 0.5
v -0.2 0.9 0.5
v -0.1 0.8 0.5
v -0.1 1 0.5
v 0.1 0.8 0.5
v 0.1 1 0.5
v 0.2 0.2 0.5
v 0.2 0.8 0.5
v 0.2 0.9 0.5
v 0.3 0.2 0.5
v 0.3 0.8 0.5
v 0.5 0.9 0.5
v 0.5 1 0.5
v -0.4 0.3 0.4
v -0.4 0.9 0.4
v -0.3 0.3 0.4
v -0.3 0.8 0.4
v -0.2 0.3 0.4
v -0.2 0.4 0.4
v -0.2 0.5 0.4
v -0.2 0.8 0.4
v -0.2 0.9 0.4
v -0.1 0.4 0.4
v -0.1 0.5 0.4
v -0.1 0.6 0.4
v -0.1 0.7 0.4
v -0.1 0.8 0.4
v -0.1 0.9 0.4
v -0.1 1 0.4
v 0.1 0.4 0.4
v 0.1 0.5 0.4
v 0.1 0.6 0.4
v 0.1 0.7 0.4
v 0.1 0.8 0.4
v 0.1 0.9 0.4
v 0.1 1 0.4
v 0.2 0.3 0.4
v 0.2 0.4 0.4
v 0.2 0.5 0.4
v 0.2 0.8 0.4
v 0.2 0.9 0.4
v 0.3 0.3 0.4
v 0.3 0.8 0.4
v 0.4 0.3 0.4
v 0.4 0.9 0.4
v -0.3 0 0.3
v -0.3 0.1 0.3
v -0.1 0 0.3
v -0.1 0.1 0.3
v 0.1 0 0.3
v 0.1 0.1 0.3
v 0.3 0 0.3
v 0.3 0.1 0.3
v -0.4 0.2 0.2
v -0.4 0.3 0.2
v -0.3 0.1 0.2
v -0.3 0.2 0.2
v -0.3 0.3 0.2
v -0.2 0.2 0.2
v -0.2 0.3 0.2
v -0.1 0.1 0.2
v -0.1 0.3 0.2
v 0.1 0.1 0.2
v 0.1 0.3 0.2
v 0.2 0.2 0.2
v 0.2 0.3 0.2
v 0.3 0.1 0.2
v 0.3 0.2 0.2
v 0.3 0.3 0.2
v 0.4 0.2 0.2
v 0.4 0.3 0.2
v -0.2 0.2 -0.1
v -0.2 0.3 -0.1
v 0.2 0.2 -0.1
v 0.2 0.3 -0.1
v -0.4 0.2 0
v -0.4 0.3 0
v -0.3 0 0
v -0.3 0.2 0
v -0.3 0.3 0
v -0.2 0.2 0
v -0.2 0.3 0
v -0.1 0 0
v -0.1 0.3 0
v 0.1 0 0
v 0.1 0.3 0
v 0.2 0.2 0
v 0.2 0.3 0
v 0.3 0 0
v 0.3 0.2 0
v 0.3 0.3 0
v 0.4 0.2 0
v 0.4 0.3 0
v -0.3 0.2 -0.1
v -0.3 0.3 -0.1
v -0.2 0.2 -0.1
v -0.2 0.3 -0.1
v 0.2 0.2 -0.1
v 0.2 0.3 -0.1
v 0.3 0.2 -0.1
v 0.3 0.3 -0.1
v -0.5 0.9 -0.2
v -0.5 1 -0.2
v -0.4 0.3 -0.2
v -0.4 0.9 -0.2
v -0.4 1 -0.2
v -0.2 0.2 -0.2
v -0.2 0.3 -0.2
v 0.1 0.8 -0.2
v 0.1 0.9 -0.2
v 0.2 0.2 -0.2
v 0.2 0.3 -0.2
v 0.2 0.8 -0.2
v 0.2 0.9 -0.2
v 0.4 0.3 -0.2
v 0.4 0.9 -0.2
v 0.4 1 -0.2
v 0.5 0.9 -0.2
v 0.5 1 -0.2
v -0.4 0.9 -0.3
v -0.4 1 -0.3
v 0.1 0.8 -0.3
v 0.1 0.9 -0.3
v 0.2 0.8 -0.3
v 0.2 0.9 -0.3
v 0.4 0.9 -0.3
v 0.4 1 -0.3
v -0.3 0 0.3
v -0.1 0 0.3
v 0.1 0 0.3
v 0.3 0 0.3
v -0.3 0 0
v -0.1 0 0
v 0.1 0 0
v 0.3 0 0
v -0.3 0.2 0.5
v -0.2 0.2 0.5
v 0.2 0.2 0.5
v 0.3 0.2 0.5
v -0.4 0.2 0.2
v -0.3 0.2 0.2
v -0.2 0.2 0.2
v 0.2 0.2 0.2
v 0.3 0.2 0.2
v 0.4 0.2 0.2
v -0.4 0.2 0
v -0.3 0.2 0
v -0.2 0.2 0
v 0.2 0.2 0
v 0.3 0.2 0
v 0.4 0.2 0
v -0.3 0.2 -0.1
v -0.2 0.2 -0.1
v 0.2 0.2 -0.1
v 0.3 0.2 -0.1
v -0.2 0.2 -0.2
v 0.2 0.2 -0.2
v -0.4 0.3 0.4
v -0.3 0.3 0.4
v -0.2 0.3 0.4
v 0.2 0.3 0.4
v 0.3 0.3 0.4
v 0.4 0.3 0.4
v -0.4 0.3 0.2
v -0.3 0.3 0.2
v -0.2 0.3 0.2
v -0.1 0.3 0.2
v 0.1 0.3 0.2
v 0.2 0.3 0.2
v 0.3 0.3 0.2
v 0.4 0.3 0.2
v -0.4 0.3 0
v -0.3 0.3 0
v -0.2 0.3 0
v -0.1 0.3 0
v 0.1 0.3 0
v 0.2 0.3 0
v 0.3 0.3 0
v 0.4 0.3 0
v -0.3 0.3 -0.1
v -0.2 0.3 -0.1
v 0.2 0.3 -0.1
v 0.3 0.3 -0.1
v -0.4 0.3 -0.2
v -0.2 0.3 -0.2
v 0.2 0.3 -0.2
v 0.4 0.3 -0.2
v -0.2 0.8 0.5
v -0.1 0.8 0.5
v 0.1 0.8 0.5
v 0.2 0.8 0.5
v -0.2 0.8 0.4
v -0.1 0.8 0.4
v 0.1 0.8 0.4
v 0.2 0.8 0.4
v 0.1 0.8 -0.2
v 0.2 0.8 -0.2
v 0.1 0.8 -0.3
v 0.2 0.8 -0.3
v -0.5 0.9 0.5
v -0.2 0.9 0.5
v 0.2 0.9 0.5
v 0.5 0.9 0.5
v -0.4 0.9 0.4
v -0.2 0.9 0.4
v 0.2 0.9 0.4
v 0.4 0.9 0.4
v -0.5 0.9 -0.2
v -0.4 0.9 -0.2
v 0.1 0.9 -0.2
v 0.2 0.9 -0.2
v 0.4 0.9 -0.2
v 0.5 0.9 -0.2
v -0.4 0.9 -0.3
v 0.1 0.9 -0.3
v 0.2 0.9 -0.3
v 0.4 0.9 -0.3
v -0.3 0.1 0.3
v -0.1 0.1 0.3
v 0.1 0.1 0.3
v 0.3 0.1 0.3
v -0.3 0.1 0.2
v -0.1 0.1 0.2
v 0.1 0.1 0.2
v 0.3 0.1 0.2
v -0.3 0.8 0.5
v -0.2 0.8 0.5
v 0.2 0.8 0.5
v 0.3 0.8 0.5
v -0.3 0.8 0.4
v -0.2 0.8 0.4
v 0.2 0.8 0.4
v 0.3 0.8 0.4
v -0.5 1 0.5
v -0.1 1 0.5
v 0.1 1 0.5
v 0.5 1 0.5
v -0.4 1 0.4
v -0.1 1 0.4
v 0.1 1 0.4
v 0.4 1 0.4
v -0.5 1 -0.2
v -0.4 1 -0.2
v 0.4 1 -0.2
v 0.5 1 -0.2
v -0.4 1 -0.3
v 0.4 1 -0.3

# faces
f 3/9/1 2/9/1 1/9/1
f 4/9/1 2/9/1 3/9/1
f 8/9/1 6/9/1 5/9/1
f 9/9/1 6/9/1 8/9/1
f 11/9/1 8/9/1 7/9/1
f 11/9/1 10/9/1 9/9/1
f 11/9/1 9/9/1 8/9/1
f 12/9/1 10/9/1 11/9/1
f 14/9/1 13/9/1 12/9/1
f 15/9/1 13/9/1 14/9/1
f 18/7/1 17/7/1 16/7/1
f 19/7/1 17/7/1 18/7/1
f 21/7/1 17/7/1 19/7/1
f 22/7/1 17/7/1 21/7/1
f 24/9/1 21/9/1 20/9/1
f 25/9/1 21/9/1 24/9/1
f 26/9/1 23/9/1 22/9/1
f 27/9/1 23/9/1 26/9/1
f 28/9/1 24/9/1 20/9/1
f 29/9/1 24/9/1 28/9/1
f 32/9/1 31/9/1 30/9/1
f 33/9/1 31/9/1 32/9/1
f 36/9/1 35/9/1 34/9/1
f 37/9/1 35/9/1 36/9/1
f 40/7/1 39/7/1 38/7/1
f 41/7/1 39/7/1 40/7/1
f 42/7/1 39/7/1 41/7/1
f 43/7/1 39/7/1 42/7/1
f 48/9/1 45/9/1 44/9/1
f 49/3/1 47/3/1 46/3/1
f 50/3/1 47/3/1 49/3/1
f 51/9/1 48/9/1 44/9/1
f 52/9/1 48/9/1 51/9/1
f 57/9/1 54/9/1 53/9/1
f 58/9/1 54/9/1 57/9/1
f 59/9/1 56/9/1 55/9/1
f 60/9/1 56/9/1 59/9/1
f 61/9/1 57/9/1 53/9/1
f 62/9/1 61/9/1 53/9/1
f 63/9/1 62/9/1 53/9/1
f 64/9/1 62/9/1 63/9/1
f 65/9/2 66/9/2 69/9/2
f 69/9/2 66/9/2 70/9/2
f 67/9/2 68/9/2 71/9/2
f 71/9/2 68/9/2 72/9/2
f 65/9/2 69/9/2 73/9/2
f 65/9/2 73/9/2 74/9/2
f 65/9/2 74/9/2 75/9/2
f 75/9/2 74/9/2 76/9/2
f 77/7/2 78/7/2 79/7/2
f 79/7/2 78/7/2 80/7/2
f 80/7/2 78/7/2 81/7/2
f 81/7/2 78/7/2 82/7/2
f 83/9/2 84/9/2 85/9/2
f 83/9/2 85/9/2 86/9/2
f 86/9/2 85/9/2 87/9/2
f 88/9/2 89/9/2 90/9/2
f 90/9/2 89/9/2 91/9/2
f 92/9/2 93/9/2 96/9/2
f 96/9/2 93/9/2 97/9/2
f 94/3/2 95/3/2 98/3/2
f 98/3/2 95/3/2 99/3/2
f 100/7/2 101/7/2 102/7/2
f 102/7/2 101/7/2 103/7/2
f 103/7/2 101/7/2 105/7/2
f 105/7/2 101/7/2 106/7/2
f 104/9/2 105/9/2 108/9/2
f 108/9/2 105/9/2 109/9/2
f 106/9/2 107/9/2 110/9/2
f 110/9/2 107/9/2 111/9/2
f 104/9/2 108/9/2 112/9/2
f 112/9/2 108/9/2 113/9/2
f 114/9/2 115/9/2 117/9/2
f 117/9/2 115/9/2 118/9/2
f 116/9/2 117/9/2 120/9/2
f 118/9/2 119/9/2 120/9/2
f 117/9/2 118/9/2 120/9/2
f 120/9/2 119/9/2 121/9/2
f 121/9/2 122/9/2 123/9/2
f 123/9/2 122/9/2 124/9/2
f 125/9/2 126/9/2 127/9/2
f 127/9/2 126/9/2 128/9/2
f 133/9/3 132/9/3 131/9/3
f 134/9/3 132/9/3 133/9/3
f 135/9/3 130/9/3 129/9/3
f 136/9/3 135/9/3 134/9/3
f 137/9/3 130/9/3 135/9/3
f 137/9/3 135/9/3 136/9/3
f 141/9/3 139/9/3 138/9/3
f 142/9/3 139/9/3 141/9/3
f 143/9/3 141/9/3 140/9/3
f 144/9/3 141/9/3 143/9/3
f 145/9/3 139/9/3 142/9/3
f 146/9/3 139/9/3 145/9/3
f 149/9/3 148/9/3 147/9/3
f 150/9/3 148/9/3 149/9/3
f 154/9/3 148/9/3 150/9/3
f 155/9/3 148/9/3 154/9/3
f 156/7/3 153/7/3 152/7/3
f 156/6/3 152/6/3 151/6/3
f 157/8/3 154/8/3 153/8/3
f 157/7/3 153/7/3 156/7/3
f 158/8/3 154/8/3 157/8/3
f 159/8/3 154/8/3 158/8/3
f 160/8/3 154/8/3 159/8/3
f 163/6/3 156/6/3 151/6/3
f 163/1/3 157/1/3 156/1/3
f 164/4/3 158/4/3 157/4/3
f 164/1/3 157/1/3 163/1/3
f 165/8/3 159/8/3 158/8/3
f 165/4/3 158/4/3 164/4/3
f 166/4/3 160/4/3 159/4/3
f 166/8/3 159/8/3 165/8/3
f 167/8/3 161/8/3 160/8/3
f 167/4/3 160/4/3 166/4/3
f 168/2/3 162/2/3 161/2/3
f 168/8/3 161/8/3 167/8/3
f 169/2/3 162/2/3 168/2/3
f 170/6/3 163/6/3 151/6/3
f 171/7/3 164/7/3 163/7/3
f 171/6/3 163/6/3 170/6/3
f 172/8/3 166/8/3 165/8/3
f 172/7/3 164/7/3 171/7/3
f 172/8/3 167/8/3 166/8/3
f 172/8/3 165/8/3 164/8/3
f 173/8/3 167/8/3 172/8/3
f 176/9/3 174/9/3 173/9/3
f 177/9/3 176/9/3 175/9/3
f 178/9/3 174/9/3 176/9/3
f 178/9/3 176/9/3 177/9/3
f 181/7/3 180/7/3 179/7/3
f 182/7/3 180/7/3 181/7/3
f 185/7/3 184/7/3 183/7/3
f 186/7/3 184/7/3 185/7/3
f 190/9/3 188/9/3 187/9/3
f 191/9/3 188/9/3 190/9/3
f 192/7/3 190/7/3 189/7/3
f 194/7/3 192/7/3 189/7/3
f 194/7/3 193/7/3 192/7/3
f 195/7/3 193/7/3 194/7/3
f 198/7/3 197/7/3 196/7/3
f 199/7/3 197/7/3 198/7/3
f 200/7/3 198/7/3 196/7/3
f 201/7/3 198/7/3 200/7/3
f 203/9/3 202/9/3 201/9/3
f 204/9/3 202/9/3 203/9/3
f 207/9/3 206/9/3 205/9/3
f 208/9/3 206/9/3 207/9/3
f 209/9/4 210/9/4 212/9/4
f 212/9/4 210/9/4 213/9/4
f 211/7/4 212/7/4 214/7/4
f 211/7/4 214/7/4 216/7/4
f 214/7/4 215/7/4 216/7/4
f 216/7/4 215/7/4 217/7/4
f 218/7/4 219/7/4 220/7/4
f 220/7/4 219/7/4 221/7/4
f 218/7/4 220/7/4 222/7/4
f 222/7/4 220/7/4 223/7/4
f 223/9/4 224/9/4 225/9/4
f 225/9/4 224/9/4 226/9/4
f 227/9/4 228/9/4 229/9/4
f 229/9/4 228/9/4 230/9/4
f 231/9/4 232/9/4 233/9/4
f 233/9/4 232/9/4 234/9/4
f 235/9/4 236/9/4 238/9/4
f 238/9/4 236/9/4 239/9/4
f 237/9/4 238/9/4 241/9/4
f 241/9/4 238/9/4 242/9/4
f 240/9/4 241/9/4 242/9/4
f 242/9/4 238/9/4 243/9/4
f 240/9/4 242/9/4 244/9/4
f 244/9/4 242/9/4 245/9/4
f 245/9/4 242/9/4 246/9/4
f 246/9/4 247/9/4 248/9/4
f 245/9/4 246/9/4 248/9/4
f 248/9/4 247/9/4 249/9/4
f 249/9/4 250/9/4 251/9/4
f 251/9/4 250/9/4 252/9/4
f 253/9/4 254/9/4 256/9/4
f 255/3/4 256/3/4 257/3/4
f 256/9/4 254/9/4 258/9/4
f 257/3/4 256/3/4 258/3/4
f 258/9/4 254/9/4 259/9/4
f 259/9/4 254/9/4 260/9/4
f 265/7/5 262/7/5 261/7/5
f 266/7/5 262/7/5 265/7/5
f 267/7/5 264/7/5 263/7/5
f 268/7/5 264/7/5 267/7/5
f 274/9/5 270/9/5 269/9/5
f 275/9/5 270/9/5 274/9/5
f 276/9/5 272/9/5 271/9/5
f 277/9/5 272/9/5 276/9/5
f 279/9/5 274/9/5 273/9/5
f 280/9/5 274/9/5 279/9/5
f 283/9/5 278/9/5 277/9/5
f 284/9/5 278/9/5 283/9/5
f 285/9/5 281/9/5 280/9/5
f 286/9/5 281/9/5 285/9/5
f 287/9/5 283/9/5 282/9/5
f 288/9/5 283/9/5 287/9/5
f 289/9/5 287/9/5 286/9/5
f 290/9/5 287/9/5 289/9/5
f 297/9/5 292/9/5 291/9/5
f 298/9/5 292/9/5 297/9/5
f 299/6/5 294/6/5 293/6/5
f 300/6/5 294/6/5 299/6/5
f 301/6/5 294/6/5 300/6/5
f 302/6/5 294/6/5 301/6/5
f 303/9/5 296/9/5 295/9/5
f 304/9/5 296/9/5 303/9/5
f 308/6/5 301/6/5 300/6/5
f 309/6/5 301/6/5 308/6/5
f 313/9/5 306/9/5 305/9/5
f 314/6/5 308/6/5 307/6/5
f 314/6/5 309/6/5 308/6/5
f 314/6/5 310/6/5 309/6/5
f 315/6/5 310/6/5 314/6/5
f 316/9/5 312/9/5 311/9/5
f 317/9/5 313/9/5 305/9/5
f 317/9/5 314/9/5 313/9/5
f 318/9/5 314/9/5 317/9/5
f 319/9/5 316/9/5 315/9/5
f 320/9/5 312/9/5 316/9/5
f 320/9/5 316/9/5 319/9/5
f 325/9/5 322/9/5 321/9/5
f 326/9/5 322/9/5 325/9/5
f 327/9/5 324/9/5 323/9/5
f 328/9/5 324/9/5 327/9/5
f 331/3/5 330/3/5 329/3/5
f 332/3/5 330/3/5 331/3/5
f 337/9/5 334/9/5 333/9/5
f 338/9/5 334/9/5 337/9/5
f 339/9/5 336/9/5 335/9/5
f 340/9/5 336/9/5 339/9/5
f 341/9/5 337/9/5 333/9/5
f 342/9/5 337/9/5 341/9/5
f 345/9/5 336/9/5 340/9/5
f 346/9/5 336/9/5 345/9/5
f 347/9/5 343/9/5 342/9/5
f 348/9/5 343/9/5 347/9/5
f 349/9/5 345/9/5 344/9/5
f 350/9/5 345/9/5 349/9/5
f 351/7/6 352/7/6 355/7/6
f 355/7/6 352/7/6 356/7/6
f 353/7/6 354/7/6 357/7/6
f 357/7/6 354/7/6 358/7/6
f 359/9/6 360/9/6 363/9/6
f 363/9/6 360/9/6 364/9/6
f 361/9/6 362/9/6 365/9/6
f 365/9/6 362/9/6 366/9/6
f 367/9/6 368/9/6 371/9/6
f 371/9/6 368/9/6 372/9/6
f 369/9/6 370/9/6 373/9/6
f 373/9/6 370/9/6 374/9/6
f 367/9/6 371/9/6 375/9/6
f 371/2/6 372/2/6 376/2/6
f 375/9/6 371/9/6 376/9/6
f 372/2/6 373/2/6 376/2/6
f 373/2/6 374/2/6 376/2/6
f 374/9/6 370/9/6 377/9/6
f 376/2/6 374/2/6 377/2/6
f 377/9/6 370/9/6 378/9/6
f 376/9/6 377/9/6 379/9/6
f 379/9/6 377/9/6 380/9/6
