# MagicaVoxel @ Ephtracy

# group
o 

# material
mtllib BossManos2.mtl
usemtl palette

# normals
vn -1 0 0
vn 1 0 0
vn 0 0 1
vn 0 0 -1
vn 0 -1 0
vn 0 1 0

# texcoords
vt 0.376953 0.5
vt 0.732422 0.5
vt 0.986328 0.5
vt 0.990234 0.5

# verts
v 0.4 0.3 -0.3
v 0.4 0.3 -0.5
v 0.4 0.5 -0.3
v 0.4 0.5 -0.5
v 0.4 0.6 -0.2
v 0.4 0.6 -0.3
v 0.4 0.6 -0.5
v 0.4 0.6 -0.6
v 0.4 0.8 -0.2
v 0.4 0.8 -0.3
v 0.4 0.8 -0.5
v 0.4 0.8 -0.6
v 0.4 1 -0.2
v 0.4 1 -0.3
v 0.4 1 -0.5
v 0.4 1 -0.6
v 0.4 1.1 -0.2
v 0.4 1.1 -0.3
v 0.4 1.1 -0.5
v 0.4 1.1 -0.6
v 0.5 1.1 -0.3
v 0.5 1.1 -0.5
v 0.5 1.2 -0.3
v 0.5 1.2 -0.5
v 0.6 0.3 -0.3
v 0.6 0.3 -0.5
v 0.6 0.5 -0.3
v 0.6 0.5 -0.5
v 0.6 0.6 -0.2
v 0.6 0.6 -0.3
v 0.6 0.6 -0.5
v 0.6 0.6 -0.6
v 0.6 0.8 -0.2
v 0.6 0.8 -0.3
v 0.6 0.8 -0.5
v 0.6 0.8 -0.6
v 0.6 0.9 -0.3
v 0.6 0.9 -0.5
v 0.7 0.6 -0.3
v 0.7 0.6 -0.5
v 0.7 0.8 -0.3
v 0.7 0.8 -0.5
v 0.7 0.9 -0.3
v 0.7 0.9 -0.5
v 0.7 1 -0.2
v 0.7 1 -0.3
v 0.7 1 -0.5
v 0.7 1 -0.6
v 0.7 1.1 -0.2
v 0.7 1.1 -0.3
v 0.7 1.1 -0.5
v 0.7 1.1 -0.6
v 0.7 1.2 -0.3
v 0.7 1.2 -0.5
v 0.8 1 -0.3
v 0.8 1 -0.5
v 0.8 1.1 -0.3
v 0.8 1.1 -0.5
v 0.4 0.6 -0.2
v 0.4 0.8 -0.2
v 0.4 1 -0.2
v 0.4 1.1 -0.2
v 0.6 0.6 -0.2
v 0.6 0.8 -0.2
v 0.7 1 -0.2
v 0.7 1.1 -0.2
v 0.4 0.3 -0.3
v 0.4 0.5 -0.3
v 0.4 0.6 -0.3
v 0.4 0.8 -0.3
v 0.4 1 -0.3
v 0.5 1.1 -0.3
v 0.5 1.2 -0.3
v 0.6 0.3 -0.3
v 0.6 0.5 -0.3
v 0.6 0.6 -0.3
v 0.6 0.8 -0.3
v 0.6 0.9 -0.3
v 0.7 0.6 -0.3
v 0.7 0.8 -0.3
v 0.7 0.9 -0.3
v 0.7 1 -0.3
v 0.7 1.1 -0.3
v 0.7 1.2 -0.3
v 0.8 1 -0.3
v 0.8 1.1 -0.3
v 0.4 0.3 -0.5
v 0.4 0.5 -0.5
v 0.4 0.6 -0.5
v 0.4 0.8 -0.5
v 0.4 1 -0.5
v 0.5 1.1 -0.5
v 0.5 1.2 -0.5
v 0.6 0.3 -0.5
v 0.6 0.5 -0.5
v 0.6 0.6 -0.5
v 0.6 0.8 -0.5
v 0.6 0.9 -0.5
v 0.7 0.6 -0.5
v 0.7 0.8 -0.5
v 0.7 0.9 -0.5
v 0.7 1 -0.5
v 0.7 1.1 -0.5
v 0.7 1.2 -0.5
v 0.8 1 -0.5
v 0.8 1.1 -0.5
v 0.4 0.6 -0.6
v 0.4 0.8 -0.6
v 0.4 1 -0.6
v 0.4 1.1 -0.6
v 0.6 0.6 -0.6
v 0.6 0.8 -0.6
v 0.7 1 -0.6
v 0.7 1.1 -0.6
v 0.4 0.3 -0.3
v 0.6 0.3 -0.3
v 0.4 0.3 -0.5
v 0.6 0.3 -0.5
v 0.4 0.6 -0.2
v 0.6 0.6 -0.2
v 0.4 0.6 -0.3
v 0.6 0.6 -0.3
v 0.7 0.6 -0.3
v 0.4 0.6 -0.5
v 0.6 0.6 -0.5
v 0.7 0.6 -0.5
v 0.4 0.6 -0.6
v 0.6 0.6 -0.6
v 0.6 0.9 -0.3
v 0.7 0.9 -0.3
v 0.6 0.9 -0.5
v 0.7 0.9 -0.5
v 0.4 1 -0.2
v 0.7 1 -0.2
v 0.4 1 -0.3
v 0.7 1 -0.3
v 0.8 1 -0.3
v 0.4 1 -0.5
v 0.7 1 -0.5
v 0.8 1 -0.5
v 0.4 1 -0.6
v 0.7 1 -0.6
v 0.4 0.8 -0.2
v 0.6 0.8 -0.2
v 0.4 0.8 -0.3
v 0.6 0.8 -0.3
v 0.7 0.8 -0.3
v 0.4 0.8 -0.5
v 0.6 0.8 -0.5
v 0.7 0.8 -0.5
v 0.4 0.8 -0.6
v 0.6 0.8 -0.6
v 0.4 1.1 -0.2
v 0.7 1.1 -0.2
v 0.4 1.1 -0.3
v 0.5 1.1 -0.3
v 0.7 1.1 -0.3
v 0.8 1.1 -0.3
v 0.4 1.1 -0.5
v 0.5 1.1 -0.5
v 0.7 1.1 -0.5
v 0.8 1.1 -0.5
v 0.4 1.1 -0.6
v 0.7 1.1 -0.6
v 0.5 1.2 -0.3
v 0.7 1.2 -0.3
v 0.5 1.2 -0.5
v 0.7 1.2 -0.5

# faces
f 3/3/1 2/3/1 1/3/1
f 4/3/1 2/3/1 3/3/1
f 6/4/1 4/4/1 3/4/1
f 7/4/1 4/4/1 6/4/1
f 9/2/1 6/2/1 5/2/1
f 10/3/1 7/3/1 6/3/1
f 10/2/1 6/2/1 9/2/1
f 11/2/1 8/2/1 7/2/1
f 11/3/1 7/3/1 10/3/1
f 12/2/1 8/2/1 11/2/1
f 14/3/1 11/3/1 10/3/1
f 15/3/1 11/3/1 14/3/1
f 17/3/1 14/3/1 13/3/1
f 18/4/1 15/4/1 14/4/1
f 18/3/1 14/3/1 17/3/1
f 19/3/1 16/3/1 15/3/1
f 19/4/1 15/4/1 18/4/1
f 20/3/1 16/3/1 19/3/1
f 23/3/1 22/3/1 21/3/1
f 24/3/1 22/3/1 23/3/1
f 25/3/2 26/3/2 27/3/2
f 27/3/2 26/3/2 28/3/2
f 27/4/2 28/4/2 30/4/2
f 30/4/2 28/4/2 31/4/2
f 29/2/2 30/2/2 33/2/2
f 33/2/2 30/2/2 34/2/2
f 31/2/2 32/2/2 35/2/2
f 35/2/2 32/2/2 36/2/2
f 34/3/2 35/3/2 37/3/2
f 37/3/2 35/3/2 38/3/2
f 39/2/2 40/2/2 41/2/2
f 41/2/2 40/2/2 42/2/2
f 43/3/2 44/3/2 46/3/2
f 46/3/2 44/3/2 47/3/2
f 45/3/2 46/3/2 49/3/2
f 49/3/2 46/3/2 50/3/2
f 47/3/2 48/3/2 51/3/2
f 51/3/2 48/3/2 52/3/2
f 50/3/2 51/3/2 53/3/2
f 53/3/2 51/3/2 54/3/2
f 55/3/2 56/3/2 57/3/2
f 57/3/2 56/3/2 58/3/2
f 63/2/3 60/2/3 59/2/3
f 64/2/3 60/2/3 63/2/3
f 65/3/3 62/3/3 61/3/3
f 66/3/3 62/3/3 65/3/3
f 74/3/3 68/3/3 67/3/3
f 75/4/3 69/4/3 68/4/3
f 75/3/3 68/3/3 74/3/3
f 76/4/3 69/4/3 75/4/3
f 77/3/3 71/3/3 70/3/3
f 78/3/3 71/3/3 77/3/3
f 79/2/3 77/2/3 76/2/3
f 80/2/3 77/2/3 79/2/3
f 81/3/3 71/3/3 78/3/3
f 82/3/3 71/3/3 81/3/3
f 83/3/3 73/3/3 72/3/3
f 84/3/3 73/3/3 83/3/3
f 85/3/3 83/3/3 82/3/3
f 86/3/3 83/3/3 85/3/3
f 87/3/4 88/3/4 94/3/4
f 88/4/4 89/4/4 95/4/4
f 94/3/4 88/3/4 95/3/4
f 95/4/4 89/4/4 96/4/4
f 90/3/4 91/3/4 97/3/4
f 97/3/4 91/3/4 98/3/4
f 96/2/4 97/2/4 99/2/4
f 99/2/4 97/2/4 100/2/4
f 98/3/4 91/3/4 101/3/4
f 101/3/4 91/3/4 102/3/4
f 92/3/4 93/3/4 103/3/4
f 103/3/4 93/3/4 104/3/4
f 102/3/4 103/3/4 105/3/4
f 105/3/4 103/3/4 106/3/4
f 107/2/4 108/2/4 111/2/4
f 111/2/4 108/2/4 112/2/4
f 109/3/4 110/3/4 113/3/4
f 113/3/4 110/3/4 114/3/4
f 117/3/5 116/3/5 115/3/5
f 118/3/5 116/3/5 117/3/5
f 121/2/5 120/2/5 119/2/5
f 122/2/5 120/2/5 121/2/5
f 125/2/5 123/2/5 122/2/5
f 126/2/5 123/2/5 125/2/5
f 127/2/5 125/2/5 124/2/5
f 128/2/5 125/2/5 127/2/5
f 131/3/5 130/3/5 129/3/5
f 132/3/5 130/3/5 131/3/5
f 135/3/5 134/3/5 133/3/5
f 136/3/5 134/3/5 135/3/5
f 139/3/5 137/3/5 136/3/5
f 140/3/5 137/3/5 139/3/5
f 141/3/5 139/3/5 138/3/5
f 142/3/5 139/3/5 141/3/5
f 143/2/6 144/2/6 145/2/6
f 145/2/6 144/2/6 146/2/6
f 146/2/6 147/2/6 149/2/6
f 149/2/6 147/2/6 150/2/6
f 148/2/6 149/2/6 151/2/6
f 151/2/6 149/2/6 152/2/6
f 153/3/6 154/3/6 155/3/6
f 155/3/6 154/3/6 156/3/6
f 156/3/6 154/3/6 157/3/6
f 155/4/6 156/4/6 159/4/6
f 159/4/6 156/4/6 160/4/6
f 157/3/6 158/3/6 161/3/6
f 161/3/6 158/3/6 162/3/6
f 159/3/6 160/3/6 163/3/6
f 160/3/6 161/3/6 163/3/6
f 163/3/6 161/3/6 164/3/6
f 165/3/6 166/3/6 167/3/6
f 167/3/6 166/3/6 168/3/6
