# MagicaVoxel @ Ephtracy

# group
o 

# material
mtllib Boss.mtl
usemtl palette

# normals
vn -1 0 0
vn 1 0 0
vn 0 0 1
vn 0 0 -1
vn 0 -1 0
vn 0 1 0

# texcoords
vt 0.0136719 0.5
vt 0.119141 0.5
vt 0.376953 0.5
vt 0.873047 0.5
vt 0.955078 0.5
vt 0.986328 0.5
vt 0.990234 0.5

# verts
v -0.4 0.4 -0.3
v -0.4 0.4 -0.5
v -0.4 0.5 -0.1
v -0.4 0.5 -0.2
v -0.4 0.5 -0.3
v -0.4 0.5 -0.4
v -0.4 0.5 -0.5
v -0.4 0.5 -0.6
v -0.4 0.5 -0.7
v -0.4 0.6 -0.1
v -0.4 0.6 -0.2
v -0.4 0.6 -0.3
v -0.4 0.6 -0.4
v -0.4 0.6 -0.5
v -0.4 0.6 -0.6
v -0.4 0.6 -0.7
v -0.4 0.7 -0.1
v -0.4 0.7 -0.2
v -0.4 0.7 -0.3
v -0.4 0.7 -0.5
v -0.4 0.7 -0.6
v -0.4 0.7 -0.7
v -0.4 0.8 -0.1
v -0.4 0.8 -0.2
v -0.4 0.8 -0.3
v -0.4 0.8 -0.6
v -0.4 0.8 -0.7
v -0.4 0.9 -0.1
v -0.4 0.9 -0.2
v -0.4 0.9 -0.3
v -0.4 0.9 -0.5
v -0.4 0.9 -0.6
v -0.4 0.9 -0.7
v -0.4 1 -0.1
v -0.4 1 -0.2
v -0.4 1 -0.5
v -0.4 1 -0.6
v -0.4 1 -0.7
v -0.4 1.1 -0.1
v -0.4 1.1 -0.3
v -0.4 1.1 -0.5
v -0.4 1.1 -0.6
v -0.4 1.1 -0.7
v -0.3 0 -0.2
v -0.3 0 -0.5
v -0.3 0.1 -0.2
v -0.3 0.1 -0.3
v -0.3 0.4 -0.2
v -0.3 0.4 -0.3
v -0.3 0.4 -0.5
v -0.3 0.4 -0.6
v -0.3 0.5 -3.72529e-08
v -0.3 0.5 -0.1
v -0.3 0.5 -0.2
v -0.3 0.5 -0.3
v -0.3 0.5 -0.5
v -0.3 0.5 -0.6
v -0.3 0.6 -0.1
v -0.3 0.7 -0.1
v -0.3 0.8 -0.1
v -0.3 0.9 -0.1
v -0.3 1 -3.72529e-08
v -0.3 1 -0.1
v -0.3 1 -0.7
v -0.3 1 -0.8
v -0.3 1.1 -0.7
v -0.3 1.1 -0.8
v -0.2 0.8 -0.7
v -0.2 0.8 -0.8
v -0.2 0.9 -0.7
v -0.2 0.9 -0.8
v -0.2 1 -3.72529e-08
v -0.2 1 -0.1
v -0.2 1.1 -3.72529e-08
v -0.2 1.1 -0.1
v -0.1 0.6 -0.7
v -0.1 0.6 -0.8
v -0.1 0.7 -0.7
v -0.1 0.8 -0.7
v -0.1 0.8 -0.8
v -0.1 0.9 -0.7
v -0.1 0.9 -0.8
v -0.1 1 -0.7
v -0.1 1 -0.8
v 0.1 0 -0.2
v 0.1 0 -0.5
v 0.1 0.1 -0.2
v 0.1 0.1 -0.3
v 0.1 0.4 -0.2
v 0.1 0.4 -0.3
v 0.1 0.4 -0.5
v 0.1 0.4 -0.6
v 0.1 0.5 -0.2
v 0.1 0.5 -0.3
v 0.1 0.5 -0.5
v 0.1 0.5 -0.6
v 0.2 0.5 -3.72529e-08
v 0.2 0.5 -0.1
v 0.2 0.6 -3.72529e-08
v 0.2 0.6 -0.1
v 0.2 0.7 -3.72529e-08
v 0.2 0.7 -0.1
v 0.2 0.8 -3.72529e-08
v 0.2 0.8 -0.1
v 0.2 0.9 -3.72529e-08
v 0.2 0.9 -0.1
v 0.2 1 -3.72529e-08
v 0.2 1 -0.1
v -0.2 0.5 -3.72529e-08
v -0.2 0.5 -0.1
v -0.2 0.6 -3.72529e-08
v -0.2 0.6 -0.1
v -0.2 0.7 -3.72529e-08
v -0.2 0.7 -0.1
v -0.2 0.8 -3.72529e-08
v -0.2 0.8 -0.1
v -0.2 0.9 -3.72529e-08
v -0.2 0.9 -0.1
v -0.2 1 -3.72529e-08
v -0.2 1 -0.1
v -0.1 0 -0.2
v -0.1 0 -0.5
v -0.1 0.1 -0.2
v -0.1 0.1 -0.3
v -0.1 0.4 -0.2
v -0.1 0.4 -0.3
v -0.1 0.4 -0.5
v -0.1 0.4 -0.6
v -0.1 0.5 -0.2
v -0.1 0.5 -0.3
v -0.1 0.5 -0.5
v -0.1 0.5 -0.6
v 0.1 0.6 -0.7
v 0.1 0.6 -0.8
v 0.1 0.7 -0.7
v 0.1 0.8 -0.7
v 0.1 0.8 -0.8
v 0.1 0.9 -0.7
v 0.1 0.9 -0.8
v 0.1 1 -0.7
v 0.1 1 -0.8
v 0.2 0.8 -0.7
v 0.2 0.8 -0.8
v 0.2 0.9 -0.7
v 0.2 0.9 -0.8
v 0.2 1 -3.72529e-08
v 0.2 1 -0.1
v 0.2 1.1 -3.72529e-08
v 0.2 1.1 -0.1
v 0.3 0 -0.2
v 0.3 0 -0.5
v 0.3 0.1 -0.2
v 0.3 0.1 -0.3
v 0.3 0.4 -0.2
v 0.3 0.4 -0.3
v 0.3 0.4 -0.5
v 0.3 0.4 -0.6
v 0.3 0.5 -3.72529e-08
v 0.3 0.5 -0.1
v 0.3 0.5 -0.2
v 0.3 0.5 -0.3
v 0.3 0.5 -0.5
v 0.3 0.5 -0.6
v 0.3 0.6 -0.1
v 0.3 0.7 -0.1
v 0.3 0.8 -0.1
v 0.3 0.9 -0.1
v 0.3 1 -3.72529e-08
v 0.3 1 -0.1
v 0.3 1 -0.7
v 0.3 1 -0.8
v 0.3 1.1 -0.7
v 0.3 1.1 -0.8
v 0.4 0.4 -0.3
v 0.4 0.4 -0.5
v 0.4 0.5 -0.1
v 0.4 0.5 -0.2
v 0.4 0.5 -0.3
v 0.4 0.5 -0.4
v 0.4 0.5 -0.5
v 0.4 0.5 -0.6
v 0.4 0.5 -0.7
v 0.4 0.6 -0.1
v 0.4 0.6 -0.2
v 0.4 0.6 -0.3
v 0.4 0.6 -0.4
v 0.4 0.6 -0.5
v 0.4 0.6 -0.6
v 0.4 0.6 -0.7
v 0.4 0.7 -0.1
v 0.4 0.7 -0.2
v 0.4 0.7 -0.3
v 0.4 0.7 -0.5
v 0.4 0.7 -0.6
v 0.4 0.7 -0.7
v 0.4 0.8 -0.1
v 0.4 0.8 -0.2
v 0.4 0.8 -0.3
v 0.4 0.8 -0.6
v 0.4 0.8 -0.7
v 0.4 0.9 -0.1
v 0.4 0.9 -0.2
v 0.4 0.9 -0.3
v 0.4 0.9 -0.5
v 0.4 0.9 -0.6
v 0.4 0.9 -0.7
v 0.4 1 -0.1
v 0.4 1 -0.2
v 0.4 1 -0.5
v 0.4 1 -0.6
v 0.4 1 -0.7
v 0.4 1.1 -0.1
v 0.4 1.1 -0.3
v 0.4 1.1 -0.5
v 0.4 1.1 -0.6
v 0.4 1.1 -0.7
v -0.3 0.5 -3.72529e-08
v -0.3 1 -3.72529e-08
v -0.2 0.5 -3.72529e-08
v -0.2 0.6 -3.72529e-08
v -0.2 0.7 -3.72529e-08
v -0.2 0.8 -3.72529e-08
v -0.2 0.9 -3.72529e-08
v -0.2 1 -3.72529e-08
v -0.2 1.1 -3.72529e-08
v 0.2 0.5 -3.72529e-08
v 0.2 0.6 -3.72529e-08
v 0.2 0.7 -3.72529e-08
v 0.2 0.8 -3.72529e-08
v 0.2 0.9 -3.72529e-08
v 0.2 1 -3.72529e-08
v 0.2 1.1 -3.72529e-08
v 0.3 0.5 -3.72529e-08
v 0.3 1 -3.72529e-08
v -0.4 0.5 -0.1
v -0.4 0.6 -0.1
v -0.4 0.7 -0.1
v -0.4 0.8 -0.1
v -0.4 0.9 -0.1
v -0.4 1 -0.1
v -0.4 1.1 -0.1
v -0.3 0.5 -0.1
v -0.3 0.6 -0.1
v -0.3 0.7 -0.1
v -0.3 0.8 -0.1
v -0.3 0.9 -0.1
v -0.3 1 -0.1
v -0.3 1.1 -0.1
v -0.2 0.5 -0.1
v -0.2 0.6 -0.1
v -0.2 0.7 -0.1
v -0.2 0.8 -0.1
v -0.2 0.9 -0.1
v -0.2 1 -0.1
v -0.2 1.1 -0.1
v -0.1 0.5 -0.1
v -0.1 0.6 -0.1
v -0.1 0.7 -0.1
v -0.1 0.8 -0.1
v -0.1 0.9 -0.1
v -0.1 1 -0.1
v 0.1 0.5 -0.1
v 0.1 0.6 -0.1
v 0.1 0.7 -0.1
v 0.1 0.8 -0.1
v 0.1 0.9 -0.1
v 0.1 1 -0.1
v 0.2 0.5 -0.1
v 0.2 0.6 -0.1
v 0.2 0.7 -0.1
v 0.2 0.8 -0.1
v 0.2 0.9 -0.1
v 0.2 1 -0.1
v 0.2 1.1 -0.1
v 0.3 0.5 -0.1
v 0.3 0.6 -0.1
v 0.3 0.7 -0.1
v 0.3 0.8 -0.1
v 0.3 0.9 -0.1
v 0.3 1 -0.1
v 0.3 1.1 -0.1
v 0.4 0.5 -0.1
v 0.4 0.6 -0.1
v 0.4 0.7 -0.1
v 0.4 0.8 -0.1
v 0.4 0.9 -0.1
v 0.4 1 -0.1
v 0.4 1.1 -0.1
v -0.3 0 -0.2
v -0.3 0.1 -0.2
v -0.3 0.4 -0.2
v -0.3 0.5 -0.2
v -0.2 0.5 -0.2
v -0.1 0 -0.2
v -0.1 0.1 -0.2
v -0.1 0.4 -0.2
v -0.1 0.5 -0.2
v 0.1 0 -0.2
v 0.1 0.1 -0.2
v 0.1 0.4 -0.2
v 0.1 0.5 -0.2
v 0.2 0.5 -0.2
v 0.3 0 -0.2
v 0.3 0.1 -0.2
v 0.3 0.4 -0.2
v 0.3 0.5 -0.2
v -0.4 0.4 -0.3
v -0.4 0.5 -0.3
v -0.3 0.1 -0.3
v -0.3 0.4 -0.3
v -0.3 0.5 -0.3
v -0.1 0.1 -0.3
v -0.1 0.4 -0.3
v -0.1 0.5 -0.3
v 0.1 0.1 -0.3
v 0.1 0.4 -0.3
v 0.1 0.5 -0.3
v 0.3 0.1 -0.3
v 0.3 0.4 -0.3
v 0.3 0.5 -0.3
v 0.4 0.4 -0.3
v 0.4 0.5 -0.3
v -0.4 0.4 -0.5
v -0.4 0.5 -0.5
v -0.3 0 -0.5
v -0.3 0.4 -0.5
v -0.3 0.5 -0.5
v -0.1 0 -0.5
v -0.1 0.4 -0.5
v -0.1 0.5 -0.5
v 0.1 0 -0.5
v 0.1 0.4 -0.5
v 0.1 0.5 -0.5
v 0.3 0 -0.5
v 0.3 0.4 -0.5
v 0.3 0.5 -0.5
v 0.4 0.4 -0.5
v 0.4 0.5 -0.5
v -0.3 0.4 -0.6
v -0.3 0.5 -0.6
v -0.2 0.5 -0.6
v -0.1 0.4 -0.6
v -0.1 0.5 -0.6
v 0.1 0.4 -0.6
v 0.1 0.5 -0.6
v 0.2 0.5 -0.6
v 0.3 0.4 -0.6
v 0.3 0.5 -0.6
v -0.4 0.5 -0.7
v -0.4 0.6 -0.7
v -0.4 0.7 -0.7
v -0.4 0.8 -0.7
v -0.4 0.9 -0.7
v -0.4 1 -0.7
v -0.4 1.1 -0.7
v -0.3 0.5 -0.7
v -0.3 0.6 -0.7
v -0.3 0.7 -0.7
v -0.3 0.8 -0.7
v -0.3 0.9 -0.7
v -0.3 1 -0.7
v -0.3 1.1 -0.7
v -0.2 0.5 -0.7
v -0.2 0.6 -0.7
v -0.2 0.7 -0.7
v -0.2 0.8 -0.7
v -0.2 0.9 -0.7
v -0.2 1 -0.7
v -0.1 0.5 -0.7
v -0.1 0.6 -0.7
v -0.1 0.7 -0.7
v -0.1 0.8 -0.7
v -0.1 0.9 -0.7
v -0.1 1 -0.7
v 0.1 0.5 -0.7
v 0.1 0.6 -0.7
v 0.1 0.7 -0.7
v 0.1 0.8 -0.7
v 0.1 0.9 -0.7
v 0.1 1 -0.7
v 0.2 0.5 -0.7
v 0.2 0.6 -0.7
v 0.2 0.7 -0.7
v 0.2 0.8 -0.7
v 0.2 0.9 -0.7
v 0.2 1 -0.7
v 0.3 0.5 -0.7
v 0.3 0.6 -0.7
v 0.3 0.7 -0.7
v 0.3 0.8 -0.7
v 0.3 0.9 -0.7
v 0.3 1 -0.7
v 0.3 1.1 -0.7
v 0.4 0.5 -0.7
v 0.4 0.6 -0.7
v 0.4 0.7 -0.7
v 0.4 0.8 -0.7
v 0.4 0.9 -0.7
v 0.4 1 -0.7
v 0.4 1.1 -0.7
v -0.3 1 -0.8
v -0.3 1.1 -0.8
v -0.2 0.8 -0.8
v -0.2 0.9 -0.8
v -0.1 0.6 -0.8
v -0.1 0.8 -0.8
v -0.1 0.9 -0.8
v -0.1 1 -0.8
v 0.1 0.6 -0.8
v 0.1 0.8 -0.8
v 0.1 0.9 -0.8
v 0.1 1 -0.8
v 0.2 0.8 -0.8
v 0.2 0.9 -0.8
v 0.3 1 -0.8
v 0.3 1.1 -0.8
v -0.3 0 -0.2
v -0.1 0 -0.2
v 0.1 0 -0.2
v 0.3 0 -0.2
v -0.3 0 -0.5
v -0.1 0 -0.5
v 0.1 0 -0.5
v 0.3 0 -0.5
v -0.3 0.4 -0.2
v -0.1 0.4 -0.2
v 0.1 0.4 -0.2
v 0.3 0.4 -0.2
v -0.4 0.4 -0.3
v -0.3 0.4 -0.3
v -0.1 0.4 -0.3
v 0.1 0.4 -0.3
v 0.3 0.4 -0.3
v 0.4 0.4 -0.3
v -0.4 0.4 -0.5
v -0.3 0.4 -0.5
v -0.1 0.4 -0.5
v 0.1 0.4 -0.5
v 0.3 0.4 -0.5
v 0.4 0.4 -0.5
v -0.3 0.4 -0.6
v -0.1 0.4 -0.6
v 0.1 0.4 -0.6
v 0.3 0.4 -0.6
v -0.3 0.5 -3.72529e-08
v -0.2 0.5 -3.72529e-08
v 0.2 0.5 -3.72529e-08
v 0.3 0.5 -3.72529e-08
v -0.4 0.5 -0.1
v -0.3 0.5 -0.1
v -0.2 0.5 -0.1
v -0.1 0.5 -0.1
v 0.1 0.5 -0.1
v 0.2 0.5 -0.1
v 0.3 0.5 -0.1
v 0.4 0.5 -0.1
v -0.4 0.5 -0.2
v -0.3 0.5 -0.2
v -0.2 0.5 -0.2
v -0.1 0.5 -0.2
v 0.1 0.5 -0.2
v 0.2 0.5 -0.2
v 0.3 0.5 -0.2
v 0.4 0.5 -0.2
v -0.4 0.5 -0.3
v -0.3 0.5 -0.3
v -0.1 0.5 -0.3
v 0.1 0.5 -0.3
v 0.3 0.5 -0.3
v 0.4 0.5 -0.3
v -0.4 0.5 -0.5
v -0.3 0.5 -0.5
v -0.1 0.5 -0.5
v 0.1 0.5 -0.5
v 0.3 0.5 -0.5
v 0.4 0.5 -0.5
v -0.4 0.5 -0.6
v -0.3 0.5 -0.6
v -0.2 0.5 -0.6
v -0.1 0.5 -0.6
v 0.1 0.5 -0.6
v 0.2 0.5 -0.6
v 0.3 0.5 -0.6
v 0.4 0.5 -0.6
v -0.4 0.5 -0.7
v -0.3 0.5 -0.7
v -0.2 0.5 -0.7
v -0.1 0.5 -0.7
v 0.1 0.5 -0.7
v 0.2 0.5 -0.7
v 0.3 0.5 -0.7
v 0.4 0.5 -0.7
v -0.2 0.6 -3.72529e-08
v 0.2 0.6 -3.72529e-08
v -0.2 0.6 -0.1
v -0.1 0.6 -0.1
v 0.1 0.6 -0.1
v 0.2 0.6 -0.1
v -0.1 0.6 -0.7
v 0.1 0.6 -0.7
v -0.1 0.6 -0.8
v 0.1 0.6 -0.8
v -0.2 0.8 -3.72529e-08
v 0.2 0.8 -3.72529e-08
v -0.2 0.8 -0.1
v -0.1 0.8 -0.1
v 0.1 0.8 -0.1
v 0.2 0.8 -0.1
v -0.2 0.8 -0.7
v -0.1 0.8 -0.7
v 0.1 0.8 -0.7
v 0.2 0.8 -0.7
v -0.2 0.8 -0.8
v -0.1 0.8 -0.8
v 0.1 0.8 -0.8
v 0.2 0.8 -0.8
v -0.2 1 -3.72529e-08
v 0.2 1 -3.72529e-08
v -0.2 1 -0.1
v -0.1 1 -0.1
v 0.1 1 -0.1
v 0.2 1 -0.1
v -0.3 1 -0.7
v -0.2 1 -0.7
v -0.1 1 -0.7
v 0.1 1 -0.7
v 0.2 1 -0.7
v 0.3 1 -0.7
v -0.3 1 -0.8
v -0.1 1 -0.8
v 0.1 1 -0.8
v 0.3 1 -0.8
v -0.3 0.1 -0.2
v -0.1 0.1 -0.2
v 0.1 0.1 -0.2
v 0.3 0.1 -0.2
v -0.3 0.1 -0.3
v -0.1 0.1 -0.3
v 0.1 0.1 -0.3
v 0.3 0.1 -0.3
v -0.2 0.7 -3.72529e-08
v 0.2 0.7 -3.72529e-08
v -0.2 0.7 -0.1
v -0.1 0.7 -0.1
v 0.1 0.7 -0.1
v 0.2 0.7 -0.1
v -0.2 0.9 -3.72529e-08
v 0.2 0.9 -3.72529e-08
v -0.2 0.9 -0.1
v -0.1 0.9 -0.1
v 0.1 0.9 -0.1
v 0.2 0.9 -0.1
v -0.2 0.9 -0.7
v -0.1 0.9 -0.7
v 0.1 0.9 -0.7
v 0.2 0.9 -0.7
v -0.2 0.9 -0.8
v -0.1 0.9 -0.8
v 0.1 0.9 -0.8
v 0.2 0.9 -0.8
v -0.3 1 -3.72529e-08
v -0.2 1 -3.72529e-08
v 0.2 1 -3.72529e-08
v 0.3 1 -3.72529e-08
v -0.3 1 -0.1
v -0.2 1 -0.1
v 0.2 1 -0.1
v 0.3 1 -0.1
v -0.2 1.1 -3.72529e-08
v 0.2 1.1 -3.72529e-08
v -0.4 1.1 -0.1
v -0.3 1.1 -0.1
v -0.2 1.1 -0.1
v -0.1 1.1 -0.1
v 0.1 1.1 -0.1
v 0.2 1.1 -0.1
v 0.3 1.1 -0.1
v 0.4 1.1 -0.1
v -0.3 1.1 -0.2
v -0.2 1.1 -0.2
v -0.1 1.1 -0.2
v 0.1 1.1 -0.2
v 0.2 1.1 -0.2
v 0.3 1.1 -0.2
v -0.4 1.1 -0.3
v -0.3 1.1 -0.3
v 0.3 1.1 -0.3
v 0.4 1.1 -0.3
v -0.4 1.1 -0.5
v -0.3 1.1 -0.5
v 0.3 1.1 -0.5
v 0.4 1.1 -0.5
v -0.4 1.1 -0.6
v -0.3 1.1 -0.6
v -0.2 1.1 -0.6
v -0.1 1.1 -0.6
v 0.1 1.1 -0.6
v 0.2 1.1 -0.6
v 0.3 1.1 -0.6
v 0.4 1.1 -0.6
v -0.4 1.1 -0.7
v -0.3 1.1 -0.7
v -0.2 1.1 -0.7
v -0.1 1.1 -0.7
v 0.1 1.1 -0.7
v 0.2 1.1 -0.7
v 0.3 1.1 -0.7
v 0.4 1.1 -0.7
v -0.3 1.1 -0.8
v 0.3 1.1 -0.8

# faces
f 5/7/1 2/7/1 1/7/1
f 6/7/1 2/7/1 5/7/1
f 7/7/1 2/7/1 6/7/1
f 10/6/1 4/6/1 3/6/1
f 11/7/1 5/7/1 4/7/1
f 11/6/1 4/6/1 10/6/1
f 12/6/1 6/6/1 5/6/1
f 12/7/1 5/7/1 11/7/1
f 13/7/1 7/7/1 6/7/1
f 13/6/1 6/6/1 12/6/1
f 14/6/1 8/6/1 7/6/1
f 14/7/1 7/7/1 13/7/1
f 15/7/1 9/7/1 8/7/1
f 15/6/1 8/6/1 14/6/1
f 16/7/1 9/7/1 15/7/1
f 17/7/1 11/7/1 10/7/1
f 17/7/1 12/7/1 11/7/1
f 18/7/1 12/7/1 17/7/1
f 19/5/1 14/5/1 13/5/1
f 19/7/1 12/7/1 18/7/1
f 19/5/1 13/5/1 12/5/1
f 20/7/1 15/7/1 14/7/1
f 20/5/1 14/5/1 19/5/1
f 21/6/1 16/6/1 15/6/1
f 21/7/1 15/7/1 20/7/1
f 22/6/1 16/6/1 21/6/1
f 23/6/1 18/6/1 17/6/1
f 24/7/1 20/7/1 19/7/1
f 24/6/1 18/6/1 23/6/1
f 24/7/1 19/7/1 18/7/1
f 24/7/1 22/7/1 21/7/1
f 24/7/1 21/7/1 20/7/1
f 25/7/1 22/7/1 24/7/1
f 26/7/1 22/7/1 25/7/1
f 27/7/1 22/7/1 26/7/1
f 28/7/1 24/7/1 23/7/1
f 29/6/1 25/6/1 24/6/1
f 29/7/1 24/7/1 28/7/1
f 30/7/1 26/7/1 25/7/1
f 30/6/1 25/6/1 29/6/1
f 31/7/1 26/7/1 30/7/1
f 32/6/1 27/6/1 26/6/1
f 32/7/1 26/7/1 31/7/1
f 33/6/1 27/6/1 32/6/1
f 34/6/1 29/6/1 28/6/1
f 35/7/1 30/7/1 29/7/1
f 35/6/1 29/6/1 34/6/1
f 36/4/1 31/4/1 30/4/1
f 36/6/1 32/6/1 31/6/1
f 37/7/1 33/7/1 32/7/1
f 37/6/1 32/6/1 36/6/1
f 38/7/1 33/7/1 37/7/1
f 39/7/1 35/7/1 34/7/1
f 40/7/1 30/7/1 35/7/1
f 40/7/1 35/7/1 39/7/1
f 40/4/1 36/4/1 30/4/1
f 41/7/1 37/7/1 36/7/1
f 41/4/1 36/4/1 40/4/1
f 42/6/1 38/6/1 37/6/1
f 42/7/1 37/7/1 41/7/1
f 43/6/1 38/6/1 42/6/1
f 46/7/1 45/7/1 44/7/1
f 47/7/1 45/7/1 46/7/1
f 49/7/1 45/7/1 47/7/1
f 50/7/1 45/7/1 49/7/1
f 54/7/1 49/7/1 48/7/1
f 55/7/1 49/7/1 54/7/1
f 56/7/1 51/7/1 50/7/1
f 57/7/1 51/7/1 56/7/1
f 58/6/1 53/6/1 52/6/1
f 59/6/1 58/6/1 52/6/1
f 60/6/1 59/6/1 52/6/1
f 61/6/1 60/6/1 52/6/1
f 62/6/1 61/6/1 52/6/1
f 63/6/1 61/6/1 62/6/1
f 66/1/1 65/1/1 64/1/1
f 67/1/1 65/1/1 66/1/1
f 70/1/1 69/1/1 68/1/1
f 71/1/1 69/1/1 70/1/1
f 74/6/1 73/6/1 72/6/1
f 75/6/1 73/6/1 74/6/1
f 78/1/1 77/1/1 76/1/1
f 79/1/1 77/1/1 78/1/1
f 80/1/1 77/1/1 79/1/1
f 83/1/1 82/1/1 81/1/1
f 84/1/1 82/1/1 83/1/1
f 87/7/1 86/7/1 85/7/1
f 88/7/1 86/7/1 87/7/1
f 90/7/1 86/7/1 88/7/1
f 91/7/1 86/7/1 90/7/1
f 93/7/1 90/7/1 89/7/1
f 94/7/1 90/7/1 93/7/1
f 95/7/1 92/7/1 91/7/1
f 96/7/1 92/7/1 95/7/1
f 99/6/1 98/6/1 97/6/1
f 100/6/1 98/6/1 99/6/1
f 103/6/1 102/6/1 101/6/1
f 104/6/1 102/6/1 103/6/1
f 107/6/1 106/6/1 105/6/1
f 108/6/1 106/6/1 107/6/1
f 109/6/2 110/6/2 111/6/2
f 111/6/2 110/6/2 112/6/2
f 113/6/2 114/6/2 115/6/2
f 115/6/2 114/6/2 116/6/2
f 117/6/2 118/6/2 119/6/2
f 119/6/2 118/6/2 120/6/2
f 121/7/2 122/7/2 123/7/2
f 123/7/2 122/7/2 124/7/2
f 124/7/2 122/7/2 126/7/2
f 126/7/2 122/7/2 127/7/2
f 125/7/2 126/7/2 129/7/2
f 129/7/2 126/7/2 130/7/2
f 127/7/2 128/7/2 131/7/2
f 131/7/2 128/7/2 132/7/2
f 133/1/2 134/1/2 135/1/2
f 135/1/2 134/1/2 136/1/2
f 136/1/2 134/1/2 137/1/2
f 138/1/2 139/1/2 140/1/2
f 140/1/2 139/1/2 141/1/2
f 142/1/2 143/1/2 144/1/2
f 144/1/2 143/1/2 145/1/2
f 146/6/2 147/6/2 148/6/2
f 148/6/2 147/6/2 149/6/2
f 150/7/2 151/7/2 152/7/2
f 152/7/2 151/7/2 153/7/2
f 153/7/2 151/7/2 155/7/2
f 155/7/2 151/7/2 156/7/2
f 154/7/2 155/7/2 160/7/2
f 160/7/2 155/7/2 161/7/2
f 156/7/2 157/7/2 162/7/2
f 162/7/2 157/7/2 163/7/2
f 158/6/2 159/6/2 164/6/2
f 158/6/2 164/6/2 165/6/2
f 158/6/2 165/6/2 166/6/2
f 158/6/2 166/6/2 167/6/2
f 158/6/2 167/6/2 168/6/2
f 168/6/2 167/6/2 169/6/2
f 170/1/2 171/1/2 172/1/2
f 172/1/2 171/1/2 173/1/2
f 174/7/2 175/7/2 178/7/2
f 178/7/2 175/7/2 179/7/2
f 179/7/2 175/7/2 180/7/2
f 176/6/2 177/6/2 183/6/2
f 177/7/2 178/7/2 184/7/2
f 183/6/2 177/6/2 184/6/2
f 178/6/2 179/6/2 185/6/2
f 184/7/2 178/7/2 185/7/2
f 179/7/2 180/7/2 186/7/2
f 185/6/2 179/6/2 186/6/2
f 180/6/2 181/6/2 187/6/2
f 186/7/2 180/7/2 187/7/2
f 181/7/2 182/7/2 188/7/2
f 187/6/2 181/6/2 188/6/2
f 188/7/2 182/7/2 189/7/2
f 183/7/2 184/7/2 190/7/2
f 184/7/2 185/7/2 190/7/2
f 190/7/2 185/7/2 191/7/2
f 186/5/2 187/5/2 192/5/2
f 191/7/2 185/7/2 192/7/2
f 185/5/2 186/5/2 192/5/2
f 187/7/2 188/7/2 193/7/2
f 192/5/2 187/5/2 193/5/2
f 188/6/2 189/6/2 194/6/2
f 193/7/2 188/7/2 194/7/2
f 194/6/2 189/6/2 195/6/2
f 190/6/2 191/6/2 196/6/2
f 192/7/2 193/7/2 197/7/2
f 196/6/2 191/6/2 197/6/2
f 191/7/2 192/7/2 197/7/2
f 194/7/2 195/7/2 197/7/2
f 193/7/2 194/7/2 197/7/2
f 197/7/2 195/7/2 198/7/2
f 198/7/2 195/7/2 199/7/2
f 199/7/2 195/7/2 200/7/2
f 196/7/2 197/7/2 201/7/2
f 197/6/2 198/6/2 202/6/2
f 201/7/2 197/7/2 202/7/2
f 198/7/2 199/7/2 203/7/2
f 202/6/2 198/6/2 203/6/2
f 203/7/2 199/7/2 204/7/2
f 199/6/2 200/6/2 205/6/2
f 204/7/2 199/7/2 205/7/2
f 205/6/2 200/6/2 206/6/2
f 201/6/2 202/6/2 207/6/2
f 202/7/2 203/7/2 208/7/2
f 207/6/2 202/6/2 208/6/2
f 203/4/2 204/4/2 209/4/2
f 204/6/2 205/6/2 209/6/2
f 205/7/2 206/7/2 210/7/2
f 209/6/2 205/6/2 210/6/2
f 210/7/2 206/7/2 211/7/2
f 207/7/2 208/7/2 212/7/2
f 208/7/2 203/7/2 213/7/2
f 212/7/2 208/7/2 213/7/2
f 203/4/2 209/4/2 213/4/2
f 209/7/2 210/7/2 214/7/2
f 213/4/2 209/4/2 214/4/2
f 210/6/2 211/6/2 215/6/2
f 214/7/2 210/7/2 215/7/2
f 215/6/2 211/6/2 216/6/2
f 219/6/3 218/6/3 217/6/3
f 220/6/3 218/6/3 219/6/3
f 221/6/3 218/6/3 220/6/3
f 222/6/3 218/6/3 221/6/3
f 223/6/3 218/6/3 222/6/3
f 224/6/3 218/6/3 223/6/3
f 227/6/3 221/6/3 220/6/3
f 228/6/3 221/6/3 227/6/3
f 229/6/3 223/6/3 222/6/3
f 230/6/3 223/6/3 229/6/3
f 231/6/3 225/6/3 224/6/3
f 232/6/3 225/6/3 231/6/3
f 233/6/3 230/6/3 229/6/3
f 233/6/3 228/6/3 227/6/3
f 233/6/3 231/6/3 230/6/3
f 233/6/3 227/6/3 226/6/3
f 233/6/3 229/6/3 228/6/3
f 234/6/3 231/6/3 233/6/3
f 242/6/3 236/6/3 235/6/3
f 243/7/3 237/7/3 236/7/3
f 243/6/3 236/6/3 242/6/3
f 244/6/3 238/6/3 237/6/3
f 244/7/3 237/7/3 243/7/3
f 245/7/3 239/7/3 238/7/3
f 245/6/3 238/6/3 244/6/3
f 246/6/3 240/6/3 239/6/3
f 246/7/3 239/7/3 245/7/3
f 247/7/3 241/7/3 240/7/3
f 247/6/3 240/6/3 246/6/3
f 248/7/3 241/7/3 247/7/3
f 254/6/3 248/6/3 247/6/3
f 255/6/3 248/6/3 254/6/3
f 256/6/3 250/6/3 249/6/3
f 257/6/3 250/6/3 256/6/3
f 258/7/3 252/7/3 251/7/3
f 259/7/3 252/7/3 258/7/3
f 260/7/3 254/7/3 253/7/3
f 261/7/3 254/7/3 260/7/3
f 262/7/3 257/7/3 256/7/3
f 263/7/3 257/7/3 262/7/3
f 264/3/3 259/3/3 258/3/3
f 265/3/3 259/3/3 264/3/3
f 266/3/3 261/3/3 260/3/3
f 267/3/3 261/3/3 266/3/3
f 268/6/3 263/6/3 262/6/3
f 269/6/3 263/6/3 268/6/3
f 270/7/3 265/7/3 264/7/3
f 271/7/3 265/7/3 270/7/3
f 272/7/3 267/7/3 266/7/3
f 273/7/3 267/7/3 272/7/3
f 280/6/3 274/6/3 273/6/3
f 281/6/3 274/6/3 280/6/3
f 282/6/3 276/6/3 275/6/3
f 283/7/3 277/7/3 276/7/3
f 283/6/3 276/6/3 282/6/3
f 284/6/3 278/6/3 277/6/3
f 284/7/3 277/7/3 283/7/3
f 285/7/3 279/7/3 278/7/3
f 285/6/3 278/6/3 284/6/3
f 286/6/3 280/6/3 279/6/3
f 286/7/3 279/7/3 285/7/3
f 287/7/3 281/7/3 280/7/3
f 287/6/3 280/6/3 286/6/3
f 288/7/3 281/7/3 287/7/3
f 293/7/3 292/7/3 291/7/3
f 294/7/3 290/7/3 289/7/3
f 295/7/3 290/7/3 294/7/3
f 296/7/3 293/7/3 291/7/3
f 297/7/3 293/7/3 296/7/3
f 302/7/3 301/7/3 300/7/3
f 303/7/3 299/7/3 298/7/3
f 304/7/3 299/7/3 303/7/3
f 305/7/3 302/7/3 300/7/3
f 306/7/3 302/7/3 305/7/3
f 310/7/3 308/7/3 307/7/3
f 311/7/3 308/7/3 310/7/3
f 312/7/3 310/7/3 309/7/3
f 313/7/3 310/7/3 312/7/3
f 316/7/3 314/7/3 313/7/3
f 317/7/3 314/7/3 316/7/3
f 318/7/3 316/7/3 315/7/3
f 319/7/3 316/7/3 318/7/3
f 321/7/3 320/7/3 319/7/3
f 322/7/3 320/7/3 321/7/3
f 323/7/4 324/7/4 326/7/4
f 326/7/4 324/7/4 327/7/4
f 325/7/4 326/7/4 328/7/4
f 328/7/4 326/7/4 329/7/4
f 329/7/4 330/7/4 332/7/4
f 332/7/4 330/7/4 333/7/4
f 331/7/4 332/7/4 334/7/4
f 334/7/4 332/7/4 335/7/4
f 335/7/4 336/7/4 337/7/4
f 337/7/4 336/7/4 338/7/4
f 339/7/4 340/7/4 341/7/4
f 339/7/4 341/7/4 342/7/4
f 342/7/4 341/7/4 343/7/4
f 344/7/4 345/7/4 346/7/4
f 344/7/4 346/7/4 347/7/4
f 347/7/4 346/7/4 348/7/4
f 349/7/4 350/7/4 356/7/4
f 350/6/4 351/6/4 357/6/4
f 356/7/4 350/7/4 357/7/4
f 351/7/4 352/7/4 358/7/4
f 357/6/4 351/6/4 358/6/4
f 352/6/4 353/6/4 359/6/4
f 358/7/4 352/7/4 359/7/4
f 353/7/4 354/7/4 360/7/4
f 359/6/4 353/6/4 360/6/4
f 354/6/4 355/6/4 361/6/4
f 360/7/4 354/7/4 361/7/4
f 361/6/4 355/6/4 362/6/4
f 356/6/4 357/6/4 363/6/4
f 357/7/4 358/7/4 364/7/4
f 363/6/4 357/6/4 364/6/4
f 358/6/4 359/6/4 365/6/4
f 364/7/4 358/7/4 365/7/4
f 359/7/4 360/7/4 366/7/4
f 365/6/4 359/6/4 366/6/4
f 360/6/4 361/6/4 367/6/4
f 366/7/4 360/7/4 367/7/4
f 367/6/4 361/6/4 368/6/4
f 363/7/4 364/7/4 369/7/4
f 364/6/4 365/6/4 370/6/4
f 369/7/4 364/7/4 370/7/4
f 365/7/4 366/7/4 371/7/4
f 370/6/4 365/6/4 371/6/4
f 371/7/4 366/7/4 372/7/4
f 367/7/4 368/7/4 373/7/4
f 373/7/4 368/7/4 374/7/4
f 369/6/4 370/6/4 375/6/4
f 375/6/4 370/6/4 376/6/4
f 375/7/4 376/7/4 381/7/4
f 376/6/4 377/6/4 382/6/4
f 381/7/4 376/7/4 382/7/4
f 377/7/4 378/7/4 383/7/4
f 382/6/4 377/6/4 383/6/4
f 383/7/4 378/7/4 384/7/4
f 379/7/4 380/7/4 385/7/4
f 385/7/4 380/7/4 386/7/4
f 381/6/4 382/6/4 387/6/4
f 382/7/4 383/7/4 388/7/4
f 387/6/4 382/6/4 388/6/4
f 383/6/4 384/6/4 389/6/4
f 388/7/4 383/7/4 389/7/4
f 384/7/4 385/7/4 390/7/4
f 389/6/4 384/6/4 390/6/4
f 385/6/4 386/6/4 391/6/4
f 390/7/4 385/7/4 391/7/4
f 391/6/4 386/6/4 392/6/4
f 387/7/4 388/7/4 394/7/4
f 388/6/4 389/6/4 395/6/4
f 394/7/4 388/7/4 395/7/4
f 389/7/4 390/7/4 396/7/4
f 395/6/4 389/6/4 396/6/4
f 390/6/4 391/6/4 397/6/4
f 396/7/4 390/7/4 397/7/4
f 391/7/4 392/7/4 398/7/4
f 397/6/4 391/6/4 398/6/4
f 392/6/4 393/6/4 399/6/4
f 398/7/4 392/7/4 399/7/4
f 399/6/4 393/6/4 400/6/4
f 403/1/4 404/1/4 406/1/4
f 406/1/4 404/1/4 407/1/4
f 401/1/4 402/1/4 408/1/4
f 406/1/4 407/1/4 409/1/4
f 407/1/4 408/1/4 409/1/4
f 405/1/4 406/1/4 409/1/4
f 409/1/4 408/1/4 410/1/4
f 410/1/4 408/1/4 411/1/4
f 408/1/4 402/1/4 412/1/4
f 411/1/4 408/1/4 412/1/4
f 410/1/4 411/1/4 413/1/4
f 413/1/4 411/1/4 414/1/4
f 412/1/4 402/1/4 415/1/4
f 415/1/4 402/1/4 416/1/4
f 421/7/5 418/7/5 417/7/5
f 422/7/5 418/7/5 421/7/5
f 423/7/5 420/7/5 419/7/5
f 424/7/5 420/7/5 423/7/5
f 430/7/5 426/7/5 425/7/5
f 431/7/5 426/7/5 430/7/5
f 432/7/5 428/7/5 427/7/5
f 433/7/5 428/7/5 432/7/5
f 435/7/5 430/7/5 429/7/5
f 436/7/5 430/7/5 435/7/5
f 437/7/5 432/7/5 431/7/5
f 438/7/5 432/7/5 437/7/5
f 439/7/5 434/7/5 433/7/5
f 440/7/5 434/7/5 439/7/5
f 441/7/5 437/7/5 436/7/5
f 442/7/5 437/7/5 441/7/5
f 443/7/5 439/7/5 438/7/5
f 444/7/5 439/7/5 443/7/5
f 450/6/5 446/6/5 445/6/5
f 451/6/5 446/6/5 450/6/5
f 454/6/5 448/6/5 447/6/5
f 455/6/5 448/6/5 454/6/5
f 457/6/5 450/6/5 449/6/5
f 458/7/5 451/7/5 450/7/5
f 458/6/5 450/6/5 457/6/5
f 459/6/5 452/6/5 451/6/5
f 459/7/5 451/7/5 458/7/5
f 460/7/5 453/7/5 452/7/5
f 460/6/5 452/6/5 459/6/5
f 461/6/5 454/6/5 453/6/5
f 461/7/5 453/7/5 460/7/5
f 462/7/5 455/7/5 454/7/5
f 462/6/5 454/6/5 461/6/5
f 463/6/5 456/6/5 455/6/5
f 463/7/5 455/7/5 462/7/5
f 464/6/5 456/6/5 463/6/5
f 465/7/5 458/7/5 457/7/5
f 466/7/5 458/7/5 465/7/5
f 467/6/5 461/6/5 460/6/5
f 468/6/5 461/6/5 467/6/5
f 469/7/5 464/7/5 463/7/5
f 470/7/5 464/7/5 469/7/5
f 477/6/5 472/6/5 471/6/5
f 478/6/5 472/6/5 477/6/5
f 480/7/5 474/7/5 473/7/5
f 481/7/5 474/7/5 480/7/5
f 483/6/5 476/6/5 475/6/5
f 484/6/5 476/6/5 483/6/5
f 485/7/5 478/7/5 477/7/5
f 486/6/5 479/6/5 478/6/5
f 486/7/5 478/7/5 485/7/5
f 487/7/5 480/7/5 479/7/5
f 487/6/5 479/6/5 486/6/5
f 488/6/5 481/6/5 480/6/5
f 488/7/5 480/7/5 487/7/5
f 489/7/5 482/7/5 481/7/5
f 489/6/5 481/6/5 488/6/5
f 490/6/5 483/6/5 482/6/5
f 490/7/5 482/7/5 489/7/5
f 491/7/5 484/7/5 483/7/5
f 491/6/5 483/6/5 490/6/5
f 492/7/5 484/7/5 491/7/5
f 495/6/5 494/6/5 493/6/5
f 496/6/5 494/6/5 495/6/5
f 497/6/5 494/6/5 496/6/5
f 498/6/5 494/6/5 497/6/5
f 501/1/5 500/1/5 499/1/5
f 502/1/5 500/1/5 501/1/5
f 505/6/5 504/6/5 503/6/5
f 506/6/5 504/6/5 505/6/5
f 507/6/5 504/6/5 506/6/5
f 508/6/5 504/6/5 507/6/5
f 513/1/5 510/1/5 509/1/5
f 514/1/5 510/1/5 513/1/5
f 515/1/5 512/1/5 511/1/5
f 516/1/5 512/1/5 515/1/5
f 519/6/5 518/6/5 517/6/5
f 520/6/5 518/6/5 519/6/5
f 521/6/5 518/6/5 520/6/5
f 522/6/5 518/6/5 521/6/5
f 529/1/5 524/1/5 523/1/5
f 529/1/5 525/1/5 524/1/5
f 530/1/5 525/1/5 529/1/5
f 531/1/5 527/1/5 526/1/5
f 531/1/5 528/1/5 527/1/5
f 532/1/5 528/1/5 531/1/5
f 533/7/6 534/7/6 537/7/6
f 537/7/6 534/7/6 538/7/6
f 535/7/6 536/7/6 539/7/6
f 539/7/6 536/7/6 540/7/6
f 541/6/6 542/6/6 543/6/6
f 543/6/6 542/6/6 544/6/6
f 544/6/6 542/6/6 545/6/6
f 545/6/6 542/6/6 546/6/6
f 547/6/6 548/6/6 549/6/6
f 549/6/6 548/6/6 550/6/6
f 550/6/6 548/6/6 551/6/6
f 551/6/6 548/6/6 552/6/6
f 553/1/6 554/1/6 557/1/6
f 557/1/6 554/1/6 558/1/6
f 555/1/6 556/1/6 559/1/6
f 559/1/6 556/1/6 560/1/6
f 561/6/6 562/6/6 565/6/6
f 565/6/6 562/6/6 566/6/6
f 563/6/6 564/6/6 567/6/6
f 567/6/6 564/6/6 568/6/6
f 569/6/6 570/6/6 573/6/6
f 573/6/6 570/6/6 574/6/6
f 574/6/6 570/6/6 575/6/6
f 575/6/6 570/6/6 576/6/6
f 571/7/6 572/7/6 579/7/6
f 572/6/6 573/6/6 579/6/6
f 573/4/6 574/4/6 580/4/6
f 579/6/6 573/6/6 580/6/6
f 574/6/6 575/6/6 581/6/6
f 580/4/6 574/4/6 581/4/6
f 575/4/6 576/4/6 582/4/6
f 581/6/6 575/6/6 582/6/6
f 576/6/6 577/6/6 583/6/6
f 582/4/6 576/4/6 583/4/6
f 577/7/6 578/7/6 584/7/6
f 583/6/6 577/6/6 584/6/6
f 571/7/6 579/7/6 585/7/6
f 582/4/6 583/4/6 586/4/6
f 585/7/6 579/7/6 586/7/6
f 581/4/6 582/4/6 586/4/6
f 583/4/6 584/4/6 586/4/6
f 580/4/6 581/4/6 586/4/6
f 579/4/6 580/4/6 586/4/6
f 584/7/6 578/7/6 587/7/6
f 586/4/6 584/4/6 587/4/6
f 587/7/6 578/7/6 588/7/6
f 585/4/6 586/4/6 589/4/6
f 586/4/6 587/4/6 589/4/6
f 587/4/6 588/4/6 589/4/6
f 589/4/6 588/4/6 590/4/6
f 590/4/6 588/4/6 591/4/6
f 591/4/6 588/4/6 592/4/6
f 589/7/6 590/7/6 593/7/6
f 590/4/6 591/4/6 594/4/6
f 593/7/6 590/7/6 594/7/6
f 594/4/6 591/4/6 595/4/6
f 595/4/6 591/4/6 596/4/6
f 596/4/6 591/4/6 597/4/6
f 597/4/6 591/4/6 598/4/6
f 591/7/6 592/7/6 599/7/6
f 598/4/6 591/4/6 599/4/6
f 599/7/6 592/7/6 600/7/6
f 593/6/6 594/6/6 601/6/6
f 594/7/6 595/7/6 602/7/6
f 601/6/6 594/6/6 602/6/6
f 595/6/6 596/6/6 603/6/6
f 602/7/6 595/7/6 603/7/6
f 596/7/6 597/7/6 604/7/6
f 603/6/6 596/6/6 604/6/6
f 597/6/6 598/6/6 605/6/6
f 604/7/6 597/7/6 605/7/6
f 598/7/6 599/7/6 606/7/6
f 605/6/6 598/6/6 606/6/6
f 599/6/6 600/6/6 607/6/6
f 606/7/6 599/7/6 607/7/6
f 607/6/6 600/6/6 608/6/6
f 603/1/6 604/1/6 609/1/6
f 606/1/6 607/1/6 609/1/6
f 605/1/6 606/1/6 609/1/6
f 604/1/6 605/1/6 609/1/6
f 602/1/6 603/1/6 609/1/6
f 609/1/6 607/1/6 610/1/6
