# MagicaVoxel @ Ephtracy

# group
o 

# material
mtllib BossManos.mtl
usemtl palette

# normals
vn -1 0 0
vn 1 0 0
vn 0 0 1
vn 0 0 -1
vn 0 -1 0
vn 0 1 0

# texcoords
vt 0.341797 0.5
vt 0.376953 0.5
vt 0.732422 0.5
vt 0.935547 0.5
vt 0.986328 0.5
vt 0.990234 0.5

# verts
v -0.8 1 -0.3
v -0.8 1 -0.5
v -0.8 1.1 -0.3
v -0.8 1.1 -0.5
v -0.7 0.6 -0.3
v -0.7 0.6 -0.5
v -0.7 0.8 -0.3
v -0.7 0.8 -0.5
v -0.7 0.9 -0.3
v -0.7 0.9 -0.5
v -0.7 1 -0.2
v -0.7 1 -0.3
v -0.7 1 -0.5
v -0.7 1 -0.6
v -0.7 1.1 -0.2
v -0.7 1.1 -0.3
v -0.7 1.1 -0.5
v -0.7 1.1 -0.6
v -0.7 1.2 -0.3
v -0.7 1.2 -0.5
v -0.6 0.3 -0.1
v -0.6 0.3 -0.2
v -0.6 0.3 -0.3
v -0.6 0.3 -0.5
v -0.6 0.3 -0.7
v -0.6 0.4 0.1
v -0.6 0.4 -0.1
v -0.6 0.4 -0.2
v -0.6 0.4 -0.3
v -0.6 0.4 -0.5
v -0.6 0.4 -0.7
v -0.6 0.5 0.2
v -0.6 0.5 0.1
v -0.6 0.5 -0.1
v -0.6 0.5 -0.3
v -0.6 0.5 -0.5
v -0.6 0.6 0.3
v -0.6 0.6 0.2
v -0.6 0.6 0.1
v -0.6 0.6 -0.2
v -0.6 0.6 -0.3
v -0.6 0.6 -0.5
v -0.6 0.6 -0.6
v -0.6 0.7 0.5
v -0.6 0.7 0.3
v -0.6 0.7 0.2
v -0.6 0.8 0.6
v -0.6 0.8 0.5
v -0.6 0.8 0.3
v -0.6 0.8 -0.2
v -0.6 0.8 -0.3
v -0.6 0.8 -0.5
v -0.6 0.8 -0.6
v -0.6 0.9 0.6
v -0.6 0.9 0.5
v -0.6 0.9 -0.3
v -0.6 0.9 -0.5
v -0.5 1.1 -0.3
v -0.5 1.1 -0.5
v -0.5 1.2 -0.3
v -0.5 1.2 -0.5
v -0.4 0.3 -0.1
v -0.4 0.3 -0.2
v -0.4 0.3 -0.3
v -0.4 0.3 -0.5
v -0.4 0.3 -0.7
v -0.4 0.4 0.1
v -0.4 0.4 -0.1
v -0.4 0.4 -0.2
v -0.4 0.4 -0.3
v -0.4 0.4 -0.5
v -0.4 0.4 -0.7
v -0.4 0.5 0.2
v -0.4 0.5 0.1
v -0.4 0.5 -0.1
v -0.4 0.5 -0.3
v -0.4 0.5 -0.5
v -0.4 0.6 0.3
v -0.4 0.6 0.2
v -0.4 0.6 0.1
v -0.4 0.6 -0.2
v -0.4 0.6 -0.3
v -0.4 0.6 -0.5
v -0.4 0.6 -0.6
v -0.4 0.7 0.5
v -0.4 0.7 0.3
v -0.4 0.7 0.2
v -0.4 0.8 0.6
v -0.4 0.8 0.5
v -0.4 0.8 0.3
v -0.4 0.8 -0.2
v -0.4 0.8 -0.3
v -0.4 0.8 -0.5
v -0.4 0.8 -0.6
v -0.4 0.9 0.6
v -0.4 0.9 0.5
v -0.4 1 -0.2
v -0.4 1 -0.3
v -0.4 1 -0.5
v -0.4 1 -0.6
v -0.4 1.1 -0.2
v -0.4 1.1 -0.3
v -0.4 1.1 -0.5
v -0.4 1.1 -0.6
v -0.6 0.8 0.6
v -0.6 0.9 0.6
v -0.4 0.8 0.6
v -0.4 0.9 0.6
v -0.6 0.7 0.5
v -0.6 0.8 0.5
v -0.4 0.7 0.5
v -0.4 0.8 0.5
v -0.6 0.6 0.3
v -0.6 0.7 0.3
v -0.4 0.6 0.3
v -0.4 0.7 0.3
v -0.6 0.5 0.2
v -0.6 0.6 0.2
v -0.4 0.5 0.2
v -0.4 0.6 0.2
v -0.6 0.4 0.1
v -0.6 0.5 0.1
v -0.4 0.4 0.1
v -0.4 0.5 0.1
v -0.6 0.3 -0.1
v -0.6 0.4 -0.1
v -0.4 0.3 -0.1
v -0.4 0.4 -0.1
v -0.7 1 -0.2
v -0.7 1.1 -0.2
v -0.6 0.6 -0.2
v -0.6 0.8 -0.2
v -0.4 0.6 -0.2
v -0.4 0.8 -0.2
v -0.4 1 -0.2
v -0.4 1.1 -0.2
v -0.8 1 -0.3
v -0.8 1.1 -0.3
v -0.7 0.6 -0.3
v -0.7 0.8 -0.3
v -0.7 0.9 -0.3
v -0.7 1 -0.3
v -0.7 1.1 -0.3
v -0.7 1.2 -0.3
v -0.6 0.4 -0.3
v -0.6 0.5 -0.3
v -0.6 0.6 -0.3
v -0.6 0.8 -0.3
v -0.6 0.9 -0.3
v -0.5 1.1 -0.3
v -0.5 1.2 -0.3
v -0.4 0.4 -0.3
v -0.4 0.5 -0.3
v -0.4 0.6 -0.3
v -0.4 0.8 -0.3
v -0.4 1 -0.3
v -0.6 0.8 0.5
v -0.6 0.9 0.5
v -0.4 0.8 0.5
v -0.4 0.9 0.5
v -0.6 0.7 0.3
v -0.6 0.8 0.3
v -0.4 0.7 0.3
v -0.4 0.8 0.3
v -0.6 0.6 0.2
v -0.6 0.7 0.2
v -0.4 0.6 0.2
v -0.4 0.7 0.2
v -0.6 0.5 0.1
v -0.6 0.6 0.1
v -0.4 0.5 0.1
v -0.4 0.6 0.1
v -0.6 0.4 -0.1
v -0.6 0.5 -0.1
v -0.4 0.4 -0.1
v -0.4 0.5 -0.1
v -0.8 1 -0.5
v -0.8 1.1 -0.5
v -0.7 0.6 -0.5
v -0.7 0.8 -0.5
v -0.7 0.9 -0.5
v -0.7 1 -0.5
v -0.7 1.1 -0.5
v -0.7 1.2 -0.5
v -0.6 0.4 -0.5
v -0.6 0.5 -0.5
v -0.6 0.6 -0.5
v -0.6 0.8 -0.5
v -0.6 0.9 -0.5
v -0.5 1.1 -0.5
v -0.5 1.2 -0.5
v -0.4 0.4 -0.5
v -0.4 0.5 -0.5
v -0.4 0.6 -0.5
v -0.4 0.8 -0.5
v -0.4 1 -0.5
v -0.7 1 -0.6
v -0.7 1.1 -0.6
v -0.6 0.6 -0.6
v -0.6 0.8 -0.6
v -0.4 0.6 -0.6
v -0.4 0.8 -0.6
v -0.4 1 -0.6
v -0.4 1.1 -0.6
v -0.6 0.3 -0.7
v -0.6 0.4 -0.7
v -0.4 0.3 -0.7
v -0.4 0.4 -0.7
v -0.6 0.3 -0.1
v -0.4 0.3 -0.1
v -0.6 0.3 -0.2
v -0.4 0.3 -0.2
v -0.6 0.3 -0.3
v -0.4 0.3 -0.3
v -0.6 0.3 -0.5
v -0.4 0.3 -0.5
v -0.6 0.3 -0.7
v -0.4 0.3 -0.7
v -0.6 0.4 0.1
v -0.4 0.4 0.1
v -0.6 0.4 -0.1
v -0.4 0.4 -0.1
v -0.6 0.5 0.2
v -0.4 0.5 0.2
v -0.6 0.5 0.1
v -0.4 0.5 0.1
v -0.6 0.6 0.3
v -0.4 0.6 0.3
v -0.6 0.6 0.2
v -0.4 0.6 0.2
v -0.6 0.6 -0.2
v -0.4 0.6 -0.2
v -0.7 0.6 -0.3
v -0.6 0.6 -0.3
v -0.4 0.6 -0.3
v -0.7 0.6 -0.5
v -0.6 0.6 -0.5
v -0.4 0.6 -0.5
v -0.6 0.6 -0.6
v -0.4 0.6 -0.6
v -0.6 0.7 0.5
v -0.4 0.7 0.5
v -0.6 0.7 0.3
v -0.4 0.7 0.3
v -0.6 0.8 0.6
v -0.4 0.8 0.6
v -0.6 0.8 0.5
v -0.4 0.8 0.5
v -0.7 0.9 -0.3
v -0.6 0.9 -0.3
v -0.7 0.9 -0.5
v -0.6 0.9 -0.5
v -0.7 1 -0.2
v -0.4 1 -0.2
v -0.8 1 -0.3
v -0.7 1 -0.3
v -0.4 1 -0.3
v -0.8 1 -0.5
v -0.7 1 -0.5
v -0.4 1 -0.5
v -0.7 1 -0.6
v -0.4 1 -0.6
v -0.6 0.4 -0.1
v -0.4 0.4 -0.1
v -0.6 0.4 -0.2
v -0.4 0.4 -0.2
v -0.6 0.4 -0.3
v -0.4 0.4 -0.3
v -0.6 0.4 -0.5
v -0.4 0.4 -0.5
v -0.6 0.4 -0.7
v -0.4 0.4 -0.7
v -0.6 0.5 0.1
v -0.4 0.5 0.1
v -0.6 0.5 -0.1
v -0.4 0.5 -0.1
v -0.6 0.6 0.2
v -0.4 0.6 0.2
v -0.6 0.6 0.1
v -0.4 0.6 0.1
v -0.6 0.7 0.3
v -0.4 0.7 0.3
v -0.6 0.7 0.2
v -0.4 0.7 0.2
v -0.6 0.8 0.5
v -0.4 0.8 0.5
v -0.6 0.8 0.3
v -0.4 0.8 0.3
v -0.6 0.8 -0.2
v -0.4 0.8 -0.2
v -0.7 0.8 -0.3
v -0.6 0.8 -0.3
v -0.4 0.8 -0.3
v -0.7 0.8 -0.5
v -0.6 0.8 -0.5
v -0.4 0.8 -0.5
v -0.6 0.8 -0.6
v -0.4 0.8 -0.6
v -0.6 0.9 0.6
v -0.4 0.9 0.6
v -0.6 0.9 0.5
v -0.4 0.9 0.5
v -0.7 1.1 -0.2
v -0.4 1.1 -0.2
v -0.8 1.1 -0.3
v -0.7 1.1 -0.3
v -0.5 1.1 -0.3
v -0.4 1.1 -0.3
v -0.8 1.1 -0.5
v -0.7 1.1 -0.5
v -0.5 1.1 -0.5
v -0.4 1.1 -0.5
v -0.7 1.1 -0.6
v -0.4 1.1 -0.6
v -0.7 1.2 -0.3
v -0.5 1.2 -0.3
v -0.7 1.2 -0.5
v -0.5 1.2 -0.5

# faces
f 3/5/1 2/5/1 1/5/1
f 4/5/1 2/5/1 3/5/1
f 7/3/1 6/3/1 5/3/1
f 8/3/1 6/3/1 7/3/1
f 12/5/1 10/5/1 9/5/1
f 13/5/1 10/5/1 12/5/1
f 15/5/1 12/5/1 11/5/1
f 16/5/1 12/5/1 15/5/1
f 17/5/1 14/5/1 13/5/1
f 18/5/1 14/5/1 17/5/1
f 19/5/1 17/5/1 16/5/1
f 20/5/1 17/5/1 19/5/1
f 27/4/1 22/4/1 21/4/1
f 28/1/1 23/1/1 22/1/1
f 28/4/1 22/4/1 27/4/1
f 29/5/1 24/5/1 23/5/1
f 29/1/1 23/1/1 28/1/1
f 30/1/1 25/1/1 24/1/1
f 30/5/1 24/5/1 29/5/1
f 31/1/1 25/1/1 30/1/1
f 33/4/1 27/4/1 26/4/1
f 34/4/1 27/4/1 33/4/1
f 35/5/1 30/5/1 29/5/1
f 36/5/1 30/5/1 35/5/1
f 38/4/1 33/4/1 32/4/1
f 39/4/1 33/4/1 38/4/1
f 41/6/1 36/6/1 35/6/1
f 42/6/1 36/6/1 41/6/1
f 45/4/1 38/4/1 37/4/1
f 46/4/1 38/4/1 45/4/1
f 48/4/1 45/4/1 44/4/1
f 49/4/1 45/4/1 48/4/1
f 50/3/1 41/3/1 40/3/1
f 51/3/1 41/3/1 50/3/1
f 52/3/1 43/3/1 42/3/1
f 53/3/1 43/3/1 52/3/1
f 54/4/1 48/4/1 47/4/1
f 55/4/1 48/4/1 54/4/1
f 56/5/1 52/5/1 51/5/1
f 57/5/1 52/5/1 56/5/1
f 58/5/2 59/5/2 60/5/2
f 60/5/2 59/5/2 61/5/2
f 62/4/2 63/4/2 68/4/2
f 63/1/2 64/1/2 69/1/2
f 68/4/2 63/4/2 69/4/2
f 64/5/2 65/5/2 70/5/2
f 69/1/2 64/1/2 70/1/2
f 65/1/2 66/1/2 71/1/2
f 70/5/2 65/5/2 71/5/2
f 71/1/2 66/1/2 72/1/2
f 67/4/2 68/4/2 74/4/2
f 74/4/2 68/4/2 75/4/2
f 70/5/2 71/5/2 76/5/2
f 76/5/2 71/5/2 77/5/2
f 73/4/2 74/4/2 79/4/2
f 79/4/2 74/4/2 80/4/2
f 76/6/2 77/6/2 82/6/2
f 82/6/2 77/6/2 83/6/2
f 78/4/2 79/4/2 86/4/2
f 86/4/2 79/4/2 87/4/2
f 85/4/2 86/4/2 89/4/2
f 89/4/2 86/4/2 90/4/2
f 81/3/2 82/3/2 91/3/2
f 82/5/2 83/5/2 92/5/2
f 91/3/2 82/3/2 92/3/2
f 83/3/2 84/3/2 93/3/2
f 92/5/2 83/5/2 93/5/2
f 93/3/2 84/3/2 94/3/2
f 88/4/2 89/4/2 95/4/2
f 95/4/2 89/4/2 96/4/2
f 92/5/2 93/5/2 98/5/2
f 98/5/2 93/5/2 99/5/2
f 97/5/2 98/5/2 101/5/2
f 98/6/2 99/6/2 102/6/2
f 101/5/2 98/5/2 102/5/2
f 99/5/2 100/5/2 103/5/2
f 102/6/2 99/6/2 103/6/2
f 103/5/2 100/5/2 104/5/2
f 107/4/3 106/4/3 105/4/3
f 108/4/3 106/4/3 107/4/3
f 111/4/3 110/4/3 109/4/3
f 112/4/3 110/4/3 111/4/3
f 115/4/3 114/4/3 113/4/3
f 116/4/3 114/4/3 115/4/3
f 119/4/3 118/4/3 117/4/3
f 120/4/3 118/4/3 119/4/3
f 123/4/3 122/4/3 121/4/3
f 124/4/3 122/4/3 123/4/3
f 127/4/3 126/4/3 125/4/3
f 128/4/3 126/4/3 127/4/3
f 133/3/3 132/3/3 131/3/3
f 134/3/3 132/3/3 133/3/3
f 135/5/3 130/5/3 129/5/3
f 136/5/3 130/5/3 135/5/3
f 142/5/3 138/5/3 137/5/3
f 143/5/3 138/5/3 142/5/3
f 147/3/3 140/3/3 139/3/3
f 148/3/3 140/3/3 147/3/3
f 149/5/3 142/5/3 141/5/3
f 150/5/3 144/5/3 143/5/3
f 151/5/3 144/5/3 150/5/3
f 152/5/3 146/5/3 145/5/3
f 153/6/3 147/6/3 146/6/3
f 153/5/3 146/5/3 152/5/3
f 154/6/3 147/6/3 153/6/3
f 155/5/3 149/5/3 148/5/3
f 156/5/3 142/5/3 149/5/3
f 156/5/3 149/5/3 155/5/3
f 157/4/4 158/4/4 159/4/4
f 159/4/4 158/4/4 160/4/4
f 161/4/4 162/4/4 163/4/4
f 163/4/4 162/4/4 164/4/4
f 165/4/4 166/4/4 167/4/4
f 167/4/4 166/4/4 168/4/4
f 169/4/4 170/4/4 171/4/4
f 171/4/4 170/4/4 172/4/4
f 173/4/4 174/4/4 175/4/4
f 175/4/4 174/4/4 176/4/4
f 177/5/4 178/5/4 182/5/4
f 182/5/4 178/5/4 183/5/4
f 179/3/4 180/3/4 187/3/4
f 187/3/4 180/3/4 188/3/4
f 181/5/4 182/5/4 189/5/4
f 183/5/4 184/5/4 190/5/4
f 190/5/4 184/5/4 191/5/4
f 185/5/4 186/5/4 192/5/4
f 186/6/4 187/6/4 193/6/4
f 192/5/4 186/5/4 193/5/4
f 193/6/4 187/6/4 194/6/4
f 188/5/4 189/5/4 195/5/4
f 189/5/4 182/5/4 196/5/4
f 195/5/4 189/5/4 196/5/4
f 199/3/4 200/3/4 201/3/4
f 201/3/4 200/3/4 202/3/4
f 197/5/4 198/5/4 203/5/4
f 203/5/4 198/5/4 204/5/4
f 205/1/4 206/1/4 207/1/4
f 207/1/4 206/1/4 208/1/4
f 211/4/5 210/4/5 209/4/5
f 212/4/5 210/4/5 211/4/5
f 213/1/5 212/1/5 211/1/5
f 214/1/5 212/1/5 213/1/5
f 215/5/5 214/5/5 213/5/5
f 216/5/5 214/5/5 215/5/5
f 217/1/5 216/1/5 215/1/5
f 218/1/5 216/1/5 217/1/5
f 221/4/5 220/4/5 219/4/5
f 222/4/5 220/4/5 221/4/5
f 225/4/5 224/4/5 223/4/5
f 226/4/5 224/4/5 225/4/5
f 229/4/5 228/4/5 227/4/5
f 230/4/5 228/4/5 229/4/5
f 234/3/5 232/3/5 231/3/5
f 235/3/5 232/3/5 234/3/5
f 236/3/5 234/3/5 233/3/5
f 237/3/5 234/3/5 236/3/5
f 239/3/5 238/3/5 237/3/5
f 240/3/5 238/3/5 239/3/5
f 243/4/5 242/4/5 241/4/5
f 244/4/5 242/4/5 243/4/5
f 247/4/5 246/4/5 245/4/5
f 248/4/5 246/4/5 247/4/5
f 251/5/5 250/5/5 249/5/5
f 252/5/5 250/5/5 251/5/5
f 256/5/5 254/5/5 253/5/5
f 257/5/5 254/5/5 256/5/5
f 258/5/5 256/5/5 255/5/5
f 259/5/5 256/5/5 258/5/5
f 261/5/5 260/5/5 259/5/5
f 262/5/5 260/5/5 261/5/5
f 263/4/6 264/4/6 265/4/6
f 265/4/6 264/4/6 266/4/6
f 265/1/6 266/1/6 267/1/6
f 267/1/6 266/1/6 268/1/6
f 269/1/6 270/1/6 271/1/6
f 271/1/6 270/1/6 272/1/6
f 273/4/6 274/4/6 275/4/6
f 275/4/6 274/4/6 276/4/6
f 277/4/6 278/4/6 279/4/6
f 279/4/6 278/4/6 280/4/6
f 281/4/6 282/4/6 283/4/6
f 283/4/6 282/4/6 284/4/6
f 285/4/6 286/4/6 287/4/6
f 287/4/6 286/4/6 288/4/6
f 289/3/6 290/3/6 292/3/6
f 292/3/6 290/3/6 293/3/6
f 291/3/6 292/3/6 294/3/6
f 294/3/6 292/3/6 295/3/6
f 295/3/6 296/3/6 297/3/6
f 297/3/6 296/3/6 298/3/6
f 299/4/6 300/4/6 301/4/6
f 301/4/6 300/4/6 302/4/6
f 303/5/6 304/5/6 306/5/6
f 306/5/6 304/5/6 307/5/6
f 307/5/6 304/5/6 308/5/6
f 305/5/6 306/5/6 309/5/6
f 309/5/6 306/5/6 310/5/6
f 307/6/6 308/6/6 311/6/6
f 311/6/6 308/6/6 312/6/6
f 310/5/6 311/5/6 313/5/6
f 311/5/6 312/5/6 313/5/6
f 313/5/6 312/5/6 314/5/6
f 315/5/6 316/5/6 317/5/6
f 317/5/6 316/5/6 318/5/6
